font.ufo
<glyph name="exclam" format="1">
  <advance width="275"/>
  <unicode hex="0021"/>
  <outline>
    <contour>
      <point x="80" y="224" type="line"/>
      <point x="195" y="224" type="line"/>
      <point x="195" y="674" type="line"/>
      <point x="80" y="674" type="line"/>
    </contour>
    <contour>
      <point x="57" y="71" type="curve" smooth="yes"/>
      <point x="57" y="26"/>
      <point x="91" y="-8"/>
      <point x="136" y="-8" type="curve" smooth="yes"/>
      <point x="180" y="-8"/>
      <point x="215" y="26"/>
      <point x="215" y="71" type="curve" smooth="yes"/>
      <point x="215" y="115"/>
      <point x="180" y="150"/>
      <point x="136" y="150" type="curve" smooth="yes"/>
      <point x="91" y="150"/>
      <point x="57" y="115"/>
    </contour>
  </outline>
</glyph>
<glyph name="quotedbl" format="1">
  <advance width="352"/>
  <unicode hex="0022"/>
  <outline>
    <contour>
      <point x="42" y="429" type="line"/>
      <point x="144" y="429" type="line"/>
      <point x="144" y="681" type="line"/>
      <point x="42" y="681" type="line"/>
    </contour>
    <contour>
      <point x="208" y="429" type="line"/>
      <point x="311" y="429" type="line"/>
      <point x="311" y="681" type="line"/>
      <point x="208" y="681" type="line"/>
    </contour>
  </outline>
</glyph>
<glyph name="numbersign" format="1">
  <advance width="739"/>
  <unicode hex="0023"/>
  <outline>
    <contour>
      <point x="90" y="415" type="line"/>
      <point x="691" y="415" type="line"/>
      <point x="691" y="511" type="line"/>
      <point x="90" y="511" type="line"/>
    </contour>
    <contour>
      <point x="374" y="0" type="line"/>
      <point x="478" y="0" type="line"/>
      <point x="620" y="673" type="line"/>
      <point x="517" y="673" type="line"/>
    </contour>
    <contour>
      <point x="118" y="0" type="line"/>
      <point x="221" y="0" type="line"/>
      <point x="364" y="673" type="line"/>
      <point x="260" y="673" type="line"/>
    </contour>
    <contour>
      <point x="48" y="160" type="line"/>
      <point x="650" y="160" type="line"/>
      <point x="650" y="253" type="line"/>
      <point x="48" y="253" type="line"/>
    </contour>
  </outline>
</glyph>
<glyph name="dollar" format="1">
  <advance width="510"/>
  <unicode hex="0024"/>
  <outline>
    <contour>
      <point x="336" y="611" type="line"/>
      <point x="336" y="787" type="line"/>
      <point x="234" y="787" type="line"/>
      <point x="234" y="611" type="line"/>
    </contour>
    <contour>
      <point x="185" y="72" type="line"/>
      <point x="185" y="-115" type="line"/>
      <point x="286" y="-115" type="line"/>
      <point x="286" y="72" type="line"/>
    </contour>
    <contour>
      <point x="437" y="646" type="line"/>
      <point x="387" y="670"/>
      <point x="326" y="679"/>
      <point x="273" y="679" type="curve" smooth="yes"/>
      <point x="133" y="679"/>
      <point x="41" y="604"/>
      <point x="41" y="489" type="curve" smooth="yes"/>
      <point x="41" y="381"/>
      <point x="117" y="334"/>
      <point x="191" y="300" type="curve" smooth="yes"/>
      <point x="269" y="265"/>
      <point x="336" y="243"/>
      <point x="336" y="185" type="curve" smooth="yes"/>
      <point x="336" y="133"/>
      <point x="294" y="102"/>
      <point x="234" y="102" type="curve" smooth="yes"/>
      <point x="170" y="102"/>
      <point x="104" y="122"/>
      <point x="46" y="164" type="curve"/>
      <point x="46" y="35" type="line"/>
      <point x="95" y="7"/>
      <point x="167" y="-8"/>
      <point x="235" y="-8" type="curve" smooth="yes"/>
      <point x="373" y="-8"/>
      <point x="469" y="68"/>
      <point x="469" y="189" type="curve" smooth="yes"/>
      <point x="469" y="308"/>
      <point x="379" y="354"/>
      <point x="296" y="390" type="curve" smooth="yes"/>
      <point x="232" y="419"/>
      <point x="177" y="444"/>
      <point x="177" y="494" type="curve" smooth="yes"/>
      <point x="177" y="537"/>
      <point x="213" y="569"/>
      <point x="277" y="569" type="curve" smooth="yes"/>
      <point x="332" y="569"/>
      <point x="392" y="551"/>
      <point x="437" y="524" type="curve"/>
    </contour>
  </outline>
</glyph>
<glyph name="percent" format="1">
  <advance width="925"/>
  <unicode hex="0025"/>
  <outline>
    <contour>
      <point x="219" y="-1" type="line"/>
      <point x="329" y="-1" type="line"/>
      <point x="701" y="691" type="line"/>
      <point x="590" y="691" type="line"/>
    </contour>
    <contour>
      <point x="523" y="170" type="curve" smooth="yes"/>
      <point x="523" y="72"/>
      <point x="602" y="-8"/>
      <point x="701" y="-8" type="curve" smooth="yes"/>
      <point x="799" y="-8"/>
      <point x="879" y="72"/>
      <point x="879" y="170" type="curve" smooth="yes"/>
      <point x="879" y="268"/>
      <point x="799" y="348"/>
      <point x="701" y="348" type="curve" smooth="yes"/>
      <point x="602" y="348"/>
      <point x="523" y="268"/>
    </contour>
    <contour>
      <point x="47" y="525" type="curve" smooth="yes"/>
      <point x="47" y="427"/>
      <point x="126" y="347"/>
      <point x="225" y="347" type="curve" smooth="yes"/>
      <point x="323" y="347"/>
      <point x="403" y="427"/>
      <point x="403" y="525" type="curve" smooth="yes"/>
      <point x="403" y="624"/>
      <point x="323" y="703"/>
      <point x="225" y="703" type="curve" smooth="yes"/>
      <point x="126" y="703"/>
      <point x="47" y="624"/>
    </contour>
    <contour>
      <point x="145" y="525" type="curve" smooth="yes"/>
      <point x="145" y="569"/>
      <point x="181" y="605"/>
      <point x="225" y="605" type="curve" smooth="yes"/>
      <point x="268" y="605"/>
      <point x="304" y="569"/>
      <point x="304" y="525" type="curve" smooth="yes"/>
      <point x="304" y="482"/>
      <point x="268" y="446"/>
      <point x="225" y="446" type="curve" smooth="yes"/>
      <point x="181" y="446"/>
      <point x="145" y="482"/>
    </contour>
    <contour>
      <point x="622" y="170" type="curve" smooth="yes"/>
      <point x="622" y="214"/>
      <point x="657" y="250"/>
      <point x="701" y="250" type="curve" smooth="yes"/>
      <point x="744" y="250"/>
      <point x="780" y="214"/>
      <point x="780" y="170" type="curve" smooth="yes"/>
      <point x="780" y="127"/>
      <point x="744" y="91"/>
      <point x="701" y="91" type="curve" smooth="yes"/>
      <point x="657" y="91"/>
      <point x="622" y="127"/>
    </contour>
  </outline>
</glyph>
<glyph name="ampersand" format="1">
  <advance width="727"/>
  <unicode hex="0026"/>
  <outline>
    <contour>
      <point x="724" y="0" type="line"/>
      <point x="666" y="53"/>
      <point x="364" y="347"/>
      <point x="364" y="347" type="curve"/>
      <point x="303" y="409"/>
      <point x="250" y="458"/>
      <point x="250" y="511" type="curve" smooth="yes"/>
      <point x="250" y="562"/>
      <point x="287" y="588"/>
      <point x="331" y="588" type="curve" smooth="yes"/>
      <point x="388" y="588"/>
      <point x="420" y="553"/>
      <point x="420" y="501" type="curve" smooth="yes"/>
      <point x="420" y="460"/>
      <point x="395" y="418"/>
      <point x="311" y="379" type="curve"/>
      <point x="387" y="316" type="line"/>
      <point x="501" y="369"/>
      <point x="542" y="430"/>
      <point x="542" y="507" type="curve" smooth="yes"/>
      <point x="542" y="617"/>
      <point x="461" y="689"/>
      <point x="332" y="689" type="curve" smooth="yes"/>
      <point x="215" y="689"/>
      <point x="127" y="625"/>
      <point x="127" y="510" type="curve" smooth="yes"/>
      <point x="127" y="411"/>
      <point x="219" y="340"/>
      <point x="286" y="274" type="curve"/>
      <point x="286" y="274"/>
      <point x="522" y="46"/>
      <point x="572" y="0" type="curve"/>
    </contour>
    <contour>
      <point x="227" y="359" type="line"/>
      <point x="106" y="324"/>
      <point x="56" y="266"/>
      <point x="56" y="181" type="curve" smooth="yes"/>
      <point x="56" y="77"/>
      <point x="157" y="-8"/>
      <point x="328" y="-8" type="curve" smooth="yes"/>
      <point x="522" y="-8"/>
      <point x="646" y="121"/>
      <point x="651" y="288" type="curve"/>
      <point x="541" y="288" type="line"/>
      <point x="537" y="155"/>
      <point x="433" y="94"/>
      <point x="328" y="94" type="curve" smooth="yes"/>
      <point x="242" y="94"/>
      <point x="179" y="130"/>
      <point x="179" y="185" type="curve" smooth="yes"/>
      <point x="179" y="233"/>
      <point x="212" y="266"/>
      <point x="310" y="293" type="curve"/>
    </contour>
  </outline>
</glyph>
<glyph name="quotesingle" format="1">
  <advance width="186"/>
  <unicode hex="0027"/>
  <outline>
    <contour>
      <point x="42" y="429" type="line"/>
      <point x="144" y="429" type="line"/>
      <point x="144" y="681" type="line"/>
      <point x="42" y="681" type="line"/>
    </contour>
  </outline>
</glyph>
<glyph name="parenleft" format="1">
  <advance width="328"/>
  <unicode hex="0028"/>
  <outline>
    <contour>
      <point x="208" y="707" type="curve"/>
      <point x="335" y="707" type="line"/>
      <point x="231" y="575"/>
      <point x="179" y="399"/>
      <point x="179" y="256" type="curve" smooth="yes"/>
      <point x="179" y="118"/>
      <point x="232" y="-57"/>
      <point x="344" y="-196" type="curve"/>
      <point x="214" y="-196" type="line"/>
      <point x="107" y="-62"/>
      <point x="52" y="89"/>
      <point x="52" y="260" type="curve" smooth="yes"/>
      <point x="52" y="435"/>
      <point x="110" y="587"/>
    </contour>
  </outline>
</glyph>
<glyph name="parenright" format="1">
  <advance width="328"/>
  <unicode hex="0029"/>
  <outline>
    <contour>
      <point x="120" y="707" type="curve"/>
      <point x="-7" y="707" type="line"/>
      <point x="97" y="575"/>
      <point x="148" y="399"/>
      <point x="148" y="256" type="curve" smooth="yes"/>
      <point x="148" y="118"/>
      <point x="95" y="-57"/>
      <point x="-16" y="-196" type="curve"/>
      <point x="113" y="-196" type="line"/>
      <point x="220" y="-62"/>
      <point x="276" y="89"/>
      <point x="276" y="260" type="curve" smooth="yes"/>
      <point x="276" y="435"/>
      <point x="217" y="587"/>
    </contour>
  </outline>
</glyph>
<glyph name="asterisk" format="1">
  <advance width="470"/>
  <unicode hex="002A"/>
  <outline>
    <contour>
      <point x="186" y="577" type="line"/>
      <point x="186" y="506"/>
      <point x="231" y="477"/>
      <point x="236" y="472" type="curve"/>
      <point x="240" y="477"/>
      <point x="284" y="506"/>
      <point x="284" y="577" type="curve" smooth="yes"/>
      <point x="284" y="674" type="line"/>
      <point x="186" y="674" type="line"/>
    </contour>
    <contour>
      <point x="121" y="458" type="line"/>
      <point x="138" y="452"/>
      <point x="153" y="450"/>
      <point x="166" y="450" type="curve" smooth="yes"/>
      <point x="207" y="450"/>
      <point x="232" y="471"/>
      <point x="236" y="472" type="curve"/>
      <point x="232" y="477"/>
      <point x="217" y="530"/>
      <point x="151" y="551" type="curve" smooth="yes"/>
      <point x="59" y="581" type="line"/>
      <point x="28" y="488" type="line"/>
    </contour>
    <contour>
      <point x="214" y="360" type="line"/>
      <point x="235" y="388"/>
      <point x="241" y="412"/>
      <point x="241" y="437" type="curve" smooth="yes"/>
      <point x="241" y="468"/>
      <point x="236" y="471"/>
      <point x="236" y="472" type="curve"/>
      <point x="197" y="471"/>
      <point x="160" y="451"/>
      <point x="135" y="417" type="curve" smooth="yes"/>
      <point x="77" y="338" type="line"/>
      <point x="156" y="281" type="line"/>
    </contour>
    <contour>
      <point x="336" y="417" type="line"/>
      <point x="299" y="467"/>
      <point x="253" y="472"/>
      <point x="236" y="472" type="curve"/>
      <point x="235" y="471"/>
      <point x="230" y="468"/>
      <point x="230" y="438" type="curve" smooth="yes"/>
      <point x="230" y="417"/>
      <point x="236" y="389"/>
      <point x="257" y="359" type="curve" smooth="yes"/>
      <point x="314" y="281" type="line"/>
      <point x="393" y="338" type="line"/>
    </contour>
    <contour>
      <point x="319" y="551" type="line"/>
      <point x="253" y="530"/>
      <point x="238" y="478"/>
      <point x="236" y="472" type="curve"/>
      <point x="239" y="471"/>
      <point x="264" y="451"/>
      <point x="305" y="451" type="curve" smooth="yes"/>
      <point x="318" y="451"/>
      <point x="333" y="453"/>
      <point x="350" y="458" type="curve" smooth="yes"/>
      <point x="442" y="488" type="line"/>
      <point x="412" y="581" type="line"/>
    </contour>
  </outline>
</glyph>
<glyph name="plus" format="1">
  <advance width="576"/>
  <unicode hex="002B"/>
  <outline>
    <contour>
      <point x="50" y="285" type="line"/>
      <point x="526" y="285" type="line"/>
      <point x="526" y="393" type="line"/>
      <point x="50" y="393" type="line"/>
    </contour>
    <contour>
      <point x="342" y="102" type="line"/>
      <point x="342" y="578" type="line"/>
      <point x="231" y="578" type="line"/>
      <point x="231" y="102" type="line"/>
    </contour>
  </outline>
</glyph>
<glyph name="comma" format="1">
  <advance width="268"/>
  <unicode hex="002C"/>
  <outline>
    <contour>
      <point x="-7" y="-126" type="line"/>
      <point x="97" y="-126" type="line"/>
      <point x="230" y="121" type="line"/>
      <point x="91" y="121" type="line"/>
    </contour>
  </outline>
</glyph>
<glyph name="hyphen" format="1">
  <advance width="353"/>
  <unicode hex="002D"/>
  <outline>
    <contour>
      <point x="50" y="214" type="line"/>
      <point x="304" y="214" type="line"/>
      <point x="304" y="315" type="line"/>
      <point x="50" y="315" type="line"/>
    </contour>
  </outline>
</glyph>
<glyph name="period" format="1">
  <advance width="223"/>
  <unicode hex="002E"/>
  <outline>
    <contour>
      <point x="34" y="70" type="curve" smooth="yes"/>
      <point x="34" y="27"/>
      <point x="69" y="-8"/>
      <point x="112" y="-8" type="curve" smooth="yes"/>
      <point x="155" y="-8"/>
      <point x="189" y="27"/>
      <point x="189" y="70" type="curve" smooth="yes"/>
      <point x="189" y="113"/>
      <point x="155" y="147"/>
      <point x="112" y="147" type="curve" smooth="yes"/>
      <point x="69" y="147"/>
      <point x="34" y="113"/>
    </contour>
  </outline>
</glyph>
<glyph name="slash" format="1">
  <advance width="441"/>
  <unicode hex="002F"/>
  <outline>
    <contour>
      <point x="-5" y="-103" type="line"/>
      <point x="119" y="-103" type="line"/>
      <point x="481" y="707" type="line"/>
      <point x="356" y="707" type="line"/>
    </contour>
  </outline>
</glyph>
<glyph name="zero" format="1">
  <advance width="546"/>
  <unicode hex="0030"/>
  <outline>
    <contour>
      <point x="38" y="330" type="curve" smooth="yes"/>
      <point x="38" y="130"/>
      <point x="119" y="-8"/>
      <point x="272" y="-8" type="curve" smooth="yes"/>
      <point x="430" y="-8"/>
      <point x="508" y="132"/>
      <point x="508" y="330" type="curve" smooth="yes"/>
      <point x="508" y="533"/>
      <point x="425" y="666"/>
      <point x="272" y="666" type="curve" smooth="yes"/>
      <point x="120" y="666"/>
      <point x="38" y="533"/>
    </contour>
    <contour>
      <point x="161" y="330" type="curve" smooth="yes"/>
      <point x="161" y="481"/>
      <point x="206" y="557"/>
      <point x="272" y="557" type="curve" smooth="yes"/>
      <point x="340" y="557"/>
      <point x="385" y="481"/>
      <point x="385" y="330" type="curve" smooth="yes"/>
      <point x="385" y="181"/>
      <point x="343" y="101"/>
      <point x="272" y="101" type="curve" smooth="yes"/>
      <point x="204" y="101"/>
      <point x="161" y="181"/>
    </contour>
  </outline>
</glyph>
<glyph name="two" format="1">
  <advance width="498"/>
  <unicode hex="0032"/>
  <outline>
    <contour>
      <point x="79" y="23" type="line"/>
      <point x="305" y="159"/>
      <point x="445" y="311"/>
      <point x="445" y="462" type="curve" smooth="yes"/>
      <point x="445" y="593"/>
      <point x="352" y="662"/>
      <point x="228" y="662" type="curve" smooth="yes"/>
      <point x="162" y="662"/>
      <point x="91" y="638"/>
      <point x="48" y="605" type="curve"/>
      <point x="48" y="488" type="line"/>
      <point x="91" y="523"/>
      <point x="153" y="550"/>
      <point x="207" y="550" type="curve" smooth="yes"/>
      <point x="281" y="550"/>
      <point x="320" y="510"/>
      <point x="320" y="444" type="curve" smooth="yes"/>
      <point x="320" y="333"/>
      <point x="166" y="190"/>
      <point x="33" y="96" type="curve"/>
    </contour>
    <contour>
      <point x="33" y="0" type="line"/>
      <point x="460" y="0" type="line"/>
      <point x="460" y="103" type="line"/>
      <point x="460" y="103"/>
      <point x="219" y="103"/>
      <point x="183" y="103" type="curve" smooth="yes"/>
      <point x="33" y="96" type="line"/>
    </contour>
  </outline>
</glyph>
<glyph name="three" format="1">
  <advance width="476"/>
  <unicode hex="0033"/>
  <outline>
    <contour>
      <point x="171" y="382" type="line"/>
      <point x="238" y="382"/>
      <point x="296" y="411"/>
      <point x="296" y="470" type="curve" smooth="yes"/>
      <point x="296" y="529"/>
      <point x="254" y="554"/>
      <point x="193" y="554" type="curve" smooth="yes"/>
      <point x="145" y="554"/>
      <point x="91" y="533"/>
      <point x="57" y="512" type="curve"/>
      <point x="57" y="625" type="line"/>
      <point x="90" y="643"/>
      <point x="145" y="662"/>
      <point x="200" y="662" type="curve" smooth="yes"/>
      <point x="341" y="662"/>
      <point x="420" y="584"/>
      <point x="420" y="484" type="curve" smooth="yes"/>
      <point x="420" y="391"/>
      <point x="360" y="325"/>
      <point x="247" y="313" type="curve"/>
      <point x="247" y="336" type="line"/>
      <point x="360" y="340"/>
      <point x="435" y="283"/>
      <point x="435" y="180" type="curve" smooth="yes"/>
      <point x="435" y="74"/>
      <point x="355" y="-5"/>
      <point x="205" y="-5" type="curve" smooth="yes"/>
      <point x="147" y="-5"/>
      <point x="78" y="7"/>
      <point x="33" y="28" type="curve"/>
      <point x="33" y="145" type="line"/>
      <point x="81" y="119"/>
      <point x="134" y="103"/>
      <point x="197" y="103" type="curve" smooth="yes"/>
      <point x="272" y="103"/>
      <point x="312" y="143"/>
      <point x="312" y="194" type="curve" smooth="yes"/>
      <point x="312" y="245"/>
      <point x="273" y="281"/>
      <point x="171" y="281" type="curve"/>
    </contour>
    <contour>
      <point x="269" y="281" type="line"/>
      <point x="133" y="281" type="line"/>
      <point x="133" y="382" type="line"/>
      <point x="269" y="382" type="line"/>
    </contour>
  </outline>
</glyph>
<glyph name="four" format="1">
  <advance width="554"/>
  <unicode hex="0034"/>
  <outline>
    <contour>
      <point x="35" y="250" type="line"/>
      <point x="532" y="250" type="line"/>
      <point x="532" y="147" type="line"/>
      <point x="35" y="147" type="line"/>
    </contour>
    <contour>
      <point x="253" y="655" type="line"/>
      <point x="366" y="655" type="line"/>
      <point x="154" y="250" type="line"/>
      <point x="35" y="250" type="line"/>
    </contour>
    <contour>
      <point x="326" y="655" type="line"/>
      <point x="446" y="655" type="line"/>
      <point x="446" y="0" type="line"/>
      <point x="326" y="0" type="line"/>
    </contour>
  </outline>
</glyph>
<glyph name="five" format="1">
  <advance width="504"/>
  <unicode hex="0035"/>
  <outline>
    <contour>
      <point x="74" y="276" type="curve"/>
      <point x="74" y="367" type="line"/>
      <point x="125" y="394"/>
      <point x="190" y="414"/>
      <point x="248" y="414" type="curve" smooth="yes"/>
      <point x="389" y="414"/>
      <point x="468" y="336"/>
      <point x="468" y="213" type="curve" smooth="yes"/>
      <point x="468" y="83"/>
      <point x="379" y="-7"/>
      <point x="217" y="-7" type="curve" smooth="yes"/>
      <point x="157" y="-7"/>
      <point x="94" y="3"/>
      <point x="44" y="28" type="curve"/>
      <point x="44" y="143" type="line"/>
      <point x="82" y="120"/>
      <point x="142" y="103"/>
      <point x="197" y="103" type="curve" smooth="yes"/>
      <point x="297" y="103"/>
      <point x="344" y="144"/>
      <point x="344" y="216" type="curve" smooth="yes"/>
      <point x="344" y="275"/>
      <point x="300" y="310"/>
      <point x="223" y="310" type="curve" smooth="yes"/>
      <point x="166" y="310"/>
      <point x="106" y="291"/>
    </contour>
    <contour>
      <point x="426" y="552" type="line"/>
      <point x="74" y="552" type="line"/>
      <point x="74" y="655" type="line"/>
      <point x="426" y="655" type="line"/>
    </contour>
    <contour>
      <point x="74" y="615" type="line"/>
      <point x="192" y="615" type="line"/>
      <point x="192" y="342" type="line"/>
      <point x="74" y="342" type="line"/>
    </contour>
  </outline>
</glyph>
<glyph name="six" format="1">
  <advance width="533"/>
  <unicode hex="0036"/>
  <outline>
    <contour>
      <point x="124" y="303" type="line"/>
      <point x="153" y="370"/>
      <point x="225" y="422"/>
      <point x="312" y="422" type="curve" smooth="yes"/>
      <point x="428" y="422"/>
      <point x="504" y="340"/>
      <point x="504" y="212" type="curve" smooth="yes"/>
      <point x="504" y="83"/>
      <point x="421" y="-16"/>
      <point x="281" y="-16" type="curve" smooth="yes"/>
      <point x="119" y="-16"/>
      <point x="42" y="115"/>
      <point x="42" y="298" type="curve" smooth="yes"/>
      <point x="42" y="519"/>
      <point x="169" y="669"/>
      <point x="356" y="669" type="curve" smooth="yes"/>
      <point x="393" y="669"/>
      <point x="429" y="662"/>
      <point x="454" y="653" type="curve"/>
      <point x="454" y="540" type="line"/>
      <point x="427" y="554"/>
      <point x="398" y="560"/>
      <point x="364" y="560" type="curve" smooth="yes"/>
      <point x="229" y="560"/>
      <point x="164" y="435"/>
      <point x="164" y="298" type="curve" smooth="yes"/>
      <point x="164" y="149"/>
      <point x="217" y="92"/>
      <point x="282" y="92" type="curve" smooth="yes"/>
      <point x="343" y="92"/>
      <point x="380" y="140"/>
      <point x="380" y="211" type="curve" smooth="yes"/>
      <point x="380" y="276"/>
      <point x="343" y="318"/>
      <point x="283" y="318" type="curve" smooth="yes"/>
      <point x="213" y="318"/>
      <point x="162" y="270"/>
      <point x="128" y="215" type="curve"/>
    </contour>
  </outline>
</glyph>
<glyph name="seven" format="1">
  <advance width="469"/>
  <unicode hex="0037"/>
  <outline>
    <contour>
      <point x="192" y="0" type="line"/>
      <point x="64" y="0" type="line"/>
      <point x="325" y="551" type="line"/>
      <point x="452" y="551" type="line"/>
    </contour>
    <contour>
      <point x="452" y="551" type="line"/>
      <point x="17" y="551" type="line"/>
      <point x="17" y="655" type="line"/>
      <point x="452" y="655" type="line"/>
    </contour>
  </outline>
</glyph>
<glyph name="eight" format="1">
  <advance width="541"/>
  <unicode hex="0038"/>
  <outline>
    <contour>
      <point x="51" y="473" type="curve" smooth="yes"/>
      <point x="51" y="366"/>
      <point x="144" y="302"/>
      <point x="268" y="302" type="curve" smooth="yes"/>
      <point x="394" y="302"/>
      <point x="488" y="367"/>
      <point x="488" y="473" type="curve" smooth="yes"/>
      <point x="488" y="606"/>
      <point x="387" y="664"/>
      <point x="268" y="664" type="curve" smooth="yes"/>
      <point x="151" y="664"/>
      <point x="51" y="598"/>
    </contour>
    <contour>
      <point x="268" y="566" type="curve" smooth="yes"/>
      <point x="344" y="566"/>
      <point x="367" y="522"/>
      <point x="367" y="475" type="curve" smooth="yes"/>
      <point x="367" y="413"/>
      <point x="323" y="382"/>
      <point x="271" y="382" type="curve" smooth="yes"/>
      <point x="218" y="382"/>
      <point x="173" y="412"/>
      <point x="173" y="475" type="curve" smooth="yes"/>
      <point x="173" y="521"/>
      <point x="202" y="566"/>
    </contour>
    <contour>
      <point x="41" y="173" type="curve" smooth="yes"/>
      <point x="41" y="60"/>
      <point x="134" y="-9"/>
      <point x="268" y="-9" type="curve" smooth="yes"/>
      <point x="402" y="-9"/>
      <point x="500" y="64"/>
      <point x="500" y="178" type="curve" smooth="yes"/>
      <point x="500" y="309"/>
      <point x="394" y="352"/>
      <point x="268" y="352" type="curve" smooth="yes"/>
      <point x="144" y="352"/>
      <point x="41" y="295"/>
    </contour>
    <contour>
      <point x="269" y="275" type="curve"/>
      <point x="344" y="275"/>
      <point x="379" y="231"/>
      <point x="379" y="181" type="curve" smooth="yes"/>
      <point x="379" y="135"/>
      <point x="346" y="89"/>
      <point x="269" y="89" type="curve" smooth="yes"/>
      <point x="193" y="89"/>
      <point x="162" y="132"/>
      <point x="162" y="177" type="curve" smooth="yes"/>
      <point x="162" y="225"/>
      <point x="193" y="274"/>
    </contour>
  </outline>
</glyph>
<glyph name="nine" format="1">
  <advance width="522"/>
  <unicode hex="0039"/>
  <outline>
    <contour>
      <point x="390" y="421" type="curve"/>
      <point x="394" y="334" type="line"/>
      <point x="363" y="265"/>
      <point x="316" y="230"/>
      <point x="223" y="230" type="curve" smooth="yes"/>
      <point x="112" y="230"/>
      <point x="26" y="310"/>
      <point x="26" y="440" type="curve" smooth="yes"/>
      <point x="26" y="563"/>
      <point x="106" y="663"/>
      <point x="245" y="663" type="curve" smooth="yes"/>
      <point x="402" y="663"/>
      <point x="484" y="537"/>
      <point x="484" y="358" type="curve" smooth="yes"/>
      <point x="484" y="115"/>
      <point x="368" y="-8"/>
      <point x="183" y="-8" type="curve" smooth="yes"/>
      <point x="138" y="-8"/>
      <point x="96" y="0"/>
      <point x="66" y="11" type="curve"/>
      <point x="66" y="126" type="line"/>
      <point x="94" y="113"/>
      <point x="135" y="102"/>
      <point x="172" y="102" type="curve" smooth="yes"/>
      <point x="307" y="102"/>
      <point x="365" y="188"/>
      <point x="365" y="358" type="curve" smooth="yes"/>
      <point x="365" y="488"/>
      <point x="322" y="554"/>
      <point x="251" y="554" type="curve" smooth="yes"/>
      <point x="190" y="554"/>
      <point x="150" y="512"/>
      <point x="150" y="442" type="curve" smooth="yes"/>
      <point x="150" y="374"/>
      <point x="190" y="330"/>
      <point x="253" y="330" type="curve" smooth="yes"/>
      <point x="323" y="330"/>
      <point x="359" y="367"/>
    </contour>
  </outline>
</glyph>
<glyph name="colon" format="1">
  <advance width="267"/>
  <unicode hex="003A"/>
  <outline>
    <contour>
      <point x="57" y="404" type="curve" smooth="yes"/>
      <point x="57" y="361"/>
      <point x="90" y="327"/>
      <point x="133" y="327" type="curve" smooth="yes"/>
      <point x="176" y="327"/>
      <point x="210" y="361"/>
      <point x="210" y="404" type="curve" smooth="yes"/>
      <point x="210" y="447"/>
      <point x="176" y="481"/>
      <point x="133" y="481" type="curve" smooth="yes"/>
      <point x="90" y="481"/>
      <point x="57" y="447"/>
    </contour>
    <contour>
      <point x="57" y="76" type="curve" smooth="yes"/>
      <point x="57" y="33"/>
      <point x="90" y="0"/>
      <point x="133" y="0" type="curve" smooth="yes"/>
      <point x="176" y="0"/>
      <point x="210" y="33"/>
      <point x="210" y="76" type="curve" smooth="yes"/>
      <point x="210" y="119"/>
      <point x="176" y="153"/>
      <point x="133" y="153" type="curve" smooth="yes"/>
      <point x="90" y="153"/>
      <point x="57" y="119"/>
    </contour>
  </outline>
</glyph>
<glyph name="semicolon" format="1">
  <advance width="268"/>
  <unicode hex="003B"/>
  <outline>
    <contour>
      <point x="72" y="404" type="curve" smooth="yes"/>
      <point x="72" y="361"/>
      <point x="105" y="327"/>
      <point x="148" y="327" type="curve" smooth="yes"/>
      <point x="191" y="327"/>
      <point x="226" y="361"/>
      <point x="226" y="404" type="curve" smooth="yes"/>
      <point x="226" y="446"/>
      <point x="191" y="481"/>
      <point x="148" y="481" type="curve" smooth="yes"/>
      <point x="105" y="481"/>
      <point x="72" y="446"/>
    </contour>
    <contour>
      <point x="-7" y="-126" type="line"/>
      <point x="97" y="-126" type="line"/>
      <point x="230" y="121" type="line"/>
      <point x="91" y="121" type="line"/>
    </contour>
  </outline>
</glyph>
<glyph name="less" format="1">
  <advance width="565"/>
  <unicode hex="003C"/>
  <outline>
    <contour>
      <point x="50" y="283" type="line"/>
      <point x="519" y="101" type="line"/>
      <point x="519" y="221" type="line"/>
      <point x="519" y="221"/>
      <point x="200" y="327"/>
      <point x="171" y="341" type="curve"/>
      <point x="199" y="354"/>
      <point x="519" y="459"/>
      <point x="519" y="459" type="curve"/>
      <point x="519" y="580" type="line"/>
      <point x="50" y="398" type="line"/>
    </contour>
  </outline>
</glyph>
<glyph name="equal" format="1">
  <advance width="576"/>
  <unicode hex="003D"/>
  <outline>
    <contour>
      <point x="50" y="399" type="line"/>
      <point x="526" y="399" type="line"/>
      <point x="526" y="499" type="line"/>
      <point x="50" y="499" type="line"/>
    </contour>
    <contour>
      <point x="50" y="181" type="line"/>
      <point x="526" y="181" type="line"/>
      <point x="526" y="282" type="line"/>
      <point x="50" y="282" type="line"/>
    </contour>
  </outline>
</glyph>
<glyph name="greater" format="1">
  <advance width="565"/>
  <unicode hex="003E"/>
  <outline>
    <contour>
      <point x="516" y="398" type="line"/>
      <point x="47" y="580" type="line"/>
      <point x="47" y="459" type="line"/>
      <point x="47" y="459"/>
      <point x="366" y="354"/>
      <point x="394" y="341" type="curve"/>
      <point x="365" y="327"/>
      <point x="47" y="221"/>
      <point x="47" y="221" type="curve"/>
      <point x="47" y="101" type="line"/>
      <point x="516" y="283" type="line"/>
    </contour>
  </outline>
</glyph>
<glyph name="question" format="1">
  <advance width="456"/>
  <unicode hex="003F"/>
  <outline>
    <contour>
      <point x="58" y="534" type="line"/>
      <point x="104" y="564"/>
      <point x="150" y="579"/>
      <point x="197" y="579" type="curve" smooth="yes"/>
      <point x="268" y="579"/>
      <point x="300" y="540"/>
      <point x="300" y="487" type="curve" smooth="yes"/>
      <point x="300" y="417"/>
      <point x="246" y="381"/>
      <point x="131" y="381" type="curve"/>
      <point x="134" y="224" type="line"/>
      <point x="245" y="224" type="line"/>
      <point x="247" y="316" type="line"/>
      <point x="313" y="320"/>
      <point x="423" y="373"/>
      <point x="423" y="499" type="curve" smooth="yes"/>
      <point x="423" y="614"/>
      <point x="337" y="682"/>
      <point x="213" y="682" type="curve" smooth="yes"/>
      <point x="150" y="682"/>
      <point x="96" y="669"/>
      <point x="58" y="649" type="curve"/>
    </contour>
    <contour>
      <point x="109" y="71" type="curve" smooth="yes"/>
      <point x="109" y="26"/>
      <point x="143" y="-8"/>
      <point x="188" y="-8" type="curve" smooth="yes"/>
      <point x="232" y="-8"/>
      <point x="267" y="26"/>
      <point x="267" y="71" type="curve" smooth="yes"/>
      <point x="267" y="115"/>
      <point x="232" y="150"/>
      <point x="188" y="150" type="curve" smooth="yes"/>
      <point x="143" y="150"/>
      <point x="109" y="115"/>
    </contour>
  </outline>
</glyph>
<glyph name="at" format="1">
  <advance width="950"/>
  <unicode hex="0040"/>
  <outline>
    <contour>
      <point x="582" y="430" type="curve"/>
      <point x="680" y="430" type="line"/>
      <point x="673" y="365" type="line" smooth="yes"/>
      <point x="667" y="275"/>
      <point x="664" y="231"/>
      <point x="664" y="208" type="curve" smooth="yes"/>
      <point x="664" y="132"/>
      <point x="685" y="102"/>
      <point x="721" y="102" type="curve" smooth="yes"/>
      <point x="771" y="102"/>
      <point x="809" y="164"/>
      <point x="809" y="264" type="curve" smooth="yes"/>
      <point x="809" y="459"/>
      <point x="672" y="550"/>
      <point x="504" y="550" type="curve" smooth="yes"/>
      <point x="301" y="550"/>
      <point x="156" y="386"/>
      <point x="156" y="196" type="curve" smooth="yes"/>
      <point x="156" y="4"/>
      <point x="292" y="-99"/>
      <point x="448" y="-99" type="curve" smooth="yes"/>
      <point x="508" y="-99"/>
      <point x="578" y="-85"/>
      <point x="640" y="-54" type="curve"/>
      <point x="636" y="-159" type="line"/>
      <point x="576" y="-188"/>
      <point x="504" y="-198"/>
      <point x="448" y="-198" type="curve" smooth="yes"/>
      <point x="191" y="-198"/>
      <point x="48" y="-17"/>
      <point x="48" y="199" type="curve" smooth="yes"/>
      <point x="48" y="454"/>
      <point x="257" y="649"/>
      <point x="509" y="649" type="curve" smooth="yes"/>
      <point x="722" y="649"/>
      <point x="910" y="507"/>
      <point x="910" y="272" type="curve" smooth="yes"/>
      <point x="910" y="110"/>
      <point x="817" y="8"/>
      <point x="717" y="8" type="curve" smooth="yes"/>
      <point x="599" y="8"/>
      <point x="569" y="105"/>
      <point x="569" y="173" type="curve" smooth="yes"/>
      <point x="569" y="251"/>
      <point x="577" y="330"/>
    </contour>
    <contour>
      <point x="607" y="269" type="curve"/>
      <point x="572" y="232" type="line"/>
      <point x="565" y="305"/>
      <point x="529" y="344"/>
      <point x="475" y="344" type="curve" smooth="yes"/>
      <point x="415" y="344"/>
      <point x="366" y="290"/>
      <point x="366" y="203" type="curve" smooth="yes"/>
      <point x="366" y="137"/>
      <point x="408" y="97"/>
      <point x="458" y="97" type="curve" smooth="yes"/>
      <point x="505" y="97"/>
      <point x="556" y="134"/>
      <point x="571" y="207" type="curve"/>
      <point x="595" y="164" type="line"/>
      <point x="575" y="62"/>
      <point x="509" y="8"/>
      <point x="427" y="8" type="curve" smooth="yes"/>
      <point x="319" y="8"/>
      <point x="258" y="99"/>
      <point x="258" y="209" type="curve" smooth="yes"/>
      <point x="258" y="344"/>
      <point x="351" y="433"/>
      <point x="459" y="433" type="curve" smooth="yes"/>
      <point x="539" y="433"/>
      <point x="593" y="379"/>
    </contour>
  </outline>
</glyph>
<glyph name="A" format="1">
  <advance width="674"/>
  <unicode hex="0041"/>
  <outline>
    <contour>
      <point x="28" y="0" type="line"/>
      <point x="160" y="0" type="line"/>
      <point x="250" y="285" type="line" smooth="yes"/>
      <point x="327" y="530"/>
      <point x="336" y="580"/>
      <point x="336" y="580" type="curve"/>
      <point x="336" y="580"/>
      <point x="346" y="530"/>
      <point x="422" y="286" type="curve" smooth="yes"/>
      <point x="511" y="0" type="line"/>
      <point x="647" y="0" type="line"/>
      <point x="419" y="674" type="line"/>
      <point x="256" y="674" type="line"/>
    </contour>
    <contour>
      <point x="180" y="153" type="line"/>
      <point x="509" y="153" type="line"/>
      <point x="509" y="256" type="line"/>
      <point x="180" y="256" type="line"/>
    </contour>
  </outline>
</glyph>
<glyph name="B" format="1">
  <advance width="592"/>
  <unicode hex="0042"/>
  <outline>
    <contour>
      <point x="537" y="491" type="curve" smooth="yes"/>
      <point x="537" y="595"/>
      <point x="458" y="674"/>
      <point x="309" y="674" type="curve" smooth="yes"/>
      <point x="70" y="674" type="line"/>
      <point x="70" y="571" type="line"/>
      <point x="293" y="571" type="line" smooth="yes"/>
      <point x="373" y="571"/>
      <point x="408" y="536"/>
      <point x="408" y="486" type="curve" smooth="yes"/>
      <point x="408" y="434"/>
      <point x="367" y="390"/>
      <point x="272" y="390" type="curve" smooth="yes"/>
      <point x="70" y="390" type="line"/>
      <point x="70" y="289" type="line"/>
      <point x="299" y="289" type="line" smooth="yes"/>
      <point x="389" y="289"/>
      <point x="425" y="250"/>
      <point x="425" y="195" type="curve" smooth="yes"/>
      <point x="425" y="135"/>
      <point x="385" y="103"/>
      <point x="304" y="103" type="curve"/>
      <point x="70" y="103" type="line"/>
      <point x="70" y="0" type="line"/>
      <point x="343" y="0" type="line" smooth="yes"/>
      <point x="478" y="0"/>
      <point x="554" y="78"/>
      <point x="554" y="182" type="curve" smooth="yes"/>
      <point x="554" y="279"/>
      <point x="494" y="327"/>
      <point x="430" y="342" type="curve"/>
      <point x="492" y="359"/>
      <point x="537" y="417"/>
    </contour>
    <contour>
      <point x="70" y="0" type="line"/>
      <point x="196" y="0" type="line"/>
      <point x="196" y="674" type="line"/>
      <point x="70" y="674" type="line"/>
    </contour>
  </outline>
</glyph>
<glyph name="C" format="1">
  <advance width="609"/>
  <unicode hex="0043"/>
  <outline>
    <contour>
      <point x="178" y="337" type="curve" smooth="yes"/>
      <point x="178" y="195"/>
      <point x="269" y="108"/>
      <point x="400" y="108" type="curve" smooth="yes"/>
      <point x="457" y="108"/>
      <point x="519" y="126"/>
      <point x="562" y="158" type="curve"/>
      <point x="562" y="32" type="line"/>
      <point x="511" y="-1"/>
      <point x="441" y="-8"/>
      <point x="388" y="-8" type="curve" smooth="yes"/>
      <point x="192" y="-8"/>
      <point x="43" y="126"/>
      <point x="43" y="337" type="curve" smooth="yes"/>
      <point x="43" y="542"/>
      <point x="186" y="683"/>
      <point x="388" y="683" type="curve" smooth="yes"/>
      <point x="443" y="683"/>
      <point x="509" y="677"/>
      <point x="561" y="646" type="curve"/>
      <point x="561" y="523" type="line"/>
      <point x="504" y="556"/>
      <point x="461" y="567"/>
      <point x="393" y="567" type="curve" smooth="yes"/>
      <point x="274" y="567"/>
      <point x="178" y="480"/>
    </contour>
  </outline>
</glyph>
<glyph name="D" format="1">
  <advance width="675"/>
  <unicode hex="0044"/>
  <outline>
    <contour>
      <point x="70" y="0" type="line"/>
      <point x="199" y="0" type="line"/>
      <point x="199" y="674" type="line"/>
      <point x="70" y="674" type="line"/>
    </contour>
    <contour>
      <point x="290" y="0" type="line"/>
      <point x="502" y="0"/>
      <point x="633" y="141"/>
      <point x="633" y="346" type="curve" smooth="yes"/>
      <point x="633" y="533"/>
      <point x="493" y="674"/>
      <point x="290" y="674" type="curve"/>
      <point x="70" y="674" type="line"/>
      <point x="70" y="568" type="line"/>
      <point x="286" y="568" type="line"/>
      <point x="424" y="568"/>
      <point x="504" y="472"/>
      <point x="504" y="346" type="curve" smooth="yes"/>
      <point x="504" y="204"/>
      <point x="433" y="105"/>
      <point x="288" y="105" type="curve"/>
      <point x="70" y="105" type="line"/>
      <point x="70" y="0" type="line"/>
    </contour>
  </outline>
</glyph>
<glyph name="E" format="1">
  <advance width="528"/>
  <unicode hex="0045"/>
  <outline>
    <contour>
      <point x="113" y="0" type="line"/>
      <point x="472" y="0" type="line"/>
      <point x="472" y="103" type="line"/>
      <point x="113" y="103" type="line"/>
    </contour>
    <contour>
      <point x="70" y="0" type="line"/>
      <point x="197" y="0" type="line"/>
      <point x="197" y="674" type="line"/>
      <point x="70" y="674" type="line"/>
    </contour>
    <contour>
      <point x="113" y="286" type="line"/>
      <point x="438" y="286" type="line"/>
      <point x="438" y="388" type="line"/>
      <point x="113" y="388" type="line"/>
    </contour>
    <contour>
      <point x="113" y="571" type="line"/>
      <point x="468" y="571" type="line"/>
      <point x="468" y="674" type="line"/>
      <point x="113" y="674" type="line"/>
    </contour>
  </outline>
</glyph>
<glyph name="F" format="1">
  <advance width="499"/>
  <unicode hex="0046"/>
  <outline>
    <contour>
      <point x="70" y="0" type="line"/>
      <point x="197" y="0" type="line"/>
      <point x="197" y="674" type="line"/>
      <point x="70" y="674" type="line"/>
    </contour>
    <contour>
      <point x="113" y="269" type="line"/>
      <point x="431" y="269" type="line"/>
      <point x="431" y="372" type="line"/>
      <point x="113" y="372" type="line"/>
    </contour>
    <contour>
      <point x="113" y="571" type="line"/>
      <point x="465" y="571" type="line"/>
      <point x="465" y="674" type="line"/>
      <point x="113" y="674" type="line"/>
    </contour>
  </outline>
</glyph>
<glyph name="H" format="1">
  <advance width="670"/>
  <unicode hex="0048"/>
  <outline>
    <contour>
      <point x="132" y="283" type="line"/>
      <point x="522" y="283" type="line"/>
      <point x="522" y="392" type="line"/>
      <point x="132" y="392" type="line"/>
    </contour>
    <contour>
      <point x="473" y="0" type="line"/>
      <point x="600" y="0" type="line"/>
      <point x="600" y="674" type="line"/>
      <point x="473" y="674" type="line"/>
    </contour>
    <contour>
      <point x="70" y="0" type="line"/>
      <point x="196" y="0" type="line"/>
      <point x="196" y="674" type="line"/>
      <point x="70" y="674" type="line"/>
    </contour>
  </outline>
</glyph>
<glyph name="J" format="1">
  <advance width="379"/>
  <unicode hex="004A"/>
  <outline>
    <contour>
      <point x="30" y="20" type="line"/>
      <point x="55" y="7"/>
      <point x="98" y="-1"/>
      <point x="133" y="-1" type="curve" smooth="yes"/>
      <point x="242" y="-1"/>
      <point x="313" y="62"/>
      <point x="313" y="192" type="curve"/>
      <point x="313" y="673" type="line"/>
      <point x="187" y="673" type="line"/>
      <point x="187" y="192" type="line" smooth="yes"/>
      <point x="187" y="135"/>
      <point x="159" y="110"/>
      <point x="110" y="110" type="curve" smooth="yes"/>
      <point x="80" y="110"/>
      <point x="52" y="120"/>
      <point x="30" y="134" type="curve"/>
    </contour>
  </outline>
</glyph>
<glyph name="K" format="1">
  <advance width="628"/>
  <unicode hex="004B"/>
  <outline>
    <contour>
      <point x="70" y="0" type="line"/>
      <point x="196" y="0" type="line"/>
      <point x="196" y="674" type="line"/>
      <point x="70" y="674" type="line"/>
    </contour>
    <contour>
      <point x="206" y="334" type="line"/>
      <point x="448" y="0" type="line"/>
      <point x="607" y="0" type="line"/>
      <point x="356" y="336" type="line"/>
    </contour>
    <contour>
      <point x="356" y="336" type="line"/>
      <point x="590" y="674" type="line"/>
      <point x="439" y="674" type="line"/>
      <point x="206" y="334" type="line"/>
    </contour>
  </outline>
</glyph>
<glyph name="L" format="1">
  <advance width="484"/>
  <unicode hex="004C"/>
  <outline>
    <contour>
      <point x="70" y="674" type="line"/>
      <point x="196" y="674" type="line"/>
      <point x="196" y="0" type="line"/>
      <point x="70" y="0" type="line"/>
    </contour>
    <contour>
      <point x="113" y="112" type="line"/>
      <point x="459" y="112" type="line"/>
      <point x="459" y="0" type="line"/>
      <point x="113" y="0" type="line"/>
    </contour>
  </outline>
</glyph>
<glyph name="M" format="1">
  <advance width="880"/>
  <unicode hex="004D"/>
  <outline>
    <contour>
      <point x="58" y="0" type="line"/>
      <point x="184" y="0" type="line"/>
      <point x="204" y="263" type="line" smooth="yes"/>
      <point x="211" y="362"/>
      <point x="217" y="456"/>
      <point x="217" y="496" type="curve"/>
      <point x="217" y="496"/>
      <point x="243" y="411"/>
      <point x="296" y="263" type="curve" smooth="yes"/>
      <point x="388" y="10" type="line"/>
      <point x="474" y="10" type="line"/>
      <point x="568" y="263" type="line" smooth="yes"/>
      <point x="618" y="396"/>
      <point x="654" y="499"/>
      <point x="654" y="499" type="curve"/>
      <point x="654" y="499"/>
      <point x="660" y="396"/>
      <point x="672" y="263" type="curve" smooth="yes"/>
      <point x="696" y="0" type="line"/>
      <point x="822" y="0" type="line"/>
      <point x="756" y="674" type="line"/>
      <point x="612" y="674" type="line"/>
      <point x="518" y="429" type="line" smooth="yes"/>
      <point x="463" y="287"/>
      <point x="432" y="183"/>
      <point x="432" y="183" type="curve"/>
      <point x="432" y="183"/>
      <point x="401" y="289"/>
      <point x="348" y="429" type="curve" smooth="yes"/>
      <point x="256" y="674" type="line"/>
      <point x="112" y="674" type="line"/>
    </contour>
  </outline>
</glyph>
<glyph name="N" format="1">
  <advance width="688"/>
  <unicode hex="004E"/>
  <outline>
    <contour>
      <point x="70" y="0" type="line"/>
      <point x="196" y="0" type="line"/>
      <point x="196" y="281" type="line" smooth="yes"/>
      <point x="196" y="427"/>
      <point x="185" y="522"/>
      <point x="185" y="522" type="curve"/>
      <point x="185" y="522"/>
      <point x="223" y="428"/>
      <point x="311" y="280" type="curve" smooth="yes"/>
      <point x="475" y="0" type="line"/>
      <point x="619" y="0" type="line"/>
      <point x="619" y="674" type="line"/>
      <point x="492" y="674" type="line"/>
      <point x="492" y="393" type="line" smooth="yes"/>
      <point x="492" y="238"/>
      <point x="500" y="155"/>
      <point x="500" y="155" type="curve"/>
      <point x="500" y="155"/>
      <point x="466" y="237"/>
      <point x="375" y="393" type="curve" smooth="yes"/>
      <point x="213" y="674" type="line"/>
      <point x="70" y="674" type="line"/>
    </contour>
  </outline>
</glyph>
<glyph name="O" format="1">
  <advance width="723"/>
  <unicode hex="004F"/>
  <outline>
    <contour>
      <point x="43" y="339" type="curve" smooth="yes"/>
      <point x="43" y="131"/>
      <point x="168" y="-7"/>
      <point x="362" y="-7" type="curve" smooth="yes"/>
      <point x="556" y="-7"/>
      <point x="680" y="132"/>
      <point x="680" y="339" type="curve" smooth="yes"/>
      <point x="680" y="548"/>
      <point x="558" y="686"/>
      <point x="361" y="686" type="curve" smooth="yes"/>
      <point x="167" y="686"/>
      <point x="43" y="547"/>
    </contour>
    <contour>
      <point x="178" y="339" type="curve" smooth="yes"/>
      <point x="178" y="481"/>
      <point x="248" y="570"/>
      <point x="361" y="570" type="curve" smooth="yes"/>
      <point x="476" y="570"/>
      <point x="545" y="481"/>
      <point x="545" y="339" type="curve" smooth="yes"/>
      <point x="545" y="197"/>
      <point x="476" y="109"/>
      <point x="362" y="109" type="curve" smooth="yes"/>
      <point x="250" y="109"/>
      <point x="178" y="197"/>
    </contour>
  </outline>
</glyph>
<glyph name="P" format="1">
  <advance width="556"/>
  <unicode hex="0050"/>
  <outline>
    <contour>
      <point x="284" y="229" type="line"/>
      <point x="423" y="229"/>
      <point x="532" y="312"/>
      <point x="532" y="453" type="curve"/>
      <point x="532" y="580"/>
      <point x="435" y="674"/>
      <point x="281" y="674" type="curve" smooth="yes"/>
      <point x="70" y="674" type="line"/>
      <point x="70" y="571" type="line"/>
      <point x="281" y="571" type="line" smooth="yes"/>
      <point x="361" y="569"/>
      <point x="404" y="514"/>
      <point x="404" y="453" type="curve" smooth="yes"/>
      <point x="404" y="389"/>
      <point x="362" y="337"/>
      <point x="285" y="331" type="curve" smooth="yes"/>
      <point x="70" y="331" type="line"/>
      <point x="70" y="229" type="line"/>
    </contour>
    <contour>
      <point x="70" y="0" type="line"/>
      <point x="196" y="0" type="line"/>
      <point x="196" y="674" type="line"/>
      <point x="70" y="674" type="line"/>
    </contour>
  </outline>
</glyph>
<glyph name="Q" format="1">
  <advance width="729"/>
  <unicode hex="0051"/>
  <outline>
    <contour>
      <point x="43" y="339" type="curve" smooth="yes"/>
      <point x="43" y="131"/>
      <point x="168" y="-7"/>
      <point x="362" y="-7" type="curve" smooth="yes"/>
      <point x="556" y="-7"/>
      <point x="680" y="132"/>
      <point x="680" y="339" type="curve" smooth="yes"/>
      <point x="680" y="548"/>
      <point x="558" y="686"/>
      <point x="361" y="686" type="curve" smooth="yes"/>
      <point x="167" y="686"/>
      <point x="43" y="547"/>
    </contour>
    <contour>
      <point x="178" y="339" type="curve" smooth="yes"/>
      <point x="178" y="481"/>
      <point x="248" y="570"/>
      <point x="361" y="570" type="curve" smooth="yes"/>
      <point x="476" y="570"/>
      <point x="545" y="481"/>
      <point x="545" y="339" type="curve" smooth="yes"/>
      <point x="545" y="197"/>
      <point x="476" y="109"/>
      <point x="362" y="109" type="curve" smooth="yes"/>
      <point x="250" y="109"/>
      <point x="178" y="197"/>
    </contour>
    <contour>
      <point x="317" y="36" type="line"/>
      <point x="575" y="-147" type="line"/>
      <point x="717" y="-92" type="line"/>
      <point x="444" y="66" type="line"/>
    </contour>
  </outline>
</glyph>
<glyph name="R" format="1">
  <advance width="589"/>
  <unicode hex="0052"/>
  <outline>
    <contour>
      <point x="219" y="320" type="line"/>
      <point x="418" y="0" type="line"/>
      <point x="569" y="0" type="line"/>
      <point x="361" y="320" type="line"/>
    </contour>
    <contour>
      <point x="396" y="462" type="curve" smooth="yes"/>
      <point x="396" y="394"/>
      <point x="360" y="350"/>
      <point x="280" y="350" type="curve" smooth="yes"/>
      <point x="70" y="350" type="line"/>
      <point x="70" y="246" type="line"/>
      <point x="282" y="246" type="line" smooth="yes"/>
      <point x="418" y="246"/>
      <point x="523" y="318"/>
      <point x="524" y="461" type="curve"/>
      <point x="524" y="588"/>
      <point x="433" y="674"/>
      <point x="278" y="674" type="curve" smooth="yes"/>
      <point x="70" y="674" type="line"/>
      <point x="70" y="570" type="line"/>
      <point x="278" y="570" type="line" smooth="yes"/>
      <point x="354" y="570"/>
      <point x="396" y="531"/>
    </contour>
    <contour>
      <point x="70" y="0" type="line"/>
      <point x="196" y="0" type="line"/>
      <point x="196" y="674" type="line"/>
      <point x="70" y="674" type="line"/>
    </contour>
  </outline>
</glyph>
<glyph name="T" format="1">
  <advance width="520"/>
  <unicode hex="0054"/>
  <outline>
    <contour>
      <point x="197" y="0" type="line"/>
      <point x="324" y="0" type="line"/>
      <point x="324" y="659" type="line"/>
      <point x="197" y="659" type="line"/>
    </contour>
    <contour>
      <point x="26" y="570" type="line"/>
      <point x="495" y="570" type="line"/>
      <point x="495" y="674" type="line"/>
      <point x="26" y="674" type="line"/>
    </contour>
  </outline>
</glyph>
<glyph name="U" format="1">
  <advance width="659"/>
  <unicode hex="0055"/>
  <outline>
    <contour>
      <point x="467" y="258" type="line"/>
      <point x="467" y="142"/>
      <point x="407" y="107"/>
      <point x="329" y="107" type="curve" smooth="yes"/>
      <point x="255" y="107"/>
      <point x="192" y="143"/>
      <point x="192" y="253" type="curve" smooth="yes"/>
      <point x="192" y="674" type="line"/>
      <point x="66" y="674" type="line"/>
      <point x="66" y="252" type="line" smooth="yes"/>
      <point x="66" y="80"/>
      <point x="173" y="-9"/>
      <point x="329" y="-9" type="curve" smooth="yes"/>
      <point x="488" y="-9"/>
      <point x="593" y="80"/>
      <point x="593" y="259" type="curve" smooth="yes"/>
      <point x="593" y="674" type="line"/>
      <point x="467" y="674" type="line"/>
    </contour>
  </outline>
</glyph>
<glyph name="V" format="1">
  <advance width="651"/>
  <unicode hex="0056"/>
  <outline>
    <contour>
      <point x="625" y="674" type="line"/>
      <point x="490" y="674" type="line"/>
      <point x="406" y="406" type="line" smooth="yes"/>
      <point x="349" y="226"/>
      <point x="325" y="114"/>
      <point x="325" y="114" type="curve"/>
      <point x="325" y="114"/>
      <point x="301" y="226"/>
      <point x="245" y="406" type="curve" smooth="yes"/>
      <point x="162" y="674" type="line"/>
      <point x="25" y="674" type="line"/>
      <point x="251" y="0" type="line"/>
      <point x="395" y="0" type="line"/>
    </contour>
  </outline>
</glyph>
<glyph name="W" format="1">
  <advance width="958"/>
  <unicode hex="0057"/>
  <outline>
    <contour>
      <point x="533" y="664" type="line"/>
      <point x="602" y="425" type="line" smooth="yes"/>
      <point x="644" y="278"/>
      <point x="682" y="135"/>
      <point x="682" y="135" type="curve"/>
      <point x="682" y="135"/>
      <point x="707" y="274"/>
      <point x="744" y="426" type="curve" smooth="yes"/>
      <point x="805" y="674" type="line"/>
      <point x="933" y="674" type="line"/>
      <point x="761" y="0" type="line"/>
      <point x="615" y="0" type="line"/>
      <point x="554" y="213" type="line" smooth="yes"/>
      <point x="498" y="404"/>
      <point x="483" y="473"/>
      <point x="483" y="473" type="curve"/>
      <point x="483" y="473"/>
      <point x="469" y="403"/>
      <point x="413" y="213" type="curve" smooth="yes"/>
      <point x="350" y="0" type="line"/>
      <point x="205" y="0" type="line"/>
      <point x="25" y="674" type="line"/>
      <point x="158" y="674" type="line"/>
      <point x="221" y="425" type="line" smooth="yes"/>
      <point x="258" y="274"/>
      <point x="285" y="137"/>
      <point x="285" y="137" type="curve"/>
      <point x="285" y="137"/>
      <point x="317" y="263"/>
      <point x="363" y="425" type="curve" smooth="yes"/>
      <point x="431" y="664" type="line"/>
    </contour>
  </outline>
</glyph>
<glyph name="X" format="1">
  <advance width="644"/>
  <unicode hex="0058"/>
  <outline>
    <contour>
      <point x="42" y="674" type="line"/>
      <point x="189" y="674" type="line"/>
      <point x="318" y="453" type="line"/>
      <point x="342" y="499"/>
      <point x="418" y="629"/>
      <point x="443" y="674" type="curve"/>
      <point x="596" y="674" type="line"/>
      <point x="392" y="341" type="line"/>
      <point x="613" y="0" type="line"/>
      <point x="463" y="0" type="line"/>
      <point x="320" y="233" type="line"/>
      <point x="293" y="183"/>
      <point x="211" y="49"/>
      <point x="183" y="0" type="curve"/>
      <point x="32" y="0" type="line"/>
      <point x="246" y="341" type="line"/>
    </contour>
  </outline>
</glyph>
<glyph name="Y" format="1">
  <advance width="624"/>
  <unicode hex="0059"/>
  <outline>
    <contour>
      <point x="259" y="226" type="line"/>
      <point x="18" y="674" type="line"/>
      <point x="165" y="674" type="line"/>
      <point x="210" y="576" type="line" smooth="yes"/>
      <point x="298" y="384"/>
      <point x="310" y="347"/>
      <point x="310" y="347" type="curve"/>
      <point x="310" y="347"/>
      <point x="319" y="384"/>
      <point x="413" y="576" type="curve" smooth="yes"/>
      <point x="459" y="674" type="line"/>
      <point x="606" y="674" type="line"/>
      <point x="361" y="226" type="line"/>
    </contour>
    <contour>
      <point x="248" y="258" type="line"/>
      <point x="374" y="258" type="line"/>
      <point x="374" y="0" type="line"/>
      <point x="248" y="0" type="line"/>
    </contour>
  </outline>
</glyph>
<glyph name="Z" format="1">
  <advance width="601"/>
  <unicode hex="005A"/>
  <outline>
    <contour>
      <point x="531" y="674" type="line"/>
      <point x="62" y="674" type="line"/>
      <point x="62" y="571" type="line"/>
      <point x="379" y="571" type="line"/>
      <point x="57" y="96" type="line"/>
      <point x="57" y="0" type="line"/>
      <point x="544" y="0" type="line"/>
      <point x="544" y="103" type="line"/>
      <point x="208" y="103" type="line"/>
      <point x="531" y="581" type="line"/>
    </contour>
  </outline>
</glyph>
<glyph name="bracketleft" format="1">
  <advance width="343"/>
  <unicode hex="005B"/>
  <outline>
    <contour>
      <point x="70" y="-191" type="line"/>
      <point x="185" y="-191" type="line"/>
      <point x="185" y="707" type="line"/>
      <point x="70" y="707" type="line"/>
    </contour>
    <contour>
      <point x="70" y="602" type="line"/>
      <point x="332" y="602" type="line"/>
      <point x="332" y="707" type="line"/>
      <point x="70" y="707" type="line"/>
    </contour>
    <contour>
      <point x="70" y="-191" type="line"/>
      <point x="332" y="-191" type="line"/>
      <point x="332" y="-85" type="line"/>
      <point x="70" y="-85" type="line"/>
    </contour>
  </outline>
</glyph>
<glyph name="backslash" format="1">
  <advance width="441"/>
  <unicode hex="005C"/>
  <outline>
    <contour>
      <point x="446" y="-103" type="line"/>
      <point x="321" y="-103" type="line"/>
      <point x="-41" y="707" type="line"/>
      <point x="85" y="707" type="line"/>
    </contour>
  </outline>
</glyph>
<glyph name="bracketright" format="1">
  <advance width="343"/>
  <unicode hex="005D"/>
  <outline>
    <contour>
      <point x="273" y="-191" type="line"/>
      <point x="158" y="-191" type="line"/>
      <point x="158" y="707" type="line"/>
      <point x="273" y="707" type="line"/>
    </contour>
    <contour>
      <point x="273" y="602" type="line"/>
      <point x="11" y="602" type="line"/>
      <point x="11" y="707" type="line"/>
      <point x="273" y="707" type="line"/>
    </contour>
    <contour>
      <point x="273" y="-191" type="line"/>
      <point x="11" y="-191" type="line"/>
      <point x="11" y="-85" type="line"/>
      <point x="273" y="-85" type="line"/>
    </contour>
  </outline>
</glyph>
<glyph name="asciicircum" format="1">
  <advance width="480"/>
  <unicode hex="005E"/>
  <outline>
    <contour>
      <point x="38" y="332" type="line"/>
      <point x="151" y="332" type="line"/>
      <point x="289" y="594" type="line"/>
      <point x="185" y="594" type="line"/>
    </contour>
    <contour>
      <point x="296" y="594" type="line"/>
      <point x="192" y="594" type="line"/>
      <point x="328" y="332" type="line"/>
      <point x="442" y="332" type="line"/>
    </contour>
  </outline>
</glyph>
<glyph name="underscore" format="1">
  <advance width="552"/>
  <unicode hex="005F"/>
  <outline>
    <contour>
      <point x="23" y="-141" type="line"/>
      <point x="529" y="-141" type="line"/>
      <point x="529" y="-40" type="line"/>
      <point x="23" y="-40" type="line"/>
    </contour>
  </outline>
</glyph>
<glyph name="grave" format="1">
  <advance width="470"/>
  <unicode hex="0060"/>
  <outline>
    <contour>
      <point x="253" y="798" type="line"/>
      <point x="127" y="798" type="line"/>
      <point x="243" y="629" type="line"/>
      <point x="344" y="629" type="line"/>
    </contour>
  </outline>
</glyph>
<glyph name="a" format="1">
  <advance width="507"/>
  <unicode hex="0061"/>
  <outline>
    <contour>
      <point x="324" y="170" type="line"/>
      <point x="324" y="120"/>
      <point x="293" y="85"/>
      <point x="239" y="85" type="curve" smooth="yes"/>
      <point x="189" y="85"/>
      <point x="165" y="110"/>
      <point x="165" y="149" type="curve" smooth="yes"/>
      <point x="165" y="187"/>
      <point x="196" y="218"/>
      <point x="262" y="218" type="curve" smooth="yes"/>
      <point x="340" y="218" type="line"/>
      <point x="340" y="298" type="line"/>
      <point x="250" y="298" type="line" smooth="yes"/>
      <point x="112" y="298"/>
      <point x="40" y="239"/>
      <point x="40" y="144" type="curve" smooth="yes"/>
      <point x="40" y="61"/>
      <point x="98" y="-4"/>
      <point x="197" y="-4" type="curve" smooth="yes"/>
      <point x="275" y="-4"/>
      <point x="313" y="31"/>
      <point x="329" y="61" type="curve"/>
      <point x="329" y="0" type="line"/>
      <point x="448" y="0" type="line"/>
      <point x="448" y="324" type="line" smooth="yes"/>
      <point x="448" y="452"/>
      <point x="382" y="516"/>
      <point x="242" y="516" type="curve" smooth="yes"/>
      <point x="172" y="516"/>
      <point x="109" y="500"/>
      <point x="78" y="481" type="curve"/>
      <point x="78" y="370" type="line"/>
      <point x="116" y="395"/>
      <point x="172" y="415"/>
      <point x="227" y="415" type="curve" smooth="yes"/>
      <point x="301" y="415"/>
      <point x="324" y="382"/>
      <point x="324" y="329" type="curve" smooth="yes"/>
    </contour>
  </outline>
</glyph>
<glyph name="b" format="1">
  <advance width="595"/>
  <unicode hex="0062"/>
  <outline>
    <contour>
      <point x="66" y="0" type="line"/>
      <point x="187" y="0" type="line"/>
      <point x="187" y="707" type="line"/>
      <point x="66" y="707" type="line"/>
    </contour>
    <contour>
      <point x="187" y="258" type="curve" smooth="yes"/>
      <point x="187" y="369"/>
      <point x="255" y="412"/>
      <point x="312" y="412" type="curve" smooth="yes"/>
      <point x="378" y="412"/>
      <point x="435" y="357"/>
      <point x="435" y="251" type="curve" smooth="yes"/>
      <point x="435" y="157"/>
      <point x="380" y="96"/>
      <point x="313" y="96" type="curve" smooth="yes"/>
      <point x="245" y="96"/>
      <point x="187" y="148"/>
    </contour>
    <contour>
      <point x="144" y="257" type="curve" smooth="yes"/>
      <point x="144" y="89"/>
      <point x="222" y="-7"/>
      <point x="340" y="-7" type="curve" smooth="yes"/>
      <point x="479" y="-7"/>
      <point x="557" y="117"/>
      <point x="557" y="253" type="curve" smooth="yes"/>
      <point x="557" y="416"/>
      <point x="463" y="514"/>
      <point x="339" y="514" type="curve" smooth="yes"/>
      <point x="227" y="514"/>
      <point x="144" y="423"/>
    </contour>
  </outline>
</glyph>
<glyph name="c" format="1">
  <advance width="470"/>
  <unicode hex="0063"/>
  <outline>
    <contour>
      <point x="161" y="252" type="curve" smooth="yes"/>
      <point x="162" y="350"/>
      <point x="225" y="413"/>
      <point x="318" y="413" type="curve" smooth="yes"/>
      <point x="355" y="413"/>
      <point x="399" y="402"/>
      <point x="432" y="381" type="curve"/>
      <point x="432" y="487" type="line"/>
      <point x="389" y="510"/>
      <point x="343" y="515"/>
      <point x="306" y="515" type="curve" smooth="yes"/>
      <point x="135" y="515"/>
      <point x="39" y="394"/>
      <point x="38" y="252" type="curve" smooth="yes"/>
      <point x="38" y="103"/>
      <point x="142" y="-9"/>
      <point x="300" y="-9" type="curve" smooth="yes"/>
      <point x="347" y="-9"/>
      <point x="398" y="2"/>
      <point x="432" y="22" type="curve"/>
      <point x="432" y="126" type="line"/>
      <point x="399" y="105"/>
      <point x="356" y="92"/>
      <point x="317" y="92" type="curve" smooth="yes"/>
      <point x="220" y="92"/>
      <point x="164" y="158"/>
    </contour>
  </outline>
</glyph>
<glyph name="d" format="1">
  <advance width="594"/>
  <unicode hex="0064"/>
  <outline>
    <contour>
      <point x="529" y="707" type="line"/>
      <point x="409" y="707" type="line"/>
      <point x="409" y="0" type="line"/>
      <point x="529" y="0" type="line"/>
    </contour>
    <contour>
      <point x="409" y="258" type="curve" smooth="yes"/>
      <point x="409" y="148"/>
      <point x="351" y="96"/>
      <point x="283" y="96" type="curve" smooth="yes"/>
      <point x="215" y="96"/>
      <point x="161" y="157"/>
      <point x="161" y="251" type="curve" smooth="yes"/>
      <point x="161" y="357"/>
      <point x="218" y="412"/>
      <point x="284" y="412" type="curve" smooth="yes"/>
      <point x="341" y="412"/>
      <point x="409" y="369"/>
    </contour>
    <contour>
      <point x="451" y="257" type="curve" smooth="yes"/>
      <point x="451" y="423"/>
      <point x="369" y="514"/>
      <point x="257" y="514" type="curve" smooth="yes"/>
      <point x="132" y="514"/>
      <point x="38" y="416"/>
      <point x="38" y="253" type="curve" smooth="yes"/>
      <point x="38" y="117"/>
      <point x="116" y="-7"/>
      <point x="255" y="-7" type="curve" smooth="yes"/>
      <point x="374" y="-7"/>
      <point x="451" y="89"/>
    </contour>
  </outline>
</glyph>
<glyph name="e" format="1">
  <advance width="529"/>
  <unicode hex="0065"/>
  <outline>
    <contour>
      <point x="114" y="205" type="line"/>
      <point x="477" y="205" type="line"/>
      <point x="480" y="224"/>
      <point x="484" y="258"/>
      <point x="484" y="277" type="curve" smooth="yes"/>
      <point x="484" y="435"/>
      <point x="397" y="512"/>
      <point x="269" y="512" type="curve" smooth="yes"/>
      <point x="142" y="512"/>
      <point x="38" y="420"/>
      <point x="38" y="253" type="curve" smooth="yes"/>
      <point x="38" y="104"/>
      <point x="134" y="-5"/>
      <point x="299" y="-5" type="curve" smooth="yes"/>
      <point x="348" y="-5"/>
      <point x="415" y="5"/>
      <point x="452" y="28" type="curve"/>
      <point x="452" y="132" type="line"/>
      <point x="419" y="108"/>
      <point x="372" y="92"/>
      <point x="317" y="92" type="curve" smooth="yes"/>
      <point x="220" y="92"/>
      <point x="154" y="148"/>
      <point x="154" y="253" type="curve" smooth="yes"/>
      <point x="154" y="365"/>
      <point x="210" y="418"/>
      <point x="272" y="418" type="curve" smooth="yes"/>
      <point x="337" y="418"/>
      <point x="367" y="372"/>
      <point x="370" y="310" type="curve" smooth="yes"/>
      <point x="370" y="307"/>
      <point x="370" y="297"/>
      <point x="370" y="295" type="curve"/>
      <point x="114" y="295" type="line"/>
    </contour>
  </outline>
</glyph>
<glyph name="f" format="1">
  <advance width="340"/>
  <unicode hex="0066"/>
  <outline>
    <contour>
      <point x="347" y="608" type="line"/>
      <point x="329" y="615"/>
      <point x="313" y="618"/>
      <point x="297" y="618" type="curve" smooth="yes"/>
      <point x="254" y="618"/>
      <point x="224" y="599"/>
      <point x="224" y="536" type="curve" smooth="yes"/>
      <point x="224" y="0" type="line"/>
      <point x="104" y="0" type="line"/>
      <point x="104" y="537" type="line" smooth="yes"/>
      <point x="104" y="650"/>
      <point x="170" y="718"/>
      <point x="281" y="718" type="curve" smooth="yes"/>
      <point x="302" y="718"/>
      <point x="325" y="716"/>
      <point x="347" y="709" type="curve"/>
    </contour>
    <contour>
      <point x="30" y="507" type="line"/>
      <point x="325" y="507" type="line"/>
      <point x="325" y="417" type="line"/>
      <point x="30" y="417" type="line"/>
    </contour>
  </outline>
</glyph>
<glyph name="h" format="1">
  <advance width="565"/>
  <unicode hex="0068"/>
  <outline>
    <contour>
      <point x="65" y="0" type="line"/>
      <point x="185" y="0" type="line"/>
      <point x="185" y="707" type="line"/>
      <point x="65" y="707" type="line"/>
    </contour>
    <contour>
      <point x="385" y="0" type="line"/>
      <point x="505" y="0" type="line"/>
      <point x="505" y="332" type="line" smooth="yes"/>
      <point x="505" y="454"/>
      <point x="435" y="513"/>
      <point x="340" y="513" type="curve" smooth="yes"/>
      <point x="221" y="513"/>
      <point x="165" y="433"/>
      <point x="163" y="309" type="curve"/>
      <point x="185" y="272" type="line"/>
      <point x="185" y="384"/>
      <point x="252" y="413"/>
      <point x="297" y="413" type="curve" smooth="yes"/>
      <point x="348" y="413"/>
      <point x="385" y="377"/>
      <point x="385" y="311" type="curve" smooth="yes"/>
    </contour>
  </outline>
</glyph>
<glyph name="i" format="1">
  <advance width="260"/>
  <unicode hex="0069"/>
  <outline>
    <contour>
      <point x="70" y="0" type="line"/>
      <point x="190" y="0" type="line"/>
      <point x="190" y="507" type="line"/>
      <point x="70" y="507" type="line"/>
    </contour>
    <contour>
      <point x="58" y="659" type="curve" smooth="yes"/>
      <point x="58" y="618"/>
      <point x="90" y="586"/>
      <point x="130" y="586" type="curve" smooth="yes"/>
      <point x="170" y="586"/>
      <point x="202" y="618"/>
      <point x="202" y="659" type="curve" smooth="yes"/>
      <point x="202" y="699"/>
      <point x="170" y="731"/>
      <point x="130" y="731" type="curve" smooth="yes"/>
      <point x="90" y="731"/>
      <point x="58" y="699"/>
    </contour>
  </outline>
</glyph>
<glyph name="j" format="1">
  <advance width="257"/>
  <unicode hex="006A"/>
  <outline>
    <contour>
      <point x="-42" y="-181" type="line"/>
      <point x="-12" y="-193"/>
      <point x="10" y="-197"/>
      <point x="34" y="-197" type="curve" smooth="yes"/>
      <point x="137" y="-197"/>
      <point x="192" y="-132"/>
      <point x="192" y="-34" type="curve" smooth="yes"/>
      <point x="192" y="507" type="line"/>
      <point x="72" y="507" type="line"/>
      <point x="72" y="-32" type="line" smooth="yes"/>
      <point x="72" y="-82"/>
      <point x="50" y="-101"/>
      <point x="19" y="-101" type="curve" smooth="yes"/>
      <point x="0" y="-101"/>
      <point x="-21" y="-95"/>
      <point x="-42" y="-86" type="curve"/>
    </contour>
    <contour>
      <point x="59" y="659" type="curve" smooth="yes"/>
      <point x="59" y="618"/>
      <point x="91" y="586"/>
      <point x="131" y="586" type="curve" smooth="yes"/>
      <point x="172" y="586"/>
      <point x="204" y="618"/>
      <point x="204" y="659" type="curve" smooth="yes"/>
      <point x="204" y="699"/>
      <point x="172" y="731"/>
      <point x="131" y="731" type="curve" smooth="yes"/>
      <point x="91" y="731"/>
      <point x="59" y="699"/>
    </contour>
  </outline>
</glyph>
<glyph name="k" format="1">
  <advance width="522"/>
  <unicode hex="006B"/>
  <outline>
    <contour>
      <point x="182" y="265" type="line"/>
      <point x="318" y="265" type="line"/>
      <point x="504" y="507" type="line"/>
      <point x="364" y="507" type="line"/>
    </contour>
    <contour>
      <point x="65" y="0" type="line"/>
      <point x="185" y="0" type="line"/>
      <point x="185" y="695" type="line"/>
      <point x="65" y="695" type="line"/>
    </contour>
    <contour>
      <point x="367" y="0" type="line"/>
      <point x="508" y="0" type="line"/>
      <point x="318" y="265" type="line"/>
      <point x="183" y="265" type="line"/>
    </contour>
  </outline>
</glyph>
<glyph name="m" format="1">
  <advance width="843"/>
  <unicode hex="006D"/>
  <outline>
    <contour>
      <point x="65" y="0" type="line"/>
      <point x="185" y="0" type="line"/>
      <point x="185" y="507" type="line"/>
      <point x="65" y="507" type="line"/>
    </contour>
    <contour>
      <point x="364" y="0" type="line"/>
      <point x="485" y="0" type="line"/>
      <point x="485" y="334" type="line" smooth="yes"/>
      <point x="485" y="448"/>
      <point x="429" y="513"/>
      <point x="328" y="513" type="curve" smooth="yes"/>
      <point x="225" y="513"/>
      <point x="158" y="434"/>
      <point x="163" y="309" type="curve"/>
      <point x="185" y="272" type="line"/>
      <point x="185" y="380"/>
      <point x="243" y="413"/>
      <point x="286" y="413" type="curve" smooth="yes"/>
      <point x="338" y="413"/>
      <point x="364" y="375"/>
      <point x="364" y="311" type="curve" smooth="yes"/>
    </contour>
    <contour>
      <point x="663" y="0" type="line"/>
      <point x="784" y="0" type="line"/>
      <point x="784" y="334" type="line" smooth="yes"/>
      <point x="784" y="448"/>
      <point x="726" y="513"/>
      <point x="623" y="513" type="curve" smooth="yes"/>
      <point x="524" y="513"/>
      <point x="451" y="440"/>
      <point x="456" y="318" type="curve"/>
      <point x="485" y="272" type="line"/>
      <point x="485" y="380"/>
      <point x="543" y="413"/>
      <point x="585" y="413" type="curve" smooth="yes"/>
      <point x="637" y="413"/>
      <point x="663" y="375"/>
      <point x="663" y="311" type="curve" smooth="yes"/>
    </contour>
  </outline>
</glyph>
<glyph name="n" format="1">
  <advance width="565"/>
  <unicode hex="006E"/>
  <outline>
    <contour>
      <point x="65" y="0" type="line"/>
      <point x="185" y="0" type="line"/>
      <point x="185" y="507" type="line"/>
      <point x="65" y="507" type="line"/>
    </contour>
    <contour>
      <point x="385" y="0" type="line"/>
      <point x="505" y="0" type="line"/>
      <point x="505" y="337" type="line" smooth="yes"/>
      <point x="505" y="450"/>
      <point x="441" y="513"/>
      <point x="341" y="513" type="curve" smooth="yes"/>
      <point x="233" y="513"/>
      <point x="167" y="440"/>
      <point x="165" y="327" type="curve" smooth="yes"/>
      <point x="165" y="325"/>
      <point x="165" y="274"/>
      <point x="165" y="272" type="curve"/>
      <point x="185" y="272" type="line"/>
      <point x="185" y="367"/>
      <point x="238" y="413"/>
      <point x="296" y="413" type="curve" smooth="yes"/>
      <point x="349" y="413"/>
      <point x="385" y="380"/>
      <point x="385" y="312" type="curve" smooth="yes"/>
    </contour>
  </outline>
</glyph>
<glyph name="o" format="1">
  <advance width="565"/>
  <unicode hex="006F"/>
  <outline>
    <contour>
      <point x="282" y="-8" type="curve" smooth="yes"/>
      <point x="441" y="-8"/>
      <point x="527" y="107"/>
      <point x="527" y="255" type="curve" smooth="yes"/>
      <point x="527" y="399"/>
      <point x="444" y="515"/>
      <point x="282" y="515" type="curve" smooth="yes"/>
      <point x="132" y="515"/>
      <point x="38" y="399"/>
      <point x="38" y="248" type="curve" smooth="yes"/>
      <point x="38" y="105"/>
      <point x="123" y="-8"/>
    </contour>
    <contour>
      <point x="282" y="417" type="curve" smooth="yes"/>
      <point x="370" y="417"/>
      <point x="402" y="340"/>
      <point x="402" y="251" type="curve" smooth="yes"/>
      <point x="402" y="162"/>
      <point x="365" y="88"/>
      <point x="283" y="88" type="curve" smooth="yes"/>
      <point x="204" y="88"/>
      <point x="164" y="164"/>
      <point x="164" y="252" type="curve" smooth="yes"/>
      <point x="164" y="341"/>
      <point x="202" y="417"/>
    </contour>
  </outline>
</glyph>
<glyph name="q" format="1">
  <advance width="594"/>
  <unicode hex="0071"/>
  <outline>
    <contour>
      <point x="529" y="507" type="line"/>
      <point x="409" y="507" type="line"/>
      <point x="409" y="-191" type="line"/>
      <point x="529" y="-191" type="line"/>
    </contour>
    <contour>
      <point x="409" y="257" type="curve" smooth="yes"/>
      <point x="409" y="148"/>
      <point x="348" y="96"/>
      <point x="285" y="96" type="curve" smooth="yes"/>
      <point x="217" y="96"/>
      <point x="161" y="153"/>
      <point x="161" y="254" type="curve" smooth="yes"/>
      <point x="161" y="354"/>
      <point x="216" y="412"/>
      <point x="282" y="412" type="curve" smooth="yes"/>
      <point x="343" y="412"/>
      <point x="409" y="368"/>
    </contour>
    <contour>
      <point x="451" y="256" type="curve" smooth="yes"/>
      <point x="451" y="414"/>
      <point x="377" y="514"/>
      <point x="256" y="514" type="curve" smooth="yes"/>
      <point x="123" y="514"/>
      <point x="38" y="409"/>
      <point x="38" y="256" type="curve" smooth="yes"/>
      <point x="38" y="108"/>
      <point x="119" y="-7"/>
      <point x="256" y="-7" type="curve" smooth="yes"/>
      <point x="366" y="-7"/>
      <point x="451" y="79"/>
    </contour>
  </outline>
</glyph>
<glyph name="t" format="1">
  <advance width="379"/>
  <unicode hex="0074"/>
  <outline>
    <contour>
      <point x="91" y="161" type="line"/>
      <point x="91" y="54"/>
      <point x="143" y="-5"/>
      <point x="255" y="-5" type="curve" smooth="yes"/>
      <point x="280" y="-5"/>
      <point x="320" y="0"/>
      <point x="345" y="12" type="curve"/>
      <point x="345" y="115" type="line"/>
      <point x="325" y="102"/>
      <point x="298" y="94"/>
      <point x="275" y="94" type="curve" smooth="yes"/>
      <point x="236" y="94"/>
      <point x="211" y="116"/>
      <point x="211" y="159" type="curve" smooth="yes"/>
      <point x="211" y="629" type="line"/>
      <point x="91" y="629" type="line"/>
    </contour>
    <contour>
      <point x="15" y="417" type="line"/>
      <point x="337" y="417" type="line"/>
      <point x="337" y="507" type="line"/>
      <point x="15" y="507" type="line"/>
    </contour>
  </outline>
</glyph>
<glyph name="u" format="1">
  <advance width="565"/>
  <unicode hex="0075"/>
  <outline>
    <contour>
      <point x="500" y="507" type="line"/>
      <point x="379" y="507" type="line"/>
      <point x="379" y="0" type="line"/>
      <point x="500" y="0" type="line"/>
    </contour>
    <contour>
      <point x="180" y="507" type="line"/>
      <point x="60" y="507" type="line"/>
      <point x="60" y="164" type="line" smooth="yes"/>
      <point x="60" y="55"/>
      <point x="122" y="-5"/>
      <point x="223" y="-5" type="curve" smooth="yes"/>
      <point x="336" y="-5"/>
      <point x="401" y="64"/>
      <point x="397" y="186" type="curve"/>
      <point x="379" y="235" type="line"/>
      <point x="379" y="137"/>
      <point x="334" y="94"/>
      <point x="268" y="94" type="curve" smooth="yes"/>
      <point x="214" y="94"/>
      <point x="180" y="127"/>
      <point x="180" y="192" type="curve" smooth="yes"/>
    </contour>
  </outline>
</glyph>
<glyph name="v" format="1">
  <advance width="524"/>
  <unicode hex="0076"/>
  <outline>
    <contour>
      <point x="13" y="507" type="line"/>
      <point x="139" y="507" type="line"/>
      <point x="206" y="292" type="line" smooth="yes"/>
      <point x="251" y="150"/>
      <point x="261" y="94"/>
      <point x="261" y="94" type="curve"/>
      <point x="261" y="94"/>
      <point x="271" y="150"/>
      <point x="318" y="292" type="curve" smooth="yes"/>
      <point x="388" y="507" type="line"/>
      <point x="512" y="507" type="line"/>
      <point x="326" y="0" type="line"/>
      <point x="196" y="0" type="line"/>
    </contour>
  </outline>
</glyph>
<glyph name="w" format="1">
  <advance width="801"/>
  <unicode hex="0077"/>
  <outline>
    <contour>
      <point x="13" y="507" type="line"/>
      <point x="138" y="507" type="line"/>
      <point x="184" y="340" type="line" smooth="yes"/>
      <point x="229" y="177"/>
      <point x="238" y="115"/>
      <point x="238" y="115" type="curve"/>
      <point x="238" y="115"/>
      <point x="248" y="176"/>
      <point x="296" y="340" type="curve" smooth="yes"/>
      <point x="345" y="507" type="line"/>
      <point x="454" y="507" type="line"/>
      <point x="503" y="340" type="line" smooth="yes"/>
      <point x="552" y="173"/>
      <point x="561" y="114"/>
      <point x="561" y="114" type="curve"/>
      <point x="561" y="114"/>
      <point x="571" y="173"/>
      <point x="620" y="340" type="curve" smooth="yes"/>
      <point x="668" y="507" type="line"/>
      <point x="788" y="507" type="line"/>
      <point x="627" y="0" type="line"/>
      <point x="497" y="0" type="line"/>
      <point x="452" y="166" type="line" smooth="yes"/>
      <point x="411" y="313"/>
      <point x="400" y="379"/>
      <point x="400" y="379" type="curve"/>
      <point x="400" y="379"/>
      <point x="387" y="313"/>
      <point x="348" y="166" type="curve" smooth="yes"/>
      <point x="303" y="0" type="line"/>
      <point x="173" y="0" type="line"/>
    </contour>
  </outline>
</glyph>
<glyph name="x" format="1">
  <advance width="508"/>
  <unicode hex="0078"/>
  <outline>
    <contour>
      <point x="488" y="0" type="line"/>
      <point x="355" y="0" type="line"/>
      <point x="255" y="170" type="line"/>
      <point x="151" y="0" type="line"/>
      <point x="19" y="0" type="line"/>
      <point x="196" y="256" type="line"/>
      <point x="30" y="507" type="line"/>
      <point x="165" y="507" type="line"/>
      <point x="260" y="342" type="line"/>
      <point x="360" y="507" type="line"/>
      <point x="494" y="507" type="line"/>
      <point x="318" y="255" type="line"/>
    </contour>
  </outline>
</glyph>
<glyph name="y" format="1">
  <advance width="517"/>
  <unicode hex="0079"/>
  <outline>
    <contour>
      <point x="6" y="507" type="line"/>
      <point x="139" y="507" type="line"/>
      <point x="198" y="345" type="line" smooth="yes"/>
      <point x="258" y="183"/>
      <point x="265" y="148"/>
      <point x="265" y="148" type="curve"/>
      <point x="265" y="148"/>
      <point x="275" y="183"/>
      <point x="329" y="345" type="curve" smooth="yes"/>
      <point x="382" y="507" type="line"/>
      <point x="508" y="507" type="line"/>
      <point x="325" y="14" type="line" smooth="yes"/>
      <point x="270" y="-132"/>
      <point x="191" y="-189"/>
      <point x="93" y="-189" type="curve" smooth="yes"/>
      <point x="73" y="-189"/>
      <point x="60" y="-188"/>
      <point x="43" y="-184" type="curve"/>
      <point x="43" y="-85" type="line"/>
      <point x="55" y="-88"/>
      <point x="66" y="-89"/>
      <point x="77" y="-89" type="curve" smooth="yes"/>
      <point x="139" y="-89"/>
      <point x="180" y="-57"/>
      <point x="206" y="10" type="curve"/>
    </contour>
  </outline>
</glyph>
<glyph name="z" format="1">
  <advance width="469"/>
  <unicode hex="007A"/>
  <outline>
    <contour>
      <point x="415" y="507" type="line"/>
      <point x="51" y="507" type="line"/>
      <point x="51" y="411" type="line"/>
      <point x="277" y="411" type="line"/>
      <point x="42" y="89" type="line"/>
      <point x="42" y="0" type="line"/>
      <point x="428" y="0" type="line"/>
      <point x="428" y="97" type="line"/>
      <point x="179" y="97" type="line"/>
      <point x="415" y="423" type="line"/>
    </contour>
  </outline>
</glyph>
<glyph name="braceleft" format="1">
  <advance width="363"/>
  <unicode hex="007B"/>
  <outline>
    <contour>
      <point x="152" y="258" type="curve"/>
      <point x="220" y="268"/>
      <point x="270" y="326"/>
      <point x="270" y="406" type="curve" smooth="yes"/>
      <point x="270" y="456"/>
      <point x="255" y="499"/>
      <point x="255" y="537" type="curve" smooth="yes"/>
      <point x="255" y="573"/>
      <point x="277" y="600"/>
      <point x="310" y="600" type="curve" smooth="yes"/>
      <point x="320" y="600"/>
      <point x="332" y="597"/>
      <point x="342" y="591" type="curve"/>
      <point x="342" y="591"/>
      <point x="342" y="704"/>
      <point x="342" y="704" type="curve"/>
      <point x="322" y="711"/>
      <point x="302" y="714"/>
      <point x="283" y="714" type="curve" smooth="yes"/>
      <point x="199" y="714"/>
      <point x="135" y="646"/>
      <point x="135" y="546" type="curve" smooth="yes"/>
      <point x="135" y="500"/>
      <point x="151" y="459"/>
      <point x="151" y="421" type="curve" smooth="yes"/>
      <point x="151" y="370"/>
      <point x="121" y="320"/>
      <point x="65" y="317" type="curve" smooth="yes"/>
      <point x="54" y="316"/>
      <point x="46" y="316"/>
      <point x="43" y="316" type="curve"/>
      <point x="43" y="199" type="line"/>
      <point x="46" y="199"/>
      <point x="55" y="200"/>
      <point x="65" y="199" type="curve" smooth="yes"/>
      <point x="123" y="194"/>
      <point x="151" y="145"/>
      <point x="151" y="94" type="curve" smooth="yes"/>
      <point x="151" y="55"/>
      <point x="135" y="15"/>
      <point x="135" y="-31" type="curve" smooth="yes"/>
      <point x="135" y="-131"/>
      <point x="199" y="-200"/>
      <point x="283" y="-200" type="curve" smooth="yes"/>
      <point x="302" y="-200"/>
      <point x="322" y="-196"/>
      <point x="342" y="-189" type="curve"/>
      <point x="342" y="-190"/>
      <point x="342" y="-76"/>
      <point x="342" y="-76" type="curve"/>
      <point x="332" y="-82"/>
      <point x="320" y="-85"/>
      <point x="310" y="-85" type="curve" smooth="yes"/>
      <point x="277" y="-85"/>
      <point x="255" y="-59"/>
      <point x="255" y="-23" type="curve" smooth="yes"/>
      <point x="255" y="15"/>
      <point x="270" y="59"/>
      <point x="270" y="108" type="curve" smooth="yes"/>
      <point x="270" y="188"/>
      <point x="220" y="248"/>
    </contour>
  </outline>
</glyph>
<glyph name="bar" format="1">
  <advance width="260"/>
  <unicode hex="007C"/>
  <outline>
    <contour>
      <point x="73" y="-194" type="line"/>
      <point x="187" y="-194" type="line"/>
      <point x="187" y="695" type="line"/>
      <point x="73" y="695" type="line"/>
    </contour>
  </outline>
</glyph>
<glyph name="braceright" format="1">
  <advance width="363"/>
  <unicode hex="007D"/>
  <outline>
    <contour>
      <point x="211" y="258" type="curve"/>
      <point x="143" y="248"/>
      <point x="93" y="188"/>
      <point x="93" y="108" type="curve" smooth="yes"/>
      <point x="93" y="59"/>
      <point x="108" y="15"/>
      <point x="108" y="-23" type="curve" smooth="yes"/>
      <point x="108" y="-59"/>
      <point x="85" y="-85"/>
      <point x="52" y="-85" type="curve" smooth="yes"/>
      <point x="42" y="-85"/>
      <point x="31" y="-82"/>
      <point x="21" y="-76" type="curve"/>
      <point x="21" y="-76"/>
      <point x="21" y="-190"/>
      <point x="21" y="-189" type="curve"/>
      <point x="41" y="-196"/>
      <point x="60" y="-200"/>
      <point x="79" y="-200" type="curve" smooth="yes"/>
      <point x="164" y="-200"/>
      <point x="227" y="-131"/>
      <point x="227" y="-31" type="curve" smooth="yes"/>
      <point x="227" y="15"/>
      <point x="212" y="55"/>
      <point x="212" y="94" type="curve" smooth="yes"/>
      <point x="212" y="145"/>
      <point x="240" y="194"/>
      <point x="298" y="199" type="curve" smooth="yes"/>
      <point x="308" y="200"/>
      <point x="317" y="199"/>
      <point x="320" y="199" type="curve"/>
      <point x="320" y="316" type="line"/>
      <point x="317" y="316"/>
      <point x="308" y="316"/>
      <point x="298" y="317" type="curve" smooth="yes"/>
      <point x="241" y="320"/>
      <point x="212" y="370"/>
      <point x="212" y="421" type="curve" smooth="yes"/>
      <point x="212" y="459"/>
      <point x="227" y="500"/>
      <point x="227" y="546" type="curve" smooth="yes"/>
      <point x="227" y="646"/>
      <point x="164" y="714"/>
      <point x="79" y="714" type="curve" smooth="yes"/>
      <point x="60" y="714"/>
      <point x="41" y="711"/>
      <point x="21" y="704" type="curve"/>
      <point x="21" y="704"/>
      <point x="21" y="591"/>
      <point x="21" y="591" type="curve"/>
      <point x="31" y="597"/>
      <point x="42" y="600"/>
      <point x="52" y="600" type="curve" smooth="yes"/>
      <point x="85" y="600"/>
      <point x="108" y="573"/>
      <point x="108" y="537" type="curve" smooth="yes"/>
      <point x="108" y="499"/>
      <point x="93" y="456"/>
      <point x="93" y="406" type="curve" smooth="yes"/>
      <point x="93" y="326"/>
      <point x="143" y="268"/>
    </contour>
  </outline>
</glyph>
<glyph name="asciitilde" format="1">
  <advance width="633"/>
  <unicode hex="007E"/>
  <outline>
    <contour>
      <point x="517" y="359" type="line"/>
      <point x="490" y="324"/>
      <point x="463" y="300"/>
      <point x="418" y="300" type="curve" smooth="yes"/>
      <point x="353" y="300"/>
      <point x="308" y="358"/>
      <point x="197" y="358" type="curve" smooth="yes"/>
      <point x="128" y="358"/>
      <point x="68" y="306"/>
      <point x="31" y="254" type="curve"/>
      <point x="114" y="187" type="line"/>
      <point x="146" y="228"/>
      <point x="175" y="249"/>
      <point x="222" y="249" type="curve" smooth="yes"/>
      <point x="292" y="249"/>
      <point x="340" y="191"/>
      <point x="440" y="191" type="curve" smooth="yes"/>
      <point x="517" y="191"/>
      <point x="568" y="243"/>
      <point x="601" y="293" type="curve"/>
    </contour>
  </outline>
</glyph>
<glyph name="exclamdown" format="1">
  <advance width="275"/>
  <unicode hex="00A1"/>
  <outline>
    <contour>
      <point x="80" y="285" type="line"/>
      <point x="195" y="285" type="line"/>
      <point x="195" y="-165" type="line"/>
      <point x="80" y="-165" type="line"/>
    </contour>
    <contour>
      <point x="57" y="438" type="curve" smooth="yes"/>
      <point x="57" y="483"/>
      <point x="91" y="517"/>
      <point x="136" y="517" type="curve" smooth="yes"/>
      <point x="180" y="517"/>
      <point x="215" y="483"/>
      <point x="215" y="438" type="curve" smooth="yes"/>
      <point x="215" y="394"/>
      <point x="180" y="359"/>
      <point x="136" y="359" type="curve" smooth="yes"/>
      <point x="91" y="359"/>
      <point x="57" y="394"/>
    </contour>
  </outline>
</glyph>
<glyph name="cent" format="1">
  <advance width="468"/>
  <unicode hex="00A2"/>
  <outline>
    <contour>
      <point x="159" y="252" type="curve" smooth="yes"/>
      <point x="160" y="350"/>
      <point x="226" y="412"/>
      <point x="319" y="412" type="curve" smooth="yes"/>
      <point x="356" y="412"/>
      <point x="395" y="402"/>
      <point x="428" y="382" type="curve"/>
      <point x="428" y="486" type="line"/>
      <point x="386" y="507"/>
      <point x="344" y="514"/>
      <point x="307" y="514" type="curve" smooth="yes"/>
      <point x="136" y="514"/>
      <point x="37" y="394"/>
      <point x="36" y="252" type="curve" smooth="yes"/>
      <point x="36" y="103"/>
      <point x="143" y="-8"/>
      <point x="301" y="-8" type="curve" smooth="yes"/>
      <point x="346" y="-8"/>
      <point x="391" y="1"/>
      <point x="428" y="20" type="curve"/>
      <point x="428" y="124" type="line"/>
      <point x="394" y="104"/>
      <point x="354" y="93"/>
      <point x="317" y="93" type="curve" smooth="yes"/>
      <point x="221" y="93"/>
      <point x="162" y="158"/>
    </contour>
    <contour>
      <point x="349" y="436" type="line"/>
      <point x="349" y="618" type="line"/>
      <point x="248" y="618" type="line"/>
      <point x="248" y="436" type="line"/>
    </contour>
    <contour>
      <point x="248" y="79" type="line"/>
      <point x="248" y="-111" type="line"/>
      <point x="349" y="-111" type="line"/>
      <point x="349" y="79" type="line"/>
    </contour>
  </outline>
</glyph>
<glyph name="sterling" format="1">
  <advance width="533"/>
  <unicode hex="00A3"/>
  <outline>
    <contour>
      <point x="51" y="100" type="line"/>
      <point x="117" y="133"/>
      <point x="134" y="180"/>
      <point x="134" y="250" type="curve"/>
      <point x="134" y="309"/>
      <point x="117" y="377"/>
      <point x="117" y="431" type="curve"/>
      <point x="117" y="574"/>
      <point x="192" y="660"/>
      <point x="340" y="660" type="curve" smooth="yes"/>
      <point x="391" y="660"/>
      <point x="435" y="648"/>
      <point x="466" y="630" type="curve"/>
      <point x="466" y="515" type="line"/>
      <point x="435" y="535"/>
      <point x="400" y="546"/>
      <point x="363" y="546" type="curve" smooth="yes"/>
      <point x="288" y="546"/>
      <point x="248" y="510"/>
      <point x="248" y="429" type="curve"/>
      <point x="248" y="372"/>
      <point x="263" y="305"/>
      <point x="263" y="250" type="curve"/>
      <point x="263" y="176"/>
      <point x="241" y="132"/>
      <point x="195" y="103" type="curve"/>
      <point x="498" y="103" type="line"/>
      <point x="498" y="0" type="line"/>
      <point x="51" y="0" type="line"/>
    </contour>
    <contour>
      <point x="52" y="366" type="line"/>
      <point x="424" y="366" type="line"/>
      <point x="424" y="277" type="line"/>
      <point x="52" y="277" type="line"/>
    </contour>
  </outline>
</glyph>
<glyph name="currency" format="1">
  <advance width="561"/>
  <unicode hex="00A4"/>
  <outline>
    <contour>
      <point x="57" y="310" type="curve" smooth="yes"/>
      <point x="57" y="267"/>
      <point x="69" y="226"/>
      <point x="89" y="193" type="curve"/>
      <point x="30" y="136" type="line"/>
      <point x="102" y="66" type="line"/>
      <point x="161" y="124" type="line"/>
      <point x="195" y="104"/>
      <point x="235" y="93"/>
      <point x="279" y="93" type="curve" smooth="yes"/>
      <point x="324" y="93"/>
      <point x="364" y="104"/>
      <point x="398" y="124" type="curve"/>
      <point x="458" y="66" type="line"/>
      <point x="530" y="136" type="line"/>
      <point x="470" y="194" type="line"/>
      <point x="491" y="227"/>
      <point x="504" y="269"/>
      <point x="504" y="313" type="curve" smooth="yes"/>
      <point x="504" y="356"/>
      <point x="492" y="396"/>
      <point x="472" y="428" type="curve"/>
      <point x="530" y="486" type="line"/>
      <point x="458" y="555" type="line"/>
      <point x="400" y="499" type="line"/>
      <point x="367" y="518"/>
      <point x="326" y="530"/>
      <point x="282" y="530" type="curve" smooth="yes"/>
      <point x="236" y="530"/>
      <point x="195" y="518"/>
      <point x="161" y="497" type="curve"/>
      <point x="102" y="555" type="line"/>
      <point x="30" y="486" type="line"/>
      <point x="89" y="427" type="line"/>
      <point x="69" y="395"/>
      <point x="57" y="353"/>
    </contour>
    <contour>
      <point x="158" y="312" type="curve" smooth="yes"/>
      <point x="158" y="379"/>
      <point x="209" y="435"/>
      <point x="281" y="435" type="curve" smooth="yes"/>
      <point x="353" y="435"/>
      <point x="403" y="379"/>
      <point x="403" y="311" type="curve" smooth="yes"/>
      <point x="403" y="244"/>
      <point x="353" y="188"/>
      <point x="281" y="188" type="curve" smooth="yes"/>
      <point x="209" y="188"/>
      <point x="158" y="244"/>
    </contour>
  </outline>
</glyph>
<glyph name="yen" format="1">
  <advance width="616"/>
  <unicode hex="00A5"/>
  <outline>
    <contour>
      <point x="274" y="283" type="line"/>
      <point x="68" y="283" type="line"/>
      <point x="68" y="361" type="line"/>
      <point x="274" y="361" type="line"/>
    </contour>
    <contour>
      <point x="68" y="210" type="line"/>
      <point x="546" y="210" type="line"/>
      <point x="546" y="132" type="line"/>
      <point x="68" y="132" type="line"/>
    </contour>
    <contour>
      <point x="253" y="234" type="line"/>
      <point x="18" y="655" type="line"/>
      <point x="165" y="655" type="line"/>
      <point x="305" y="380" type="line"/>
      <point x="451" y="655" type="line"/>
      <point x="597" y="655" type="line"/>
      <point x="359" y="234" type="line"/>
    </contour>
    <contour>
      <point x="243" y="259" type="line"/>
      <point x="369" y="259" type="line"/>
      <point x="369" y="0" type="line"/>
      <point x="243" y="0" type="line"/>
    </contour>
    <contour>
      <point x="546" y="283" type="line"/>
      <point x="337" y="283" type="line"/>
      <point x="337" y="361" type="line"/>
      <point x="546" y="361" type="line"/>
    </contour>
  </outline>
</glyph>
<glyph name="brokenbar" format="1">
  <advance width="260"/>
  <unicode hex="00A6"/>
  <outline>
    <contour>
      <point x="187" y="368" type="line"/>
      <point x="187" y="703" type="line"/>
      <point x="73" y="703" type="line"/>
      <point x="73" y="368" type="line"/>
    </contour>
    <contour>
      <point x="187" y="-140" type="line"/>
      <point x="187" y="195" type="line"/>
      <point x="73" y="195" type="line"/>
      <point x="73" y="-140" type="line"/>
    </contour>
  </outline>
</glyph>
<glyph name="section" format="1">
  <advance width="566"/>
  <unicode hex="00A7"/>
  <outline>
    <contour>
      <point x="439" y="62" type="line"/>
      <point x="476" y="89"/>
      <point x="503" y="144"/>
      <point x="503" y="199" type="curve" smooth="yes"/>
      <point x="503" y="305"/>
      <point x="437" y="349"/>
      <point x="355" y="390" type="curve" smooth="yes"/>
      <point x="253" y="442"/>
      <point x="198" y="455"/>
      <point x="198" y="504" type="curve" smooth="yes"/>
      <point x="198" y="544"/>
      <point x="231" y="570"/>
      <point x="296" y="570" type="curve" smooth="yes"/>
      <point x="351" y="570"/>
      <point x="411" y="552"/>
      <point x="455" y="525" type="curve"/>
      <point x="455" y="647" type="line"/>
      <point x="406" y="670"/>
      <point x="345" y="680"/>
      <point x="292" y="680" type="curve" smooth="yes"/>
      <point x="155" y="680"/>
      <point x="66" y="613"/>
      <point x="66" y="502" type="curve" smooth="yes"/>
      <point x="66" y="402"/>
      <point x="153" y="366"/>
      <point x="237" y="324" type="curve" smooth="yes"/>
      <point x="323" y="281"/>
      <point x="382" y="261"/>
      <point x="382" y="201" type="curve" smooth="yes"/>
      <point x="382" y="175"/>
      <point x="371" y="151"/>
      <point x="346" y="130" type="curve"/>
    </contour>
    <contour>
      <point x="107" y="420" type="line"/>
      <point x="76" y="388"/>
      <point x="55" y="346"/>
      <point x="55" y="296" type="curve" smooth="yes"/>
      <point x="55" y="197"/>
      <point x="119" y="144"/>
      <point x="202" y="107" type="curve" smooth="yes"/>
      <point x="338" y="47"/>
      <point x="366" y="30"/>
      <point x="366" y="-14" type="curve" smooth="yes"/>
      <point x="366" y="-59"/>
      <point x="329" y="-83"/>
      <point x="264" y="-83" type="curve" smooth="yes"/>
      <point x="200" y="-83"/>
      <point x="134" y="-64"/>
      <point x="76" y="-21" type="curve"/>
      <point x="76" y="-150" type="line"/>
      <point x="125" y="-179"/>
      <point x="197" y="-193"/>
      <point x="265" y="-193" type="curve" smooth="yes"/>
      <point x="403" y="-193"/>
      <point x="496" y="-128"/>
      <point x="496" y="-13" type="curve" smooth="yes"/>
      <point x="496" y="98"/>
      <point x="389" y="147"/>
      <point x="305" y="183" type="curve" smooth="yes"/>
      <point x="222" y="219"/>
      <point x="177" y="244"/>
      <point x="177" y="294" type="curve" smooth="yes"/>
      <point x="177" y="314"/>
      <point x="186" y="341"/>
      <point x="208" y="361" type="curve"/>
    </contour>
  </outline>
</glyph>
<glyph name="dieresis" format="1">
  <advance width="470"/>
  <unicode hex="00A8"/>
  <outline>
    <contour>
      <point x="43" y="715" type="curve" smooth="yes"/>
      <point x="43" y="675"/>
      <point x="73" y="645"/>
      <point x="114" y="645" type="curve" smooth="yes"/>
      <point x="154" y="645"/>
      <point x="184" y="675"/>
      <point x="184" y="715" type="curve" smooth="yes"/>
      <point x="184" y="754"/>
      <point x="154" y="784"/>
      <point x="114" y="784" type="curve" smooth="yes"/>
      <point x="73" y="784"/>
      <point x="43" y="754"/>
    </contour>
    <contour>
      <point x="285" y="715" type="curve" smooth="yes"/>
      <point x="285" y="675"/>
      <point x="316" y="645"/>
      <point x="356" y="645" type="curve" smooth="yes"/>
      <point x="397" y="645"/>
      <point x="427" y="675"/>
      <point x="427" y="715" type="curve" smooth="yes"/>
      <point x="427" y="754"/>
      <point x="397" y="784"/>
      <point x="356" y="784" type="curve" smooth="yes"/>
      <point x="316" y="784"/>
      <point x="285" y="754"/>
    </contour>
  </outline>
</glyph>
<glyph name="copyright" format="1">
  <advance width="767"/>
  <unicode hex="00A9"/>
  <outline>
    <contour>
      <point x="38" y="337" type="curve" smooth="yes"/>
      <point x="38" y="147"/>
      <point x="194" y="-8"/>
      <point x="384" y="-8" type="curve" smooth="yes"/>
      <point x="573" y="-8"/>
      <point x="729" y="147"/>
      <point x="729" y="337" type="curve" smooth="yes"/>
      <point x="729" y="527"/>
      <point x="573" y="683"/>
      <point x="384" y="683" type="curve" smooth="yes"/>
      <point x="194" y="683"/>
      <point x="38" y="527"/>
    </contour>
    <contour>
      <point x="124" y="337" type="curve" smooth="yes"/>
      <point x="124" y="484"/>
      <point x="236" y="597"/>
      <point x="384" y="597" type="curve" smooth="yes"/>
      <point x="531" y="597"/>
      <point x="644" y="484"/>
      <point x="644" y="337" type="curve" smooth="yes"/>
      <point x="644" y="188"/>
      <point x="531" y="76"/>
      <point x="384" y="76" type="curve" smooth="yes"/>
      <point x="236" y="76"/>
      <point x="124" y="188"/>
    </contour>
    <contour>
      <point x="318" y="336" type="curve" smooth="yes"/>
      <point x="319" y="398"/>
      <point x="363" y="431"/>
      <point x="411" y="431" type="curve" smooth="yes"/>
      <point x="437" y="431"/>
      <point x="467" y="424"/>
      <point x="490" y="409" type="curve"/>
      <point x="490" y="492" type="line"/>
      <point x="460" y="508"/>
      <point x="428" y="513"/>
      <point x="403" y="513" type="curve" smooth="yes"/>
      <point x="290" y="513"/>
      <point x="223" y="435"/>
      <point x="222" y="336" type="curve" smooth="yes"/>
      <point x="222" y="234"/>
      <point x="299" y="162"/>
      <point x="399" y="162" type="curve" smooth="yes"/>
      <point x="431" y="162"/>
      <point x="466" y="169"/>
      <point x="490" y="183" type="curve"/>
      <point x="490" y="267" type="line"/>
      <point x="467" y="251"/>
      <point x="437" y="242"/>
      <point x="410" y="242" type="curve" smooth="yes"/>
      <point x="359" y="242"/>
      <point x="321" y="279"/>
    </contour>
  </outline>
</glyph>
<glyph name="ordfeminine" format="1">
  <advance width="381"/>
  <unicode hex="00AA"/>
  <outline>
    <contour>
      <point x="248" y="533" type="line"/>
      <point x="248" y="494"/>
      <point x="219" y="464"/>
      <point x="176" y="464" type="curve" smooth="yes"/>
      <point x="133" y="464"/>
      <point x="113" y="485"/>
      <point x="113" y="517" type="curve" smooth="yes"/>
      <point x="113" y="553"/>
      <point x="143" y="576"/>
      <point x="198" y="576" type="curve" smooth="yes"/>
      <point x="271" y="576" type="line"/>
      <point x="271" y="644" type="line"/>
      <point x="185" y="644" type="line" smooth="yes"/>
      <point x="68" y="644"/>
      <point x="7" y="593"/>
      <point x="7" y="513" type="curve" smooth="yes"/>
      <point x="7" y="441"/>
      <point x="56" y="389"/>
      <point x="140" y="389" type="curve" smooth="yes"/>
      <point x="199" y="389"/>
      <point x="234" y="415"/>
      <point x="252" y="445" type="curve"/>
      <point x="252" y="392" type="line"/>
      <point x="351" y="392" type="line"/>
      <point x="351" y="666" type="line" smooth="yes"/>
      <point x="351" y="774"/>
      <point x="297" y="827"/>
      <point x="178" y="827" type="curve" smooth="yes"/>
      <point x="119" y="827"/>
      <point x="66" y="813"/>
      <point x="39" y="798" type="curve"/>
      <point x="39" y="705" type="line"/>
      <point x="71" y="726"/>
      <point x="119" y="742"/>
      <point x="165" y="742" type="curve" smooth="yes"/>
      <point x="228" y="742"/>
      <point x="248" y="714"/>
      <point x="248" y="669" type="curve" smooth="yes"/>
    </contour>
  </outline>
</glyph>
<glyph name="guillemotleft" format="1">
  <advance width="549"/>
  <unicode hex="00AB"/>
  <outline>
    <contour>
      <point x="26" y="253" type="line"/>
      <point x="178" y="415" type="line"/>
      <point x="305" y="415" type="line"/>
      <point x="159" y="253" type="line"/>
    </contour>
    <contour>
      <point x="159" y="253" type="line"/>
      <point x="305" y="91" type="line"/>
      <point x="178" y="91" type="line"/>
      <point x="26" y="253" type="line"/>
    </contour>
    <contour>
      <point x="233" y="253" type="line"/>
      <point x="385" y="415" type="line"/>
      <point x="512" y="415" type="line"/>
      <point x="366" y="253" type="line"/>
    </contour>
    <contour>
      <point x="366" y="253" type="line"/>
      <point x="512" y="91" type="line"/>
      <point x="385" y="91" type="line"/>
      <point x="233" y="253" type="line"/>
    </contour>
  </outline>
</glyph>
<glyph name="logicalnot" format="1">
  <advance width="583"/>
  <unicode hex="00AC"/>
  <outline>
    <contour>
      <point x="541" y="145" type="line"/>
      <point x="541" y="416" type="line"/>
      <point x="38" y="416" type="line"/>
      <point x="38" y="317" type="line"/>
      <point x="438" y="317" type="line"/>
      <point x="438" y="145" type="line"/>
    </contour>
  </outline>
</glyph>
<glyph name="registered" format="1">
  <advance width="476"/>
  <unicode hex="00AE"/>
  <outline>
    <contour>
      <point x="214" y="568" type="line"/>
      <point x="282" y="453" type="line"/>
      <point x="343" y="453" type="line"/>
      <point x="271" y="568" type="line"/>
    </contour>
    <contour>
      <point x="270" y="609" type="curve" smooth="yes"/>
      <point x="270" y="591"/>
      <point x="261" y="577"/>
      <point x="242" y="577" type="curve" smooth="yes"/>
      <point x="168" y="577" type="line"/>
      <point x="168" y="536" type="line"/>
      <point x="238" y="536" type="line" smooth="yes"/>
      <point x="294" y="536"/>
      <point x="322" y="564"/>
      <point x="322" y="609" type="curve" smooth="yes"/>
      <point x="322" y="653"/>
      <point x="296" y="681"/>
      <point x="235" y="681" type="curve" smooth="yes"/>
      <point x="168" y="681" type="line"/>
      <point x="168" y="639" type="line"/>
      <point x="238" y="639" type="line" smooth="yes"/>
      <point x="259" y="639"/>
      <point x="270" y="631"/>
    </contour>
    <contour>
      <point x="168" y="453" type="line"/>
      <point x="218" y="453" type="line"/>
      <point x="218" y="681" type="line"/>
      <point x="168" y="681" type="line"/>
    </contour>
    <contour>
      <point x="10" y="559" type="curve" smooth="yes"/>
      <point x="10" y="427"/>
      <point x="106" y="333"/>
      <point x="238" y="333" type="curve" smooth="yes"/>
      <point x="369" y="333"/>
      <point x="466" y="427"/>
      <point x="466" y="559" type="curve" smooth="yes"/>
      <point x="466" y="692"/>
      <point x="369" y="787"/>
      <point x="238" y="787" type="curve" smooth="yes"/>
      <point x="106" y="787"/>
      <point x="10" y="692"/>
    </contour>
    <contour>
      <point x="67" y="559" type="curve" smooth="yes"/>
      <point x="67" y="662"/>
      <point x="134" y="733"/>
      <point x="239" y="733" type="curve" smooth="yes"/>
      <point x="343" y="733"/>
      <point x="410" y="662"/>
      <point x="410" y="559" type="curve" smooth="yes"/>
      <point x="410" y="457"/>
      <point x="343" y="387"/>
      <point x="239" y="387" type="curve" smooth="yes"/>
      <point x="134" y="387"/>
      <point x="67" y="457"/>
    </contour>
  </outline>
</glyph>
<glyph name="macron" format="1">
  <advance width="470"/>
  <unicode hex="00AF"/>
  <outline>
    <contour>
      <point x="399" y="667" type="line"/>
      <point x="399" y="750" type="line"/>
      <point x="71" y="750" type="line"/>
      <point x="71" y="667" type="line"/>
    </contour>
  </outline>
</glyph>
<glyph name="degree" format="1">
  <advance width="408"/>
  <unicode hex="00B0"/>
  <outline>
    <contour>
      <point x="30" y="508" type="curve" smooth="yes"/>
      <point x="30" y="411"/>
      <point x="106" y="336"/>
      <point x="203" y="336" type="curve" smooth="yes"/>
      <point x="300" y="336"/>
      <point x="378" y="412"/>
      <point x="378" y="509" type="curve" smooth="yes"/>
      <point x="378" y="607"/>
      <point x="302" y="682"/>
      <point x="204" y="682" type="curve" smooth="yes"/>
      <point x="107" y="682"/>
      <point x="30" y="605"/>
    </contour>
    <contour>
      <point x="117" y="509" type="curve" smooth="yes"/>
      <point x="117" y="557"/>
      <point x="155" y="596"/>
      <point x="203" y="596" type="curve" smooth="yes"/>
      <point x="251" y="596"/>
      <point x="290" y="557"/>
      <point x="290" y="509" type="curve" smooth="yes"/>
      <point x="290" y="461"/>
      <point x="252" y="421"/>
      <point x="204" y="421" type="curve" smooth="yes"/>
      <point x="156" y="421"/>
      <point x="117" y="461"/>
    </contour>
  </outline>
</glyph>
<glyph name="plusminus" format="1">
  <advance width="576"/>
  <unicode hex="00B1"/>
  <outline>
    <contour>
      <point x="231" y="177" type="line"/>
      <point x="342" y="177" type="line"/>
      <point x="342" y="579" type="line"/>
      <point x="231" y="579" type="line"/>
    </contour>
    <contour>
      <point x="50" y="328" type="line"/>
      <point x="526" y="328" type="line"/>
      <point x="526" y="429" type="line"/>
      <point x="50" y="429" type="line"/>
    </contour>
    <contour>
      <point x="50" y="29" type="line"/>
      <point x="526" y="29" type="line"/>
      <point x="526" y="130" type="line"/>
      <point x="50" y="130" type="line"/>
    </contour>
  </outline>
</glyph>
<glyph name="twosuperior" format="1">
  <advance width="365"/>
  <unicode hex="00B2"/>
  <outline>
    <contour>
      <point x="40" y="392" type="line"/>
      <point x="329" y="392" type="line"/>
      <point x="329" y="469" type="line"/>
      <point x="156" y="469" type="line"/>
      <point x="245" y="530"/>
      <point x="314" y="608"/>
      <point x="314" y="693" type="curve" smooth="yes"/>
      <point x="314" y="780"/>
      <point x="249" y="828"/>
      <point x="165" y="828" type="curve" smooth="yes"/>
      <point x="122" y="828"/>
      <point x="80" y="813"/>
      <point x="51" y="795" type="curve"/>
      <point x="51" y="704" type="line"/>
      <point x="82" y="727"/>
      <point x="121" y="743"/>
      <point x="153" y="743" type="curve" smooth="yes"/>
      <point x="195" y="743"/>
      <point x="220" y="722"/>
      <point x="220" y="682" type="curve" smooth="yes"/>
      <point x="220" y="612"/>
      <point x="129" y="524"/>
      <point x="40" y="458" type="curve"/>
    </contour>
  </outline>
</glyph>
<glyph name="threesuperior" format="1">
  <advance width="343"/>
  <unicode hex="00B3"/>
  <outline>
    <contour>
      <point x="125" y="647" type="line"/>
      <point x="170" y="647"/>
      <point x="205" y="664"/>
      <point x="205" y="699" type="curve" smooth="yes"/>
      <point x="205" y="733"/>
      <point x="181" y="748"/>
      <point x="145" y="748" type="curve" smooth="yes"/>
      <point x="115" y="748"/>
      <point x="78" y="735"/>
      <point x="50" y="715" type="curve"/>
      <point x="50" y="801" type="line"/>
      <point x="77" y="817"/>
      <point x="115" y="828"/>
      <point x="151" y="828" type="curve" smooth="yes"/>
      <point x="246" y="828"/>
      <point x="298" y="776"/>
      <point x="298" y="709" type="curve" smooth="yes"/>
      <point x="298" y="656"/>
      <point x="267" y="621"/>
      <point x="218" y="610" type="curve"/>
      <point x="266" y="606"/>
      <point x="308" y="570"/>
      <point x="308" y="509" type="curve" smooth="yes"/>
      <point x="308" y="438"/>
      <point x="253" y="388"/>
      <point x="159" y="388" type="curve" smooth="yes"/>
      <point x="121" y="388"/>
      <point x="67" y="397"/>
      <point x="35" y="414" type="curve"/>
      <point x="35" y="495" type="line"/>
      <point x="70" y="477"/>
      <point x="107" y="466"/>
      <point x="147" y="466" type="curve" smooth="yes"/>
      <point x="190" y="466"/>
      <point x="215" y="488"/>
      <point x="215" y="519" type="curve" smooth="yes"/>
      <point x="215" y="549"/>
      <point x="192" y="571"/>
      <point x="125" y="571" type="curve" smooth="yes"/>
      <point x="107" y="571" type="line"/>
      <point x="107" y="647" type="line"/>
    </contour>
  </outline>
</glyph>
<glyph name="acute" format="1">
  <advance width="470"/>
  <unicode hex="00B4"/>
  <outline>
    <contour>
      <point x="127" y="629" type="line"/>
      <point x="228" y="629" type="line"/>
      <point x="344" y="798" type="line"/>
      <point x="218" y="798" type="line"/>
    </contour>
  </outline>
</glyph>
<glyph name="mu.math" format="1">
  <advance width="570"/>
  <unicode hex="00B5"/>
  <outline>
    <contour>
      <point x="505" y="507" type="line"/>
      <point x="385" y="507" type="line"/>
      <point x="385" y="0" type="line"/>
      <point x="505" y="0" type="line"/>
    </contour>
    <contour>
      <point x="185" y="442" type="line"/>
      <point x="106" y="442" type="line"/>
      <point x="106" y="164" type="line" smooth="yes"/>
      <point x="106" y="60"/>
      <point x="178" y="-5"/>
      <point x="270" y="-5" type="curve" smooth="yes"/>
      <point x="363" y="-5"/>
      <point x="412" y="75"/>
      <point x="402" y="186" type="curve"/>
      <point x="385" y="235" type="line"/>
      <point x="385" y="137"/>
      <point x="349" y="94"/>
      <point x="286" y="94" type="curve" smooth="yes"/>
      <point x="232" y="94"/>
      <point x="185" y="127"/>
      <point x="185" y="192" type="curve" smooth="yes"/>
    </contour>
    <contour>
      <point x="185" y="507" type="line"/>
      <point x="65" y="507" type="line"/>
      <point x="65" y="-180" type="line"/>
      <point x="185" y="-180" type="line"/>
    </contour>
  </outline>
</glyph>
<glyph name="paragraph" format="1">
  <advance width="574"/>
  <unicode hex="00B6"/>
  <outline>
    <contour>
      <point x="310" y="674" type="line"/>
      <point x="227" y="674" type="line"/>
      <point x="77" y="674"/>
      <point x="16" y="586"/>
      <point x="16" y="500" type="curve" smooth="yes"/>
      <point x="16" y="410"/>
      <point x="81" y="326"/>
      <point x="214" y="326" type="curve"/>
      <point x="214" y="-148" type="line"/>
      <point x="310" y="-148" type="line"/>
    </contour>
    <contour>
      <point x="410" y="-148" type="line"/>
      <point x="506" y="-148" type="line"/>
      <point x="506" y="674" type="line"/>
      <point x="411" y="674" type="line"/>
    </contour>
  </outline>
</glyph>
<glyph name="cedilla" format="1">
  <advance width="470"/>
  <unicode hex="00B8"/>
  <outline>
    <contour>
      <point x="319" y="-124" type="curve" smooth="yes"/>
      <point x="319" y="-99"/>
      <point x="313" y="-69"/>
      <point x="301" y="-51" type="curve"/>
      <point x="204" y="-51" type="line"/>
      <point x="216" y="-69"/>
      <point x="229" y="-90"/>
      <point x="229" y="-117" type="curve" smooth="yes"/>
      <point x="229" y="-157"/>
      <point x="202" y="-182"/>
      <point x="150" y="-184" type="curve"/>
      <point x="150" y="-262" type="line"/>
      <point x="266" y="-261"/>
      <point x="319" y="-198"/>
    </contour>
  </outline>
</glyph>
<glyph name="onesuperior" format="1">
  <advance width="268"/>
  <unicode hex="00B9"/>
  <outline>
    <contour>
      <point x="10" y="666" type="line"/>
      <point x="122" y="727" type="line"/>
      <point x="122" y="392" type="line"/>
      <point x="210" y="392" type="line"/>
      <point x="210" y="824" type="line"/>
      <point x="138" y="824" type="line"/>
      <point x="10" y="751" type="line"/>
    </contour>
  </outline>
</glyph>
<glyph name="ordmasculine" format="1">
  <advance width="417"/>
  <unicode hex="00BA"/>
  <outline>
    <contour>
      <point x="209" y="386" type="curve" smooth="yes"/>
      <point x="341" y="386"/>
      <point x="413" y="484"/>
      <point x="413" y="609" type="curve" smooth="yes"/>
      <point x="413" y="731"/>
      <point x="344" y="829"/>
      <point x="209" y="829" type="curve" smooth="yes"/>
      <point x="82" y="829"/>
      <point x="4" y="731"/>
      <point x="4" y="603" type="curve" smooth="yes"/>
      <point x="4" y="482"/>
      <point x="74" y="386"/>
    </contour>
    <contour>
      <point x="207" y="747" type="curve" smooth="yes"/>
      <point x="282" y="747"/>
      <point x="306" y="681"/>
      <point x="306" y="605" type="curve" smooth="yes"/>
      <point x="306" y="530"/>
      <point x="277" y="468"/>
      <point x="209" y="468" type="curve" smooth="yes"/>
      <point x="143" y="468"/>
      <point x="110" y="531"/>
      <point x="110" y="607" type="curve" smooth="yes"/>
      <point x="110" y="682"/>
      <point x="141" y="747"/>
    </contour>
  </outline>
</glyph>
<glyph name="guillemotright" format="1">
  <advance width="550"/>
  <unicode hex="00BB"/>
  <outline>
    <contour>
      <point x="522" y="253" type="line"/>
      <point x="371" y="415" type="line"/>
      <point x="244" y="415" type="line"/>
      <point x="390" y="253" type="line"/>
    </contour>
    <contour>
      <point x="390" y="253" type="line"/>
      <point x="244" y="91" type="line"/>
      <point x="371" y="91" type="line"/>
      <point x="522" y="253" type="line"/>
    </contour>
    <contour>
      <point x="315" y="253" type="line"/>
      <point x="164" y="415" type="line"/>
      <point x="37" y="415" type="line"/>
      <point x="183" y="253" type="line"/>
    </contour>
    <contour>
      <point x="183" y="253" type="line"/>
      <point x="37" y="91" type="line"/>
      <point x="164" y="91" type="line"/>
      <point x="315" y="253" type="line"/>
    </contour>
  </outline>
</glyph>
<glyph name="onequarter" format="1">
  <advance width="830"/>
  <unicode hex="00BC"/>
  <outline>
    <contour>
      <point x="666" y="430" type="line"/>
      <point x="666" y="0" type="line"/>
      <point x="752" y="0" type="line"/>
      <point x="752" y="430" type="line"/>
    </contour>
    <contour>
      <point x="471" y="163" type="line"/>
      <point x="471" y="91" type="line"/>
      <point x="808" y="91" type="line"/>
      <point x="808" y="163" type="line"/>
    </contour>
    <contour>
      <point x="616" y="430" type="line"/>
      <point x="471" y="163" type="line"/>
      <point x="560" y="163" type="line"/>
      <point x="700" y="430" type="line"/>
    </contour>
    <contour>
      <point x="31" y="553" type="line"/>
      <point x="143" y="614" type="line"/>
      <point x="143" y="279" type="line"/>
      <point x="231" y="279" type="line"/>
      <point x="231" y="711" type="line"/>
      <point x="159" y="711" type="line"/>
      <point x="31" y="639" type="line"/>
    </contour>
    <contour>
      <point x="131" y="0" type="line"/>
      <point x="226" y="0" type="line"/>
      <point x="662" y="711" type="line"/>
      <point x="568" y="711" type="line"/>
    </contour>
  </outline>
</glyph>
<glyph name="onehalf" format="1">
  <advance width="833"/>
  <unicode hex="00BD"/>
  <outline>
    <contour>
      <point x="519" y="0" type="line"/>
      <point x="808" y="0" type="line"/>
      <point x="808" y="77" type="line"/>
      <point x="636" y="77" type="line"/>
      <point x="725" y="138"/>
      <point x="794" y="216"/>
      <point x="794" y="301" type="curve" smooth="yes"/>
      <point x="794" y="388"/>
      <point x="728" y="436"/>
      <point x="645" y="436" type="curve" smooth="yes"/>
      <point x="601" y="436"/>
      <point x="560" y="421"/>
      <point x="531" y="403" type="curve"/>
      <point x="531" y="312" type="line"/>
      <point x="562" y="335"/>
      <point x="601" y="351"/>
      <point x="633" y="351" type="curve" smooth="yes"/>
      <point x="674" y="351"/>
      <point x="700" y="330"/>
      <point x="700" y="290" type="curve" smooth="yes"/>
      <point x="700" y="220"/>
      <point x="608" y="132"/>
      <point x="519" y="66" type="curve"/>
    </contour>
    <contour>
      <point x="31" y="553" type="line"/>
      <point x="143" y="614" type="line"/>
      <point x="143" y="279" type="line"/>
      <point x="231" y="279" type="line"/>
      <point x="231" y="711" type="line"/>
      <point x="159" y="711" type="line"/>
      <point x="31" y="639" type="line"/>
    </contour>
    <contour>
      <point x="131" y="0" type="line"/>
      <point x="226" y="0" type="line"/>
      <point x="662" y="711" type="line"/>
      <point x="568" y="711" type="line"/>
    </contour>
  </outline>
</glyph>
<glyph name="threequarters" format="1">
  <advance width="886"/>
  <unicode hex="00BE"/>
  <outline>
    <contour>
      <point x="525" y="163" type="line"/>
      <point x="862" y="163" type="line"/>
      <point x="862" y="91" type="line"/>
      <point x="525" y="91" type="line"/>
    </contour>
    <contour>
      <point x="670" y="430" type="line"/>
      <point x="754" y="430" type="line"/>
      <point x="614" y="163" type="line"/>
      <point x="525" y="163" type="line"/>
    </contour>
    <contour>
      <point x="720" y="430" type="line"/>
      <point x="806" y="430" type="line"/>
      <point x="806" y="0" type="line"/>
      <point x="720" y="0" type="line"/>
    </contour>
    <contour>
      <point x="185" y="0" type="line"/>
      <point x="280" y="0" type="line"/>
      <point x="717" y="711" type="line"/>
      <point x="622" y="711" type="line"/>
    </contour>
    <contour>
      <point x="131" y="534" type="line"/>
      <point x="176" y="534"/>
      <point x="211" y="550"/>
      <point x="211" y="585" type="curve" smooth="yes"/>
      <point x="211" y="619"/>
      <point x="187" y="635"/>
      <point x="151" y="635" type="curve" smooth="yes"/>
      <point x="122" y="635"/>
      <point x="85" y="622"/>
      <point x="56" y="601" type="curve"/>
      <point x="56" y="688" type="line"/>
      <point x="84" y="704"/>
      <point x="121" y="714"/>
      <point x="158" y="714" type="curve" smooth="yes"/>
      <point x="253" y="714"/>
      <point x="305" y="662"/>
      <point x="305" y="595" type="curve" smooth="yes"/>
      <point x="305" y="542"/>
      <point x="274" y="507"/>
      <point x="225" y="497" type="curve"/>
      <point x="272" y="492"/>
      <point x="314" y="456"/>
      <point x="314" y="396" type="curve" smooth="yes"/>
      <point x="314" y="325"/>
      <point x="259" y="275"/>
      <point x="166" y="275" type="curve" smooth="yes"/>
      <point x="127" y="275"/>
      <point x="74" y="284"/>
      <point x="42" y="301" type="curve"/>
      <point x="42" y="382" type="line"/>
      <point x="77" y="363"/>
      <point x="114" y="353"/>
      <point x="154" y="353" type="curve" smooth="yes"/>
      <point x="197" y="353"/>
      <point x="222" y="375"/>
      <point x="222" y="406" type="curve" smooth="yes"/>
      <point x="222" y="436"/>
      <point x="199" y="458"/>
      <point x="132" y="458" type="curve" smooth="yes"/>
      <point x="113" y="458" type="line"/>
      <point x="113" y="534" type="line"/>
    </contour>
  </outline>
</glyph>
<glyph name="questiondown" format="1">
  <advance width="456"/>
  <unicode hex="00BF"/>
  <outline>
    <contour>
      <point x="423" y="-24" type="line"/>
      <point x="377" y="-54"/>
      <point x="330" y="-70"/>
      <point x="283" y="-70" type="curve" smooth="yes"/>
      <point x="212" y="-70"/>
      <point x="180" y="-30"/>
      <point x="180" y="23" type="curve" smooth="yes"/>
      <point x="180" y="93"/>
      <point x="234" y="129"/>
      <point x="349" y="129" type="curve"/>
      <point x="347" y="286" type="line"/>
      <point x="235" y="286" type="line"/>
      <point x="233" y="194" type="line"/>
      <point x="167" y="190"/>
      <point x="58" y="137"/>
      <point x="58" y="11" type="curve" smooth="yes"/>
      <point x="58" y="-105"/>
      <point x="143" y="-172"/>
      <point x="267" y="-172" type="curve" smooth="yes"/>
      <point x="330" y="-172"/>
      <point x="384" y="-159"/>
      <point x="423" y="-140" type="curve"/>
    </contour>
    <contour>
      <point x="371" y="439" type="curve" smooth="yes"/>
      <point x="371" y="483"/>
      <point x="337" y="518"/>
      <point x="292" y="518" type="curve" smooth="yes"/>
      <point x="248" y="518"/>
      <point x="213" y="483"/>
      <point x="213" y="439" type="curve" smooth="yes"/>
      <point x="213" y="395"/>
      <point x="248" y="360"/>
      <point x="292" y="360" type="curve" smooth="yes"/>
      <point x="337" y="360"/>
      <point x="371" y="395"/>
    </contour>
  </outline>
</glyph>
<glyph name="AE" format="1">
  <advance width="917"/>
  <unicode hex="00C6"/>
  <outline>
    <contour>
      <point x="14" y="0" type="line"/>
      <point x="147" y="0" type="line"/>
      <point x="298" y="285" type="line" smooth="yes"/>
      <point x="408" y="488"/>
      <point x="476" y="629"/>
      <point x="487" y="674" type="curve"/>
      <point x="361" y="674" type="line"/>
    </contour>
    <contour>
      <point x="205" y="153" type="line"/>
      <point x="515" y="153" type="line"/>
      <point x="515" y="256" type="line"/>
      <point x="205" y="256" type="line"/>
    </contour>
    <contour>
      <point x="502" y="0" type="line"/>
      <point x="861" y="0" type="line"/>
      <point x="861" y="103" type="line"/>
      <point x="502" y="103" type="line"/>
    </contour>
    <contour>
      <point x="463" y="0" type="line"/>
      <point x="586" y="0" type="line"/>
      <point x="586" y="674" type="line"/>
      <point x="463" y="674" type="line"/>
    </contour>
    <contour>
      <point x="502" y="286" type="line"/>
      <point x="827" y="286" type="line"/>
      <point x="827" y="388" type="line"/>
      <point x="502" y="388" type="line"/>
    </contour>
    <contour>
      <point x="502" y="571" type="line"/>
      <point x="857" y="571" type="line"/>
      <point x="857" y="674" type="line"/>
      <point x="502" y="674" type="line"/>
    </contour>
  </outline>
</glyph>
<glyph name="Eth" format="1">
  <advance width="742"/>
  <unicode hex="00D0"/>
  <outline>
    <contour>
      <point x="137" y="0" type="line"/>
      <point x="266" y="0" type="line"/>
      <point x="266" y="674" type="line"/>
      <point x="137" y="674" type="line"/>
    </contour>
    <contour>
      <point x="357" y="0" type="line"/>
      <point x="570" y="0"/>
      <point x="700" y="141"/>
      <point x="700" y="346" type="curve" smooth="yes"/>
      <point x="700" y="533"/>
      <point x="560" y="674"/>
      <point x="357" y="674" type="curve" smooth="yes"/>
      <point x="137" y="674" type="line"/>
      <point x="137" y="568" type="line"/>
      <point x="353" y="568" type="line" smooth="yes"/>
      <point x="491" y="568"/>
      <point x="572" y="472"/>
      <point x="572" y="346" type="curve" smooth="yes"/>
      <point x="572" y="204"/>
      <point x="500" y="105"/>
      <point x="355" y="105" type="curve" smooth="yes"/>
      <point x="137" y="105" type="line"/>
      <point x="137" y="0" type="line"/>
    </contour>
    <contour>
      <point x="418" y="282" type="line"/>
      <point x="418" y="385" type="line"/>
      <point x="64" y="385" type="line"/>
      <point x="64" y="282" type="line"/>
    </contour>
  </outline>
</glyph>
<glyph name="multiply" format="1">
  <advance width="515"/>
  <unicode hex="00D7"/>
  <outline>
    <contour>
      <point x="388" y="133" type="line"/>
      <point x="465" y="209" type="line"/>
      <point x="125" y="548" type="line"/>
      <point x="48" y="471" type="line"/>
    </contour>
    <contour>
      <point x="129" y="134" type="line"/>
      <point x="465" y="469" type="line"/>
      <point x="386" y="547" type="line"/>
      <point x="51" y="212" type="line"/>
    </contour>
  </outline>
</glyph>
<glyph name="Oslash" format="1">
  <advance width="699"/>
  <unicode hex="00D8"/>
  <outline>
    <contour>
      <point x="39" y="339" type="curve" smooth="yes"/>
      <point x="39" y="131"/>
      <point x="164" y="-7"/>
      <point x="358" y="-7" type="curve" smooth="yes"/>
      <point x="553" y="-7"/>
      <point x="676" y="132"/>
      <point x="676" y="339" type="curve" smooth="yes"/>
      <point x="676" y="548"/>
      <point x="554" y="686"/>
      <point x="357" y="686" type="curve" smooth="yes"/>
      <point x="163" y="686"/>
      <point x="39" y="547"/>
    </contour>
    <contour>
      <point x="169" y="339" type="curve" smooth="yes"/>
      <point x="169" y="485"/>
      <point x="241" y="576"/>
      <point x="357" y="576" type="curve" smooth="yes"/>
      <point x="475" y="576"/>
      <point x="546" y="488"/>
      <point x="546" y="339" type="curve" smooth="yes"/>
      <point x="546" y="194"/>
      <point x="475" y="103"/>
      <point x="358" y="103" type="curve" smooth="yes"/>
      <point x="243" y="103"/>
      <point x="169" y="190"/>
    </contour>
    <contour>
      <point x="40" y="-8" type="line"/>
      <point x="163" y="-8" type="line"/>
      <point x="677" y="685" type="line"/>
      <point x="554" y="685" type="line"/>
    </contour>
  </outline>
</glyph>
<glyph name="Thorn" format="1">
  <advance width="553"/>
  <unicode hex="00DE"/>
  <outline>
    <contour>
      <point x="281" y="115" type="line"/>
      <point x="423" y="115"/>
      <point x="529" y="197"/>
      <point x="529" y="338" type="curve" smooth="yes"/>
      <point x="529" y="465"/>
      <point x="435" y="559"/>
      <point x="278" y="559" type="curve" smooth="yes"/>
      <point x="70" y="559" type="line"/>
      <point x="70" y="456" type="line"/>
      <point x="271" y="456" type="line" smooth="yes"/>
      <point x="368" y="456"/>
      <point x="401" y="396"/>
      <point x="401" y="334" type="curve" smooth="yes"/>
      <point x="401" y="270"/>
      <point x="363" y="217"/>
      <point x="275" y="217" type="curve" smooth="yes"/>
      <point x="70" y="217" type="line"/>
      <point x="70" y="115" type="line"/>
    </contour>
    <contour>
      <point x="70" y="0" type="line"/>
      <point x="196" y="0" type="line"/>
      <point x="196" y="674" type="line"/>
      <point x="70" y="674" type="line"/>
    </contour>
  </outline>
</glyph>
<glyph name="germandbls" format="1">
  <advance width="576"/>
  <unicode hex="00DF"/>
  <outline>
    <contour>
      <point x="272" y="117" type="line"/>
      <point x="307" y="95"/>
      <point x="332" y="89"/>
      <point x="367" y="89" type="curve" smooth="yes"/>
      <point x="409" y="89"/>
      <point x="439" y="111"/>
      <point x="439" y="148" type="curve" smooth="yes"/>
      <point x="439" y="229"/>
      <point x="292" y="246"/>
      <point x="292" y="351" type="curve" smooth="yes"/>
      <point x="292" y="427"/>
      <point x="358" y="455"/>
      <point x="358" y="517" type="curve" smooth="yes"/>
      <point x="358" y="557"/>
      <point x="331" y="583"/>
      <point x="282" y="583" type="curve" smooth="yes"/>
      <point x="219" y="583"/>
      <point x="184" y="553"/>
      <point x="184" y="481" type="curve"/>
      <point x="184" y="0" type="line"/>
      <point x="66" y="0" type="line"/>
      <point x="66" y="474" type="line"/>
      <point x="66" y="615"/>
      <point x="145" y="690"/>
      <point x="278" y="690" type="curve" smooth="yes"/>
      <point x="403" y="690"/>
      <point x="480" y="612"/>
      <point x="480" y="526" type="curve" smooth="yes"/>
      <point x="480" y="432"/>
      <point x="417" y="407"/>
      <point x="417" y="363" type="curve" smooth="yes"/>
      <point x="417" y="315"/>
      <point x="553" y="290"/>
      <point x="553" y="151" type="curve" smooth="yes"/>
      <point x="553" y="57"/>
      <point x="486" y="-8"/>
      <point x="377" y="-8" type="curve" smooth="yes"/>
      <point x="343" y="-8"/>
      <point x="298" y="-4"/>
      <point x="272" y="11" type="curve"/>
    </contour>
  </outline>
</glyph>
<glyph name="ae" format="1">
  <advance width="812"/>
  <unicode hex="00E6"/>
  <outline>
    <contour>
      <point x="765" y="205" type="line"/>
      <point x="768" y="224"/>
      <point x="772" y="257"/>
      <point x="772" y="275" type="curve" smooth="yes"/>
      <point x="772" y="434"/>
      <point x="690" y="512"/>
      <point x="559" y="512" type="curve" smooth="yes"/>
      <point x="490" y="512"/>
      <point x="429" y="485"/>
      <point x="395" y="435" type="curve"/>
      <point x="373" y="485"/>
      <point x="318" y="516"/>
      <point x="240" y="516" type="curve" smooth="yes"/>
      <point x="170" y="516"/>
      <point x="114" y="499"/>
      <point x="83" y="481" type="curve"/>
      <point x="83" y="370" type="line"/>
      <point x="121" y="396"/>
      <point x="177" y="415"/>
      <point x="232" y="415" type="curve" smooth="yes"/>
      <point x="306" y="415"/>
      <point x="329" y="382"/>
      <point x="329" y="329" type="curve" smooth="yes"/>
      <point x="329" y="298" type="line"/>
      <point x="256" y="298" type="line" smooth="yes"/>
      <point x="118" y="298"/>
      <point x="45" y="239"/>
      <point x="45" y="143" type="curve" smooth="yes"/>
      <point x="45" y="54"/>
      <point x="108" y="-4"/>
      <point x="217" y="-4" type="curve" smooth="yes"/>
      <point x="318" y="-4"/>
      <point x="373" y="44"/>
      <point x="394" y="92" type="curve"/>
      <point x="434" y="26"/>
      <point x="517" y="-5"/>
      <point x="592" y="-5" type="curve" smooth="yes"/>
      <point x="641" y="-5"/>
      <point x="703" y="6"/>
      <point x="739" y="28" type="curve"/>
      <point x="739" y="132" type="line"/>
      <point x="706" y="108"/>
      <point x="660" y="92"/>
      <point x="605" y="92" type="curve" smooth="yes"/>
      <point x="528" y="92"/>
      <point x="467" y="131"/>
      <point x="449" y="205" type="curve"/>
    </contour>
    <contour>
      <point x="562" y="418" type="curve" smooth="yes"/>
      <point x="624" y="418"/>
      <point x="655" y="375"/>
      <point x="658" y="309" type="curve" smooth="yes"/>
      <point x="658" y="306"/>
      <point x="658" y="297"/>
      <point x="658" y="295" type="curve"/>
      <point x="446" y="295" type="line"/>
      <point x="458" y="379"/>
      <point x="509" y="418"/>
    </contour>
    <contour>
      <point x="329" y="173" type="line"/>
      <point x="329" y="120"/>
      <point x="295" y="86"/>
      <point x="244" y="86" type="curve" smooth="yes"/>
      <point x="194" y="86"/>
      <point x="170" y="110"/>
      <point x="170" y="149" type="curve" smooth="yes"/>
      <point x="170" y="191"/>
      <point x="206" y="217"/>
      <point x="272" y="217" type="curve" smooth="yes"/>
      <point x="329" y="217" type="line"/>
    </contour>
  </outline>
</glyph>
<glyph name="igrave" format="1">
  <advance width="260"/>
  <unicode hex="00EC"/>
  <outline>
    <contour>
      <point x="70" y="0" type="line"/>
      <point x="190" y="0" type="line"/>
      <point x="190" y="507" type="line"/>
      <point x="70" y="507" type="line"/>
    </contour>
    <component base="grave" xOffset="-172" yOffset="-73"/>
  </outline>
</glyph>
<glyph name="iacute" format="1">
  <advance width="260"/>
  <unicode hex="00ED"/>
  <outline>
    <contour>
      <point x="70" y="0" type="line"/>
      <point x="190" y="0" type="line"/>
      <point x="190" y="507" type="line"/>
      <point x="70" y="507" type="line"/>
    </contour>
    <component base="acute" xOffset="-41" yOffset="-73"/>
  </outline>
</glyph>
<glyph name="icircumflex" format="1">
  <advance width="260"/>
  <unicode hex="00EE"/>
  <outline>
    <contour>
      <point x="70" y="0" type="line"/>
      <point x="190" y="0" type="line"/>
      <point x="190" y="507" type="line"/>
      <point x="70" y="507" type="line"/>
    </contour>
    <component base="circumflex" xOffset="-104" yOffset="-73"/>
  </outline>
</glyph>
<glyph name="idieresis" format="1">
  <advance width="260"/>
  <unicode hex="00EF"/>
  <outline>
    <contour>
      <point x="70" y="0" type="line"/>
      <point x="190" y="0" type="line"/>
      <point x="190" y="507" type="line"/>
      <point x="70" y="507" type="line"/>
    </contour>
    <component base="dieresis" xOffset="-104" yOffset="-73"/>
  </outline>
</glyph>
<glyph name="eth" format="1">
  <advance width="542"/>
  <unicode hex="00F0"/>
  <outline>
    <contour>
      <point x="290" y="674" type="line"/>
      <point x="410" y="594"/>
      <point x="495" y="434"/>
      <point x="495" y="282" type="curve" smooth="yes"/>
      <point x="495" y="104"/>
      <point x="413" y="-10"/>
      <point x="262" y="-10" type="curve" smooth="yes"/>
      <point x="118" y="-10"/>
      <point x="36" y="91"/>
      <point x="36" y="203" type="curve" smooth="yes"/>
      <point x="36" y="328"/>
      <point x="122" y="404"/>
      <point x="231" y="404" type="curve" smooth="yes"/>
      <point x="321" y="404"/>
      <point x="386" y="352"/>
      <point x="414" y="284" type="curve"/>
      <point x="410" y="193" type="line"/>
      <point x="377" y="252"/>
      <point x="330" y="300"/>
      <point x="258" y="300" type="curve" smooth="yes"/>
      <point x="199" y="300"/>
      <point x="160" y="263"/>
      <point x="160" y="196" type="curve" smooth="yes"/>
      <point x="160" y="137"/>
      <point x="200" y="99"/>
      <point x="261" y="99" type="curve" smooth="yes"/>
      <point x="321" y="99"/>
      <point x="377" y="137"/>
      <point x="377" y="282" type="curve" smooth="yes"/>
      <point x="377" y="462"/>
      <point x="268" y="590"/>
      <point x="129" y="674" type="curve"/>
    </contour>
    <contour>
      <point x="159" y="450" type="line"/>
      <point x="159" y="524" type="line"/>
      <point x="471" y="679" type="line"/>
      <point x="471" y="606" type="line"/>
    </contour>
  </outline>
</glyph>
<glyph name="divide" format="1">
  <advance width="576"/>
  <unicode hex="00F7"/>
  <outline>
    <contour>
      <point x="218" y="517" type="curve" smooth="yes"/>
      <point x="218" y="481"/>
      <point x="248" y="450"/>
      <point x="285" y="450" type="curve" smooth="yes"/>
      <point x="321" y="450"/>
      <point x="352" y="481"/>
      <point x="352" y="517" type="curve" smooth="yes"/>
      <point x="352" y="553"/>
      <point x="321" y="584"/>
      <point x="285" y="584" type="curve" smooth="yes"/>
      <point x="248" y="584"/>
      <point x="218" y="553"/>
    </contour>
    <contour>
      <point x="50" y="286" type="line"/>
      <point x="526" y="286" type="line"/>
      <point x="526" y="394" type="line"/>
      <point x="50" y="394" type="line"/>
    </contour>
    <contour>
      <point x="218" y="163" type="curve" smooth="yes"/>
      <point x="218" y="127"/>
      <point x="248" y="96"/>
      <point x="285" y="96" type="curve" smooth="yes"/>
      <point x="321" y="96"/>
      <point x="352" y="127"/>
      <point x="352" y="163" type="curve" smooth="yes"/>
      <point x="352" y="199"/>
      <point x="321" y="230"/>
      <point x="285" y="230" type="curve" smooth="yes"/>
      <point x="248" y="230"/>
      <point x="218" y="199"/>
    </contour>
  </outline>
</glyph>
<glyph name="oslash" format="1">
  <advance width="562"/>
  <unicode hex="00F8"/>
  <outline>
    <contour>
      <point x="287" y="-8" type="curve" smooth="yes"/>
      <point x="446" y="-8"/>
      <point x="532" y="107"/>
      <point x="532" y="255" type="curve" smooth="yes"/>
      <point x="532" y="399"/>
      <point x="449" y="515"/>
      <point x="287" y="515" type="curve" smooth="yes"/>
      <point x="138" y="515"/>
      <point x="43" y="399"/>
      <point x="43" y="248" type="curve" smooth="yes"/>
      <point x="43" y="105"/>
      <point x="128" y="-8"/>
    </contour>
    <contour>
      <point x="287" y="429" type="curve" smooth="yes"/>
      <point x="386" y="429"/>
      <point x="420" y="346"/>
      <point x="420" y="251" type="curve" smooth="yes"/>
      <point x="420" y="155"/>
      <point x="379" y="76"/>
      <point x="288" y="76" type="curve" smooth="yes"/>
      <point x="200" y="76"/>
      <point x="155" y="157"/>
      <point x="155" y="252" type="curve" smooth="yes"/>
      <point x="155" y="348"/>
      <point x="198" y="429"/>
    </contour>
    <contour>
      <point x="43" y="-8" type="line"/>
      <point x="149" y="-8" type="line"/>
      <point x="532" y="515" type="line"/>
      <point x="425" y="515" type="line"/>
    </contour>
  </outline>
</glyph>
<glyph name="thorn" format="1">
  <advance width="594"/>
  <unicode hex="00FE"/>
  <outline>
    <contour>
      <point x="65" y="-191" type="line"/>
      <point x="185" y="-191" type="line"/>
      <point x="185" y="707" type="line"/>
      <point x="65" y="707" type="line"/>
    </contour>
    <contour>
      <point x="185" y="257" type="curve" smooth="yes"/>
      <point x="185" y="368"/>
      <point x="252" y="412"/>
      <point x="313" y="412" type="curve" smooth="yes"/>
      <point x="380" y="412"/>
      <point x="433" y="357"/>
      <point x="433" y="254" type="curve" smooth="yes"/>
      <point x="433" y="152"/>
      <point x="381" y="96"/>
      <point x="311" y="96" type="curve" smooth="yes"/>
      <point x="247" y="96"/>
      <point x="185" y="148"/>
    </contour>
    <contour>
      <point x="143" y="256" type="curve" smooth="yes"/>
      <point x="143" y="79"/>
      <point x="223" y="-7"/>
      <point x="339" y="-7" type="curve" smooth="yes"/>
      <point x="476" y="-7"/>
      <point x="556" y="108"/>
      <point x="556" y="256" type="curve" smooth="yes"/>
      <point x="556" y="409"/>
      <point x="473" y="514"/>
      <point x="340" y="514" type="curve" smooth="yes"/>
      <point x="217" y="514"/>
      <point x="143" y="413"/>
    </contour>
  </outline>
</glyph>
<glyph name="Aogonek" format="1">
  <advance width="667"/>
  <unicode hex="0104"/>
  <outline>
    <contour>
      <point x="24" y="0" type="line"/>
      <point x="157" y="0" type="line"/>
      <point x="246" y="285" type="line" smooth="yes"/>
      <point x="323" y="530"/>
      <point x="333" y="580"/>
      <point x="333" y="580" type="curve"/>
      <point x="333" y="580"/>
      <point x="342" y="530"/>
      <point x="419" y="286" type="curve" smooth="yes"/>
      <point x="508" y="0" type="line"/>
      <point x="643" y="0" type="line"/>
      <point x="416" y="674" type="line"/>
      <point x="253" y="674" type="line"/>
    </contour>
    <contour>
      <point x="176" y="153" type="line"/>
      <point x="505" y="153" type="line"/>
      <point x="505" y="256" type="line"/>
      <point x="176" y="256" type="line"/>
    </contour>
    <contour>
      <point x="658" y="-230" type="curve"/>
      <point x="658" y="-145" type="line"/>
      <point x="638" y="-159"/>
      <point x="610" y="-172"/>
      <point x="578" y="-172" type="curve" smooth="yes"/>
      <point x="547" y="-172"/>
      <point x="527" y="-157"/>
      <point x="527" y="-128" type="curve" smooth="yes"/>
      <point x="527" y="-81"/>
      <point x="584" y="-34"/>
      <point x="643" y="0" type="curve"/>
      <point x="589" y="54" type="line"/>
      <point x="527" y="29"/>
      <point x="429" y="-38"/>
      <point x="429" y="-139" type="curve" smooth="yes"/>
      <point x="429" y="-201"/>
      <point x="469" y="-253"/>
      <point x="561" y="-253" type="curve" smooth="yes"/>
      <point x="600" y="-253"/>
      <point x="632" y="-245"/>
    </contour>
  </outline>
</glyph>
<glyph name="aogonek" format="1">
  <advance width="504"/>
  <unicode hex="0105"/>
  <outline>
    <contour>
      <point x="324" y="168" type="line"/>
      <point x="324" y="121"/>
      <point x="292" y="86"/>
      <point x="239" y="86" type="curve" smooth="yes"/>
      <point x="189" y="86"/>
      <point x="165" y="110"/>
      <point x="165" y="149" type="curve" smooth="yes"/>
      <point x="165" y="191"/>
      <point x="201" y="217"/>
      <point x="267" y="217" type="curve" smooth="yes"/>
      <point x="340" y="217" type="line"/>
      <point x="340" y="298" type="line"/>
      <point x="251" y="298" type="line" smooth="yes"/>
      <point x="113" y="298"/>
      <point x="40" y="239"/>
      <point x="40" y="143" type="curve" smooth="yes"/>
      <point x="40" y="59"/>
      <point x="98" y="-4"/>
      <point x="197" y="-4" type="curve" smooth="yes"/>
      <point x="267" y="-4"/>
      <point x="308" y="28"/>
      <point x="329" y="62" type="curve"/>
      <point x="329" y="0" type="line"/>
      <point x="448" y="0" type="line"/>
      <point x="448" y="324" type="line" smooth="yes"/>
      <point x="448" y="452"/>
      <point x="382" y="516"/>
      <point x="242" y="516" type="curve" smooth="yes"/>
      <point x="172" y="516"/>
      <point x="109" y="499"/>
      <point x="78" y="481" type="curve"/>
      <point x="78" y="370" type="line"/>
      <point x="116" y="396"/>
      <point x="172" y="415"/>
      <point x="227" y="415" type="curve" smooth="yes"/>
      <point x="301" y="415"/>
      <point x="324" y="382"/>
      <point x="324" y="329" type="curve" smooth="yes"/>
    </contour>
    <contour>
      <point x="463" y="-230" type="curve"/>
      <point x="463" y="-145" type="line"/>
      <point x="442" y="-159"/>
      <point x="415" y="-172"/>
      <point x="383" y="-172" type="curve" smooth="yes"/>
      <point x="351" y="-172"/>
      <point x="332" y="-157"/>
      <point x="332" y="-128" type="curve" smooth="yes"/>
      <point x="332" y="-81"/>
      <point x="388" y="-34"/>
      <point x="448" y="0" type="curve"/>
      <point x="405" y="54" type="line"/>
      <point x="343" y="29"/>
      <point x="234" y="-38"/>
      <point x="234" y="-139" type="curve" smooth="yes"/>
      <point x="234" y="-201"/>
      <point x="273" y="-253"/>
      <point x="365" y="-253" type="curve" smooth="yes"/>
      <point x="405" y="-253"/>
      <point x="437" y="-245"/>
    </contour>
  </outline>
</glyph>
<glyph name="Gcommaaccent" format="1">
  <advance width="693"/>
  <unicode hex="0122"/>
  <outline>
    <contour>
      <point x="598" y="514" type="line"/>
      <point x="526" y="557"/>
      <point x="458" y="569"/>
      <point x="403" y="569" type="curve" smooth="yes"/>
      <point x="268" y="569"/>
      <point x="178" y="478"/>
      <point x="178" y="338" type="curve" smooth="yes"/>
      <point x="178" y="196"/>
      <point x="264" y="108"/>
      <point x="405" y="108" type="curve" smooth="yes"/>
      <point x="507" y="108"/>
      <point x="582" y="160"/>
      <point x="621" y="196" type="curve"/>
      <point x="630" y="58" type="line"/>
      <point x="584" y="25"/>
      <point x="505" y="-8"/>
      <point x="400" y="-8" type="curve" smooth="yes"/>
      <point x="190" y="-8"/>
      <point x="43" y="122"/>
      <point x="43" y="338" type="curve" smooth="yes"/>
      <point x="43" y="549"/>
      <point x="197" y="686"/>
      <point x="401" y="686" type="curve" smooth="yes"/>
      <point x="464" y="686"/>
      <point x="535" y="676"/>
      <point x="598" y="643" type="curve"/>
    </contour>
    <contour>
      <point x="506" y="393" type="line"/>
      <point x="630" y="393" type="line"/>
      <point x="630" y="69" type="line"/>
      <point x="506" y="36" type="line"/>
    </contour>
    <contour>
      <point x="382" y="393" type="line"/>
      <point x="630" y="393" type="line"/>
      <point x="630" y="285" type="line"/>
      <point x="382" y="285" type="line"/>
    </contour>
    <contour>
      <point x="235" y="-255" type="line"/>
      <point x="325" y="-255" type="line"/>
      <point x="440" y="-51" type="line"/>
      <point x="311" y="-51" type="line"/>
    </contour>
  </outline>
</glyph>
<glyph name="gcommaaccent" format="1">
  <advance width="571"/>
  <unicode hex="0123"/>
  <outline>
    <contour>
      <point x="91" y="-159" type="line"/>
      <point x="145" y="-185"/>
      <point x="208" y="-195"/>
      <point x="266" y="-195" type="curve" smooth="yes"/>
      <point x="398" y="-195"/>
      <point x="512" y="-123"/>
      <point x="512" y="46" type="curve" smooth="yes"/>
      <point x="512" y="507" type="line"/>
      <point x="392" y="507" type="line"/>
      <point x="392" y="47" type="line" smooth="yes"/>
      <point x="392" y="-45"/>
      <point x="345" y="-85"/>
      <point x="254" y="-85" type="curve" smooth="yes"/>
      <point x="195" y="-85"/>
      <point x="135" y="-68"/>
      <point x="91" y="-37" type="curve"/>
    </contour>
    <contour>
      <point x="251" y="513" type="curve" smooth="yes"/>
      <point x="124" y="513"/>
      <point x="42" y="404"/>
      <point x="42" y="260" type="curve" smooth="yes"/>
      <point x="42" y="92"/>
      <point x="144" y="16"/>
      <point x="248" y="16" type="curve" smooth="yes"/>
      <point x="367" y="16"/>
      <point x="429" y="102"/>
      <point x="429" y="252" type="curve" smooth="yes"/>
      <point x="429" y="253"/>
      <point x="429" y="258"/>
      <point x="429" y="258" type="curve" smooth="yes"/>
      <point x="429" y="396"/>
      <point x="384" y="513"/>
    </contour>
    <contour>
      <point x="277" y="114" type="curve" smooth="yes"/>
      <point x="216" y="114"/>
      <point x="167" y="161"/>
      <point x="167" y="260" type="curve" smooth="yes"/>
      <point x="167" y="351"/>
      <point x="209" y="410"/>
      <point x="279" y="410" type="curve" smooth="yes"/>
      <point x="339" y="410"/>
      <point x="392" y="368"/>
      <point x="392" y="253" type="curve" smooth="yes"/>
      <point x="392" y="168"/>
      <point x="341" y="114"/>
    </contour>
    <contour>
      <point x="458" y="760" type="line"/>
      <point x="368" y="760" type="line"/>
      <point x="254" y="556" type="line"/>
      <point x="382" y="556" type="line"/>
    </contour>
  </outline>
</glyph>
<glyph name="imacron" format="1">
  <advance width="260"/>
  <unicode hex="012B"/>
  <outline>
    <contour>
      <point x="70" y="0" type="line"/>
      <point x="190" y="0" type="line"/>
      <point x="190" y="507" type="line"/>
      <point x="70" y="507" type="line"/>
    </contour>
    <component base="macron" xOffset="-105" yOffset="-68"/>
  </outline>
</glyph>
<glyph name="kcommaaccent" format="1">
  <advance width="522"/>
  <unicode hex="0137"/>
  <outline>
    <contour>
      <point x="136" y="-255" type="line"/>
      <point x="227" y="-255" type="line"/>
      <point x="341" y="-51" type="line"/>
      <point x="212" y="-51" type="line"/>
    </contour>
    <contour>
      <point x="367" y="0" type="line"/>
      <point x="508" y="0" type="line"/>
      <point x="318" y="265" type="line"/>
      <point x="183" y="265" type="line"/>
    </contour>
    <contour>
      <point x="65" y="0" type="line"/>
      <point x="185" y="0" type="line"/>
      <point x="185" y="695" type="line"/>
      <point x="65" y="695" type="line"/>
    </contour>
    <contour>
      <point x="182" y="265" type="line"/>
      <point x="318" y="265" type="line"/>
      <point x="504" y="507" type="line"/>
      <point x="364" y="507" type="line"/>
    </contour>
  </outline>
</glyph>
<glyph name="Lcommaaccent" format="1">
  <advance width="484"/>
  <unicode hex="013B"/>
  <outline>
    <contour>
      <point x="70" y="674" type="line"/>
      <point x="70" y="0" type="line"/>
      <point x="196" y="0" type="line"/>
      <point x="196" y="674" type="line"/>
    </contour>
    <contour>
      <point x="113" y="112" type="line"/>
      <point x="113" y="0" type="line"/>
      <point x="459" y="0" type="line"/>
      <point x="459" y="112" type="line"/>
    </contour>
    <contour>
      <point x="139" y="-255" type="line"/>
      <point x="229" y="-255" type="line"/>
      <point x="344" y="-51" type="line"/>
      <point x="215" y="-51" type="line"/>
    </contour>
  </outline>
</glyph>
<glyph name="lcommaaccent" format="1">
  <advance width="260"/>
  <unicode hex="013C"/>
  <outline>
    <contour>
      <point x="70" y="0" type="line"/>
      <point x="190" y="0" type="line"/>
      <point x="190" y="707" type="line"/>
      <point x="70" y="707" type="line"/>
    </contour>
    <contour>
      <point x="-12" y="-255" type="line"/>
      <point x="79" y="-255" type="line"/>
      <point x="193" y="-51" type="line"/>
      <point x="64" y="-51" type="line"/>
    </contour>
  </outline>
</glyph>
<glyph name="Lcaron" format="1">
  <advance width="484"/>
  <unicode hex="013D"/>
  <outline>
    <contour>
      <point x="70" y="674" type="line"/>
      <point x="196" y="674" type="line"/>
      <point x="196" y="0" type="line"/>
      <point x="70" y="0" type="line"/>
    </contour>
    <contour>
      <point x="113" y="112" type="line"/>
      <point x="459" y="112" type="line"/>
      <point x="459" y="0" type="line"/>
      <point x="113" y="0" type="line"/>
    </contour>
    <contour>
      <point x="267" y="496" type="line"/>
      <point x="358" y="496" type="line"/>
      <point x="472" y="700" type="line"/>
      <point x="343" y="700" type="line"/>
    </contour>
  </outline>
</glyph>
<glyph name="lcaron" format="1">
  <advance width="269"/>
  <unicode hex="013E"/>
  <outline>
    <contour>
      <point x="70" y="0" type="line"/>
      <point x="190" y="0" type="line"/>
      <point x="190" y="707" type="line"/>
      <point x="70" y="707" type="line"/>
    </contour>
    <contour>
      <point x="252" y="505" type="line"/>
      <point x="342" y="505" type="line"/>
      <point x="456" y="708" type="line"/>
      <point x="328" y="708" type="line"/>
    </contour>
  </outline>
</glyph>
<glyph name="Lslash" format="1">
  <advance width="539"/>
  <unicode hex="0141"/>
  <outline>
    <contour>
      <point x="114" y="674" type="line"/>
      <point x="241" y="674" type="line"/>
      <point x="241" y="0" type="line"/>
      <point x="114" y="0" type="line"/>
    </contour>
    <contour>
      <point x="157" y="112" type="line"/>
      <point x="504" y="112" type="line"/>
      <point x="504" y="0" type="line"/>
      <point x="157" y="0" type="line"/>
    </contour>
    <contour>
      <point x="39" y="174" type="line"/>
      <point x="39" y="279" type="line"/>
      <point x="399" y="496" type="line"/>
      <point x="399" y="391" type="line"/>
    </contour>
  </outline>
</glyph>
<glyph name="lslash" format="1">
  <advance width="322"/>
  <unicode hex="0142"/>
  <outline>
    <contour>
      <point x="305" y="418" type="line"/>
      <point x="305" y="523" type="line"/>
      <point x="28" y="332" type="line"/>
      <point x="28" y="227" type="line"/>
    </contour>
    <contour>
      <point x="102" y="0" type="line"/>
      <point x="222" y="0" type="line"/>
      <point x="222" y="707" type="line"/>
      <point x="102" y="707" type="line"/>
    </contour>
  </outline>
</glyph>
<glyph name="Ncommaaccent" format="1">
  <advance width="688"/>
  <unicode hex="0145"/>
  <outline>
    <contour>
      <point x="212" y="-255" type="line"/>
      <point x="303" y="-255" type="line"/>
      <point x="417" y="-51" type="line"/>
      <point x="288" y="-51" type="line"/>
    </contour>
    <contour>
      <point x="70" y="0" type="line"/>
      <point x="196" y="0" type="line"/>
      <point x="196" y="281" type="line" smooth="yes"/>
      <point x="196" y="427"/>
      <point x="185" y="522"/>
      <point x="185" y="522" type="curve"/>
      <point x="185" y="522"/>
      <point x="223" y="428"/>
      <point x="311" y="280" type="curve" smooth="yes"/>
      <point x="475" y="0" type="line"/>
      <point x="619" y="0" type="line"/>
      <point x="619" y="674" type="line"/>
      <point x="492" y="674" type="line"/>
      <point x="492" y="393" type="line" smooth="yes"/>
      <point x="492" y="238"/>
      <point x="500" y="155"/>
      <point x="500" y="155" type="curve"/>
      <point x="500" y="155"/>
      <point x="466" y="237"/>
      <point x="375" y="393" type="curve" smooth="yes"/>
      <point x="213" y="674" type="line"/>
      <point x="70" y="674" type="line"/>
    </contour>
  </outline>
</glyph>
<glyph name="ncommaaccent" format="1">
  <advance width="565"/>
  <unicode hex="0146"/>
  <outline>
    <contour>
      <point x="149" y="-255" type="line"/>
      <point x="239" y="-255" type="line"/>
      <point x="354" y="-51" type="line"/>
      <point x="225" y="-51" type="line"/>
    </contour>
    <contour>
      <point x="65" y="0" type="line"/>
      <point x="185" y="0" type="line"/>
      <point x="185" y="507" type="line"/>
      <point x="65" y="507" type="line"/>
    </contour>
    <contour>
      <point x="385" y="0" type="line"/>
      <point x="505" y="0" type="line"/>
      <point x="505" y="337" type="line" smooth="yes"/>
      <point x="505" y="450"/>
      <point x="441" y="513"/>
      <point x="341" y="513" type="curve" smooth="yes"/>
      <point x="233" y="513"/>
      <point x="167" y="440"/>
      <point x="165" y="327" type="curve" smooth="yes"/>
      <point x="165" y="325"/>
      <point x="165" y="274"/>
      <point x="165" y="272" type="curve"/>
      <point x="185" y="272" type="line"/>
      <point x="185" y="367"/>
      <point x="238" y="413"/>
      <point x="296" y="413" type="curve" smooth="yes"/>
      <point x="349" y="413"/>
      <point x="385" y="380"/>
      <point x="385" y="312" type="curve" smooth="yes"/>
    </contour>
  </outline>
</glyph>
<glyph name="OE" format="1">
  <advance width="994"/>
  <unicode hex="0152"/>
  <outline>
    <contour>
      <point x="43" y="339" type="curve" smooth="yes"/>
      <point x="43" y="131"/>
      <point x="163" y="-7"/>
      <point x="357" y="-7" type="curve" smooth="yes"/>
      <point x="530" y="-7"/>
      <point x="649" y="139"/>
      <point x="649" y="339" type="curve" smooth="yes"/>
      <point x="649" y="541"/>
      <point x="532" y="686"/>
      <point x="356" y="686" type="curve" smooth="yes"/>
      <point x="162" y="686"/>
      <point x="43" y="547"/>
    </contour>
    <contour>
      <point x="178" y="339" type="curve" smooth="yes"/>
      <point x="178" y="481"/>
      <point x="243" y="570"/>
      <point x="356" y="570" type="curve" smooth="yes"/>
      <point x="471" y="570"/>
      <point x="535" y="481"/>
      <point x="535" y="339" type="curve" smooth="yes"/>
      <point x="535" y="197"/>
      <point x="471" y="109"/>
      <point x="357" y="109" type="curve" smooth="yes"/>
      <point x="245" y="109"/>
      <point x="178" y="197"/>
    </contour>
    <contour>
      <point x="578" y="0" type="line"/>
      <point x="938" y="0" type="line"/>
      <point x="938" y="103" type="line"/>
      <point x="578" y="103" type="line"/>
    </contour>
    <contour>
      <point x="535" y="0" type="line"/>
      <point x="656" y="0" type="line"/>
      <point x="656" y="674" type="line"/>
      <point x="535" y="674" type="line"/>
    </contour>
    <contour>
      <point x="578" y="286" type="line"/>
      <point x="904" y="286" type="line"/>
      <point x="904" y="388" type="line"/>
      <point x="578" y="388" type="line"/>
    </contour>
    <contour>
      <point x="578" y="571" type="line"/>
      <point x="934" y="571" type="line"/>
      <point x="934" y="674" type="line"/>
      <point x="578" y="674" type="line"/>
    </contour>
  </outline>
</glyph>
<glyph name="oe" format="1">
  <advance width="884"/>
  <unicode hex="0153"/>
  <outline>
    <contour>
      <point x="279" y="-8" type="curve" smooth="yes"/>
      <point x="428" y="-8"/>
      <point x="515" y="107"/>
      <point x="515" y="255" type="curve" smooth="yes"/>
      <point x="515" y="399"/>
      <point x="431" y="515"/>
      <point x="279" y="515" type="curve" smooth="yes"/>
      <point x="129" y="515"/>
      <point x="38" y="399"/>
      <point x="38" y="248" type="curve" smooth="yes"/>
      <point x="38" y="105"/>
      <point x="120" y="-8"/>
    </contour>
    <contour>
      <point x="279" y="417" type="curve" smooth="yes"/>
      <point x="367" y="417"/>
      <point x="399" y="340"/>
      <point x="399" y="251" type="curve" smooth="yes"/>
      <point x="399" y="162"/>
      <point x="362" y="88"/>
      <point x="280" y="88" type="curve" smooth="yes"/>
      <point x="201" y="88"/>
      <point x="164" y="164"/>
      <point x="164" y="252" type="curve" smooth="yes"/>
      <point x="164" y="341"/>
      <point x="199" y="417"/>
    </contour>
    <contour>
      <point x="475" y="205" type="line"/>
      <point x="838" y="205" type="line"/>
      <point x="841" y="224"/>
      <point x="844" y="257"/>
      <point x="844" y="275" type="curve" smooth="yes"/>
      <point x="844" y="434"/>
      <point x="762" y="512"/>
      <point x="631" y="512" type="curve" smooth="yes"/>
      <point x="513" y="512"/>
      <point x="399" y="421"/>
      <point x="399" y="253" type="curve" smooth="yes"/>
      <point x="399" y="102"/>
      <point x="505" y="-5"/>
      <point x="659" y="-5" type="curve" smooth="yes"/>
      <point x="708" y="-5"/>
      <point x="774" y="5"/>
      <point x="812" y="28" type="curve"/>
      <point x="812" y="132" type="line"/>
      <point x="778" y="108"/>
      <point x="732" y="92"/>
      <point x="678" y="92" type="curve" smooth="yes"/>
      <point x="584" y="92"/>
      <point x="515" y="148"/>
      <point x="515" y="253" type="curve" smooth="yes"/>
      <point x="515" y="367"/>
      <point x="573" y="418"/>
      <point x="634" y="418" type="curve" smooth="yes"/>
      <point x="694" y="418"/>
      <point x="726" y="378"/>
      <point x="730" y="316" type="curve" smooth="yes"/>
      <point x="730" y="311"/>
      <point x="730" y="300"/>
      <point x="730" y="295" type="curve"/>
      <point x="475" y="295" type="line"/>
    </contour>
  </outline>
</glyph>
<glyph name="rcommaaccent" format="1">
  <advance width="353"/>
  <unicode hex="0157"/>
  <outline>
    <contour>
      <point x="64" y="0" type="line"/>
      <point x="185" y="0" type="line"/>
      <point x="185" y="507" type="line"/>
      <point x="65" y="507" type="line"/>
    </contour>
    <contour>
      <point x="347" y="508" type="line"/>
      <point x="334" y="511"/>
      <point x="324" y="511"/>
      <point x="313" y="511" type="curve" smooth="yes"/>
      <point x="218" y="511"/>
      <point x="169" y="427"/>
      <point x="170" y="326" type="curve"/>
      <point x="185" y="262" type="line"/>
      <point x="185" y="341"/>
      <point x="229" y="402"/>
      <point x="296" y="402" type="curve" smooth="yes"/>
      <point x="313" y="402"/>
      <point x="329" y="400"/>
      <point x="347" y="392" type="curve"/>
    </contour>
    <contour>
      <point x="-20" y="-255" type="line"/>
      <point x="70" y="-255" type="line"/>
      <point x="185" y="-51" type="line"/>
      <point x="56" y="-51" type="line"/>
    </contour>
  </outline>
</glyph>
<glyph name="Tcedilla" format="1">
  <advance width="520"/>
  <unicode hex="0162"/>
  <outline>
    <contour>
      <point x="115" y="-255" type="line"/>
      <point x="206" y="-255" type="line"/>
      <point x="320" y="-51" type="line"/>
      <point x="192" y="-51" type="line"/>
    </contour>
    <contour>
      <point x="197" y="0" type="line"/>
      <point x="324" y="0" type="line"/>
      <point x="324" y="659" type="line"/>
      <point x="197" y="659" type="line"/>
    </contour>
    <contour>
      <point x="26" y="570" type="line"/>
      <point x="495" y="570" type="line"/>
      <point x="495" y="674" type="line"/>
      <point x="26" y="674" type="line"/>
    </contour>
  </outline>
</glyph>
<glyph name="tcaron" format="1">
  <advance width="379"/>
  <unicode hex="0165"/>
  <outline>
    <contour>
      <point x="91" y="161" type="line"/>
      <point x="91" y="54"/>
      <point x="143" y="-5"/>
      <point x="255" y="-5" type="curve" smooth="yes"/>
      <point x="280" y="-5"/>
      <point x="320" y="0"/>
      <point x="345" y="12" type="curve"/>
      <point x="345" y="115" type="line"/>
      <point x="325" y="102"/>
      <point x="298" y="94"/>
      <point x="275" y="94" type="curve" smooth="yes"/>
      <point x="236" y="94"/>
      <point x="211" y="116"/>
      <point x="211" y="159" type="curve" smooth="yes"/>
      <point x="211" y="629" type="line"/>
      <point x="91" y="629" type="line"/>
    </contour>
    <contour>
      <point x="15" y="417" type="line"/>
      <point x="337" y="417" type="line"/>
      <point x="337" y="507" type="line"/>
      <point x="15" y="507" type="line"/>
    </contour>
    <contour>
      <point x="265" y="580" type="line"/>
      <point x="356" y="580" type="line"/>
      <point x="470" y="784" type="line"/>
      <point x="341" y="784" type="line"/>
    </contour>
  </outline>
</glyph>
<glyph name="florin" format="1">
  <advance width="473"/>
  <unicode hex="0192"/>
  <outline>
    <contour>
      <point x="462" y="570" type="line"/>
      <point x="445" y="576"/>
      <point x="423" y="580"/>
      <point x="405" y="580" type="curve" smooth="yes"/>
      <point x="352" y="580"/>
      <point x="326" y="541"/>
      <point x="315" y="471" type="curve" smooth="yes"/>
      <point x="230" y="-56" type="line" smooth="yes"/>
      <point x="211" y="-175"/>
      <point x="153" y="-256"/>
      <point x="42" y="-256" type="curve" smooth="yes"/>
      <point x="10" y="-256"/>
      <point x="-25" y="-251"/>
      <point x="-44" y="-243" type="curve"/>
      <point x="-44" y="-143" type="line"/>
      <point x="-24" y="-152"/>
      <point x="-1" y="-157"/>
      <point x="24" y="-157" type="curve" smooth="yes"/>
      <point x="77" y="-157"/>
      <point x="99" y="-117"/>
      <point x="110" y="-47" type="curve" smooth="yes"/>
      <point x="196" y="480" type="line" smooth="yes"/>
      <point x="215" y="599"/>
      <point x="272" y="680"/>
      <point x="384" y="680" type="curve" smooth="yes"/>
      <point x="407" y="680"/>
      <point x="439" y="678"/>
      <point x="462" y="670" type="curve"/>
    </contour>
    <contour>
      <point x="74" y="380" type="line"/>
      <point x="397" y="380" type="line"/>
      <point x="397" y="290" type="line"/>
      <point x="74" y="290" type="line"/>
    </contour>
  </outline>
</glyph>
<glyph name="Scommaaccent" format="1">
  <advance width="518"/>
  <unicode hex="0218"/>
  <outline>
    <contour>
      <point x="445" y="646" type="line"/>
      <point x="395" y="670"/>
      <point x="334" y="679"/>
      <point x="281" y="679" type="curve" smooth="yes"/>
      <point x="141" y="679"/>
      <point x="49" y="604"/>
      <point x="49" y="489" type="curve" smooth="yes"/>
      <point x="49" y="375"/>
      <point x="135" y="330"/>
      <point x="213" y="294" type="curve" smooth="yes"/>
      <point x="286" y="261"/>
      <point x="344" y="239"/>
      <point x="344" y="185" type="curve" smooth="yes"/>
      <point x="344" y="133"/>
      <point x="302" y="102"/>
      <point x="242" y="102" type="curve" smooth="yes"/>
      <point x="178" y="102"/>
      <point x="112" y="122"/>
      <point x="54" y="164" type="curve"/>
      <point x="54" y="35" type="line"/>
      <point x="103" y="7"/>
      <point x="175" y="-8"/>
      <point x="243" y="-8" type="curve" smooth="yes"/>
      <point x="381" y="-8"/>
      <point x="477" y="68"/>
      <point x="477" y="189" type="curve" smooth="yes"/>
      <point x="477" y="310"/>
      <point x="384" y="355"/>
      <point x="299" y="392" type="curve" smooth="yes"/>
      <point x="236" y="420"/>
      <point x="185" y="446"/>
      <point x="185" y="494" type="curve" smooth="yes"/>
      <point x="185" y="537"/>
      <point x="221" y="569"/>
      <point x="285" y="569" type="curve" smooth="yes"/>
      <point x="340" y="569"/>
      <point x="400" y="551"/>
      <point x="445" y="524" type="curve"/>
    </contour>
    <contour>
      <point x="125" y="-255" type="line"/>
      <point x="216" y="-255" type="line"/>
      <point x="330" y="-51" type="line"/>
      <point x="201" y="-51" type="line"/>
    </contour>
  </outline>
</glyph>
<glyph name="scommaaccent" format="1">
  <advance width="427"/>
  <unicode hex="0219"/>
  <outline>
    <contour>
      <point x="82" y="-255" type="line"/>
      <point x="172" y="-255" type="line"/>
      <point x="287" y="-51" type="line"/>
      <point x="158" y="-51" type="line"/>
    </contour>
    <contour>
      <point x="368" y="491" type="line"/>
      <point x="338" y="504"/>
      <point x="290" y="513"/>
      <point x="240" y="513" type="curve" smooth="yes"/>
      <point x="138" y="513"/>
      <point x="54" y="460"/>
      <point x="54" y="363" type="curve" smooth="yes"/>
      <point x="54" y="282"/>
      <point x="110" y="244"/>
      <point x="165" y="219" type="curve" smooth="yes"/>
      <point x="222" y="195"/>
      <point x="272" y="178"/>
      <point x="272" y="138" type="curve" smooth="yes"/>
      <point x="272" y="109"/>
      <point x="247" y="91"/>
      <point x="202" y="91" type="curve" smooth="yes"/>
      <point x="147" y="91"/>
      <point x="93" y="112"/>
      <point x="57" y="136" type="curve"/>
      <point x="57" y="26" type="line"/>
      <point x="89" y="9"/>
      <point x="146" y="-5"/>
      <point x="209" y="-5" type="curve" smooth="yes"/>
      <point x="320" y="-5"/>
      <point x="396" y="49"/>
      <point x="396" y="146" type="curve" smooth="yes"/>
      <point x="396" y="222"/>
      <point x="338" y="259"/>
      <point x="281" y="287" type="curve" smooth="yes"/>
      <point x="228" y="312"/>
      <point x="177" y="328"/>
      <point x="177" y="367" type="curve" smooth="yes"/>
      <point x="177" y="395"/>
      <point x="201" y="415"/>
      <point x="243" y="415" type="curve" smooth="yes"/>
      <point x="291" y="415"/>
      <point x="338" y="403"/>
      <point x="368" y="385" type="curve"/>
    </contour>
  </outline>
</glyph>
<glyph name="Tcommaaccent" format="1">
  <advance width="520"/>
  <unicode hex="021A"/>
  <outline>
    <contour>
      <point x="197" y="0" type="line"/>
      <point x="324" y="0" type="line"/>
      <point x="324" y="659" type="line"/>
      <point x="197" y="659" type="line"/>
    </contour>
    <contour>
      <point x="26" y="570" type="line"/>
      <point x="495" y="570" type="line"/>
      <point x="495" y="674" type="line"/>
      <point x="26" y="674" type="line"/>
    </contour>
    <contour>
      <point x="118" y="-255" type="line"/>
      <point x="209" y="-255" type="line"/>
      <point x="323" y="-51" type="line"/>
      <point x="195" y="-51" type="line"/>
    </contour>
  </outline>
</glyph>
<glyph name="circumflex" format="1">
  <advance width="470"/>
  <unicode hex="02C6"/>
  <outline>
    <contour>
      <point x="288" y="798" type="line"/>
      <point x="433" y="629" type="line"/>
      <point x="316" y="629" type="line"/>
      <point x="235" y="728" type="line"/>
      <point x="154" y="629" type="line"/>
      <point x="37" y="629" type="line"/>
      <point x="182" y="798" type="line"/>
    </contour>
  </outline>
</glyph>
<glyph name="caron" format="1">
  <advance width="470"/>
  <unicode hex="02C7"/>
  <outline>
    <contour>
      <point x="182" y="629" type="line"/>
      <point x="37" y="798" type="line"/>
      <point x="154" y="798" type="line"/>
      <point x="235" y="699" type="line"/>
      <point x="316" y="798" type="line"/>
      <point x="433" y="798" type="line"/>
      <point x="288" y="629" type="line"/>
    </contour>
  </outline>
</glyph>
<glyph name="macronmod" format="1">
  <advance width="470"/>
  <unicode hex="02C9"/>
  <outline>
    <contour>
      <point x="399" y="667" type="line"/>
      <point x="399" y="750" type="line"/>
      <point x="71" y="750" type="line"/>
      <point x="71" y="667" type="line"/>
    </contour>
  </outline>
</glyph>
<glyph name="breve" format="1">
  <advance width="470"/>
  <unicode hex="02D8"/>
  <outline>
    <contour>
      <point x="235" y="704" type="curve" smooth="yes"/>
      <point x="294" y="704"/>
      <point x="326" y="741"/>
      <point x="326" y="798" type="curve"/>
      <point x="420" y="798" type="line"/>
      <point x="420" y="681"/>
      <point x="347" y="625"/>
      <point x="235" y="625" type="curve"/>
      <point x="124" y="625"/>
      <point x="50" y="681"/>
      <point x="50" y="798" type="curve"/>
      <point x="144" y="798" type="line"/>
      <point x="144" y="741"/>
      <point x="176" y="704"/>
    </contour>
  </outline>
</glyph>
<glyph name="dotaccent" format="1">
  <advance width="470"/>
  <unicode hex="02D9"/>
  <outline>
    <contour>
      <point x="164" y="716" type="curve" smooth="yes"/>
      <point x="164" y="676"/>
      <point x="194" y="646"/>
      <point x="235" y="646" type="curve" smooth="yes"/>
      <point x="275" y="646"/>
      <point x="305" y="676"/>
      <point x="305" y="716" type="curve" smooth="yes"/>
      <point x="305" y="755"/>
      <point x="275" y="785"/>
      <point x="235" y="785" type="curve" smooth="yes"/>
      <point x="194" y="785"/>
      <point x="164" y="755"/>
    </contour>
  </outline>
</glyph>
<glyph name="ring" format="1">
  <advance width="470"/>
  <unicode hex="02DA"/>
  <outline>
    <contour>
      <point x="110" y="714" type="curve" smooth="yes"/>
      <point x="110" y="645"/>
      <point x="166" y="589"/>
      <point x="235" y="589" type="curve" smooth="yes"/>
      <point x="304" y="589"/>
      <point x="360" y="645"/>
      <point x="360" y="714" type="curve" smooth="yes"/>
      <point x="360" y="783"/>
      <point x="304" y="839"/>
      <point x="235" y="839" type="curve" smooth="yes"/>
      <point x="166" y="839"/>
      <point x="110" y="783"/>
    </contour>
    <contour>
      <point x="182" y="716" type="curve" smooth="yes"/>
      <point x="182" y="745"/>
      <point x="204" y="771"/>
      <point x="235" y="771" type="curve" smooth="yes"/>
      <point x="266" y="771"/>
      <point x="288" y="745"/>
      <point x="288" y="716" type="curve" smooth="yes"/>
      <point x="288" y="687"/>
      <point x="266" y="661"/>
      <point x="235" y="661" type="curve" smooth="yes"/>
      <point x="204" y="661"/>
      <point x="182" y="687"/>
    </contour>
  </outline>
</glyph>
<glyph name="ogonek" format="1">
  <advance width="470"/>
  <unicode hex="02DB"/>
  <outline>
    <contour>
      <point x="350" y="-217" type="curve"/>
      <point x="350" y="-132" type="line"/>
      <point x="329" y="-146"/>
      <point x="301" y="-159"/>
      <point x="270" y="-159" type="curve" smooth="yes"/>
      <point x="238" y="-159"/>
      <point x="218" y="-144"/>
      <point x="218" y="-115" type="curve" smooth="yes"/>
      <point x="218" y="-68"/>
      <point x="275" y="-21"/>
      <point x="334" y="13" type="curve"/>
      <point x="292" y="67" type="line"/>
      <point x="230" y="42"/>
      <point x="120" y="-25"/>
      <point x="120" y="-126" type="curve" smooth="yes"/>
      <point x="120" y="-188"/>
      <point x="160" y="-240"/>
      <point x="252" y="-240" type="curve" smooth="yes"/>
      <point x="291" y="-240"/>
      <point x="323" y="-232"/>
    </contour>
  </outline>
</glyph>
<glyph name="tilde" format="1">
  <advance width="470"/>
  <unicode hex="02DC"/>
  <outline>
    <contour>
      <point x="361" y="765" type="line"/>
      <point x="349" y="740"/>
      <point x="328" y="722"/>
      <point x="297" y="722" type="curve" smooth="yes"/>
      <point x="254" y="722"/>
      <point x="225" y="760"/>
      <point x="162" y="760" type="curve" smooth="yes"/>
      <point x="112" y="760"/>
      <point x="71" y="723"/>
      <point x="51" y="682" type="curve"/>
      <point x="108" y="629" type="line"/>
      <point x="131" y="660"/>
      <point x="146" y="673"/>
      <point x="180" y="673" type="curve" smooth="yes"/>
      <point x="216" y="673"/>
      <point x="247" y="635"/>
      <point x="303" y="635" type="curve" smooth="yes"/>
      <point x="358" y="635"/>
      <point x="401" y="665"/>
      <point x="425" y="714" type="curve"/>
    </contour>
  </outline>
</glyph>
<glyph name="hungarumlaut" format="1">
  <advance width="470"/>
  <unicode hex="02DD"/>
  <outline>
    <contour>
      <point x="211" y="629" type="line"/>
      <point x="302" y="629" type="line"/>
      <point x="434" y="798" type="line"/>
      <point x="308" y="798" type="line"/>
    </contour>
    <contour>
      <point x="36" y="629" type="line"/>
      <point x="126" y="629" type="line"/>
      <point x="243" y="798" type="line"/>
      <point x="126" y="798" type="line"/>
    </contour>
  </outline>
</glyph>
<glyph name="pi" format="1">
  <advance width="597"/>
  <unicode hex="03C0"/>
  <outline>
    <contour>
      <point x="378" y="0" type="line"/>
      <point x="498" y="0" type="line"/>
      <point x="498" y="466" type="line"/>
      <point x="378" y="466" type="line"/>
    </contour>
    <contour>
      <point x="108" y="186" type="line"/>
      <point x="108" y="115"/>
      <point x="88" y="100"/>
      <point x="40" y="100" type="curve"/>
      <point x="40" y="0" type="line"/>
      <point x="164" y="0"/>
      <point x="228" y="45"/>
      <point x="228" y="197" type="curve" smooth="yes"/>
      <point x="228" y="466" type="line"/>
      <point x="108" y="466" type="line"/>
    </contour>
    <contour>
      <point x="22" y="417" type="line"/>
      <point x="584" y="417" type="line"/>
      <point x="584" y="507" type="line"/>
      <point x="22" y="507" type="line"/>
    </contour>
  </outline>
</glyph>
<glyph name="dvCandrabindu" format="1">
  <advance width="0"/>
  <unicode hex="0901"/>
  <outline>
    <contour>
      <point x="-79" y="660" type="move" name="_abvm.candra"/>
    </contour>
    <contour>
      <point x="-138" y="735" type="curve" smooth="yes"/>
      <point x="-26" y="735"/>
      <point x="75" y="798"/>
      <point x="75" y="912" type="curve"/>
      <point x="-39" y="912" type="line"/>
      <point x="-39" y="860"/>
      <point x="-76" y="821"/>
      <point x="-138" y="821" type="curve" smooth="yes"/>
      <point x="-201" y="821"/>
      <point x="-239" y="860"/>
      <point x="-239" y="912" type="curve"/>
      <point x="-353" y="912" type="line"/>
      <point x="-353" y="793"/>
      <point x="-261" y="735"/>
    </contour>
    <contour>
      <point x="-201" y="967" type="curve" smooth="yes"/>
      <point x="-201" y="932"/>
      <point x="-174" y="904"/>
      <point x="-138" y="904" type="curve" smooth="yes"/>
      <point x="-103" y="904"/>
      <point x="-75" y="932"/>
      <point x="-75" y="967" type="curve" smooth="yes"/>
      <point x="-75" y="1002"/>
      <point x="-103" y="1030"/>
      <point x="-138" y="1030" type="curve" smooth="yes"/>
      <point x="-174" y="1030"/>
      <point x="-201" y="1002"/>
    </contour>
  </outline>
</glyph>
<glyph name="dvAnusvara" format="1">
  <advance width="0"/>
  <unicode hex="0902"/>
  <outline>
    <contour>
      <point x="-79" y="660" type="move" name="_abvm.bindu"/>
    </contour>
    <contour>
      <point x="-209" y="805" type="curve" smooth="yes"/>
      <point x="-209" y="765"/>
      <point x="-179" y="734"/>
      <point x="-138" y="734" type="curve" smooth="yes"/>
      <point x="-98" y="734"/>
      <point x="-66" y="765"/>
      <point x="-66" y="805" type="curve" smooth="yes"/>
      <point x="-66" y="845"/>
      <point x="-98" y="876"/>
      <point x="-138" y="876" type="curve" smooth="yes"/>
      <point x="-179" y="876"/>
      <point x="-209" y="845"/>
    </contour>
  </outline>
</glyph>
<glyph name="dvVisarga" format="1">
  <advance width="290"/>
  <unicode hex="0903"/>
  <outline>
    <contour>
      <point x="77" y="484" type="curve" smooth="yes"/>
      <point x="77" y="444"/>
      <point x="108" y="413"/>
      <point x="148" y="413" type="curve" smooth="yes"/>
      <point x="189" y="413"/>
      <point x="220" y="444"/>
      <point x="220" y="484" type="curve" smooth="yes"/>
      <point x="220" y="524"/>
      <point x="189" y="556"/>
      <point x="148" y="556" type="curve" smooth="yes"/>
      <point x="108" y="556"/>
      <point x="77" y="524"/>
    </contour>
    <contour>
      <point x="77" y="154" type="curve" smooth="yes"/>
      <point x="77" y="114"/>
      <point x="108" y="83"/>
      <point x="148" y="83" type="curve" smooth="yes"/>
      <point x="189" y="83"/>
      <point x="220" y="114"/>
      <point x="220" y="154" type="curve" smooth="yes"/>
      <point x="220" y="194"/>
      <point x="189" y="226"/>
      <point x="148" y="226" type="curve" smooth="yes"/>
      <point x="108" y="226"/>
      <point x="77" y="194"/>
    </contour>
  </outline>
</glyph>
<glyph name="dvA" format="1">
  <advance width="686"/>
  <unicode hex="0905"/>
  <outline>
    <contour>
      <point x="460" y="660" type="move" name="abvm.bindu"/>
    </contour>
    <contour>
      <point x="460" y="660" type="move" name="abvm.candra"/>
    </contour>
    <contour>
      <point x="489" y="602" type="line"/>
      <point x="489" y="0" type="line"/>
      <point x="607" y="0" type="line"/>
      <point x="607" y="602" type="line"/>
    </contour>
    <contour>
      <point x="30" y="78" type="line"/>
      <point x="69" y="63"/>
      <point x="116" y="55"/>
      <point x="161" y="55" type="curve" smooth="yes"/>
      <point x="302" y="55"/>
      <point x="370" y="131"/>
      <point x="370" y="230" type="curve" smooth="yes"/>
      <point x="370" y="306"/>
      <point x="328" y="364"/>
      <point x="253" y="374" type="curve"/>
      <point x="314" y="391"/>
      <point x="353" y="439"/>
      <point x="353" y="509" type="curve" smooth="yes"/>
      <point x="353" y="603"/>
      <point x="286" y="664"/>
      <point x="163" y="664" type="curve" smooth="yes"/>
      <point x="126" y="664"/>
      <point x="80" y="655"/>
      <point x="54" y="645" type="curve"/>
      <point x="54" y="539" type="line"/>
      <point x="81" y="552"/>
      <point x="120" y="563"/>
      <point x="156" y="563" type="curve" smooth="yes"/>
      <point x="208" y="563"/>
      <point x="235" y="539"/>
      <point x="235" y="495" type="curve" smooth="yes"/>
      <point x="235" y="450"/>
      <point x="203" y="424"/>
      <point x="143" y="424" type="curve" smooth="yes"/>
      <point x="112" y="424" type="line"/>
      <point x="112" y="324" type="line"/>
      <point x="150" y="324" type="line" smooth="yes"/>
      <point x="232" y="324"/>
      <point x="257" y="290"/>
      <point x="257" y="246" type="curve" smooth="yes"/>
      <point x="257" y="176"/>
      <point x="206" y="154"/>
      <point x="156" y="154" type="curve" smooth="yes"/>
      <point x="114" y="154"/>
      <point x="75" y="164"/>
      <point x="30" y="187" type="curve"/>
    </contour>
    <contour>
      <point x="407" y="565" type="line"/>
      <point x="713" y="565" type="line"/>
      <point x="713" y="660" type="line"/>
      <point x="407" y="660" type="line"/>
    </contour>
    <contour>
      <point x="563" y="243" type="line"/>
      <point x="563" y="339" type="line"/>
      <point x="305" y="339" type="line"/>
      <point x="305" y="243" type="line"/>
    </contour>
  </outline>
</glyph>
<glyph name="dvAA" format="1">
  <advance width="959"/>
  <unicode hex="0906"/>
  <outline>
    <contour>
      <point x="745" y="660" type="move" name="abvm.bindu"/>
    </contour>
    <contour>
      <point x="745" y="660" type="move" name="abvm.candra"/>
    </contour>
    <component base="dvA"/>
    <component base="dvmAA" xOffset="684"/>
  </outline>
</glyph>
<glyph name="dvI" format="1">
  <advance width="511"/>
  <unicode hex="0907"/>
  <outline>
    <contour>
      <point x="320" y="660" type="move" name="abvm.bindu"/>
    </contour>
    <contour>
      <point x="320" y="660" type="move" name="abvm.candra"/>
    </contour>
    <contour>
      <point x="481" y="162" type="curve" smooth="yes"/>
      <point x="481" y="265"/>
      <point x="417" y="315"/>
      <point x="272" y="318" type="curve" smooth="yes"/>
      <point x="208" y="320"/>
      <point x="180" y="333"/>
      <point x="180" y="365" type="curve" smooth="yes"/>
      <point x="180" y="397"/>
      <point x="209" y="411"/>
      <point x="246" y="411" type="curve" smooth="yes"/>
      <point x="432" y="411" type="line"/>
      <point x="413" y="506" type="line"/>
      <point x="248" y="506" type="line" smooth="yes"/>
      <point x="144" y="506"/>
      <point x="61" y="459"/>
      <point x="61" y="359" type="curve" smooth="yes"/>
      <point x="61" y="243"/>
      <point x="169" y="221"/>
      <point x="267" y="219" type="curve" smooth="yes"/>
      <point x="324" y="217"/>
      <point x="365" y="205"/>
      <point x="365" y="159" type="curve" smooth="yes"/>
      <point x="365" y="119"/>
      <point x="332" y="90"/>
      <point x="289" y="90" type="curve" smooth="yes"/>
      <point x="230" y="90"/>
      <point x="182" y="127"/>
      <point x="164" y="176" type="curve"/>
      <point x="133" y="68" type="line"/>
      <point x="171" y="25"/>
      <point x="231" y="1"/>
      <point x="301" y="1" type="curve" smooth="yes"/>
      <point x="408" y="1"/>
      <point x="481" y="74"/>
    </contour>
    <contour>
      <point x="-27" y="565" type="line"/>
      <point x="315" y="565" type="line"/>
      <point x="315" y="427" type="line"/>
      <point x="432" y="413" type="line"/>
      <point x="432" y="565" type="line"/>
      <point x="538" y="565" type="line"/>
      <point x="538" y="660" type="line"/>
      <point x="-27" y="660" type="line"/>
    </contour>
    <contour>
      <point x="56" y="-67" type="line"/>
      <point x="172" y="-67" type="line"/>
      <point x="172" y="123" type="line"/>
      <point x="164" y="176" type="line"/>
      <point x="56" y="176" type="line"/>
    </contour>
  </outline>
</glyph>
<glyph name="dvII" format="1">
  <advance width="511"/>
  <unicode hex="0908"/>
  <outline>
    <contour>
      <point x="432" y="810" type="curve" smooth="yes"/>
      <point x="465" y="810"/>
      <point x="499" y="799"/>
      <point x="521" y="785" type="curve"/>
      <point x="521" y="893" type="line"/>
      <point x="490" y="908"/>
      <point x="456" y="913"/>
      <point x="418" y="913" type="curve" smooth="yes"/>
      <point x="325" y="913"/>
      <point x="249" y="857"/>
      <point x="249" y="756" type="curve" smooth="yes"/>
      <point x="249" y="693"/>
      <point x="284" y="655"/>
      <point x="292" y="648" type="curve"/>
      <point x="412" y="648" type="line"/>
      <point x="404" y="654"/>
      <point x="369" y="701"/>
      <point x="369" y="746" type="curve" smooth="yes"/>
      <point x="369" y="782"/>
      <point x="392" y="810"/>
    </contour>
    <contour>
      <point x="481" y="162" type="curve" smooth="yes"/>
      <point x="481" y="265"/>
      <point x="417" y="315"/>
      <point x="272" y="318" type="curve" smooth="yes"/>
      <point x="208" y="320"/>
      <point x="180" y="333"/>
      <point x="180" y="365" type="curve" smooth="yes"/>
      <point x="180" y="397"/>
      <point x="209" y="411"/>
      <point x="246" y="411" type="curve" smooth="yes"/>
      <point x="425" y="411" type="line"/>
      <point x="406" y="506" type="line"/>
      <point x="248" y="506" type="line" smooth="yes"/>
      <point x="144" y="506"/>
      <point x="61" y="459"/>
      <point x="61" y="359" type="curve" smooth="yes"/>
      <point x="61" y="243"/>
      <point x="169" y="221"/>
      <point x="267" y="219" type="curve" smooth="yes"/>
      <point x="324" y="217"/>
      <point x="365" y="205"/>
      <point x="365" y="159" type="curve" smooth="yes"/>
      <point x="365" y="119"/>
      <point x="332" y="90"/>
      <point x="289" y="90" type="curve" smooth="yes"/>
      <point x="230" y="90"/>
      <point x="182" y="127"/>
      <point x="164" y="176" type="curve"/>
      <point x="133" y="68" type="line"/>
      <point x="171" y="25"/>
      <point x="231" y="1"/>
      <point x="301" y="1" type="curve" smooth="yes"/>
      <point x="408" y="1"/>
      <point x="481" y="74"/>
    </contour>
    <contour>
      <point x="-27" y="565" type="line"/>
      <point x="308" y="565" type="line"/>
      <point x="308" y="427" type="line"/>
      <point x="425" y="413" type="line"/>
      <point x="425" y="565" type="line"/>
      <point x="538" y="565" type="line"/>
      <point x="538" y="660" type="line"/>
      <point x="-27" y="660" type="line"/>
    </contour>
    <contour>
      <point x="56" y="-67" type="line"/>
      <point x="172" y="-67" type="line"/>
      <point x="172" y="123" type="line"/>
      <point x="164" y="176" type="line"/>
      <point x="56" y="176" type="line"/>
    </contour>
  </outline>
</glyph>
<glyph name="dvU" format="1">
  <advance width="451"/>
  <unicode hex="0909"/>
  <outline>
    <contour>
      <point x="284" y="660" type="move" name="abvm.bindu"/>
    </contour>
    <contour>
      <point x="284" y="660" type="move" name="abvm.candra"/>
    </contour>
    <contour>
      <point x="478" y="565" type="line"/>
      <point x="478" y="660" type="line"/>
      <point x="-27" y="660" type="line"/>
      <point x="-27" y="565" type="line"/>
    </contour>
    <contour>
      <point x="189" y="591" type="line"/>
      <point x="223" y="575"/>
      <point x="262" y="536"/>
      <point x="262" y="486" type="curve" smooth="yes"/>
      <point x="262" y="419"/>
      <point x="219" y="397"/>
      <point x="148" y="397" type="curve" smooth="yes"/>
      <point x="111" y="397" type="line"/>
      <point x="111" y="297" type="line"/>
      <point x="154" y="297" type="line" smooth="yes"/>
      <point x="253" y="297"/>
      <point x="296" y="261"/>
      <point x="296" y="208" type="curve" smooth="yes"/>
      <point x="296" y="143"/>
      <point x="252" y="112"/>
      <point x="166" y="112" type="curve" smooth="yes"/>
      <point x="122" y="112"/>
      <point x="74" y="122"/>
      <point x="30" y="145" type="curve"/>
      <point x="30" y="37" type="line"/>
      <point x="72" y="22"/>
      <point x="126" y="14"/>
      <point x="173" y="14" type="curve" smooth="yes"/>
      <point x="326" y="14"/>
      <point x="414" y="83"/>
      <point x="414" y="198" type="curve" smooth="yes"/>
      <point x="414" y="287"/>
      <point x="350" y="339"/>
      <point x="258" y="347" type="curve"/>
      <point x="332" y="360"/>
      <point x="380" y="404"/>
      <point x="380" y="481" type="curve" smooth="yes"/>
      <point x="380" y="526"/>
      <point x="358" y="567"/>
      <point x="322" y="591" type="curve"/>
    </contour>
  </outline>
</glyph>
<glyph name="dvUU" format="1">
  <advance width="713"/>
  <unicode hex="090A"/>
  <outline>
    <contour>
      <point x="429" y="660" type="move" name="abvm.bindu"/>
    </contour>
    <contour>
      <point x="429" y="660" type="move" name="abvm.candra"/>
    </contour>
    <contour>
      <point x="465" y="24" type="line"/>
      <point x="474" y="22"/>
      <point x="484" y="21"/>
      <point x="494" y="21" type="curve" smooth="yes"/>
      <point x="622" y="21"/>
      <point x="691" y="110"/>
      <point x="691" y="228" type="curve" smooth="yes"/>
      <point x="691" y="341"/>
      <point x="624" y="418"/>
      <point x="503" y="418" type="curve" smooth="yes"/>
      <point x="408" y="418"/>
      <point x="350" y="354"/>
      <point x="347" y="268" type="curve"/>
      <point x="414" y="202" type="line"/>
      <point x="414" y="268"/>
      <point x="443" y="323"/>
      <point x="496" y="323" type="curve" smooth="yes"/>
      <point x="549" y="323"/>
      <point x="574" y="281"/>
      <point x="574" y="226" type="curve" smooth="yes"/>
      <point x="574" y="152"/>
      <point x="545" y="116"/>
      <point x="482" y="116" type="curve" smooth="yes"/>
      <point x="477" y="116"/>
      <point x="472" y="116"/>
      <point x="465" y="118" type="curve"/>
    </contour>
    <contour>
      <point x="189" y="591" type="line"/>
      <point x="223" y="575"/>
      <point x="262" y="536"/>
      <point x="262" y="486" type="curve" smooth="yes"/>
      <point x="262" y="419"/>
      <point x="219" y="397"/>
      <point x="148" y="397" type="curve" smooth="yes"/>
      <point x="111" y="397" type="line"/>
      <point x="111" y="297" type="line"/>
      <point x="154" y="297" type="line" smooth="yes"/>
      <point x="253" y="297"/>
      <point x="296" y="261"/>
      <point x="296" y="208" type="curve" smooth="yes"/>
      <point x="296" y="143"/>
      <point x="252" y="112"/>
      <point x="166" y="112" type="curve" smooth="yes"/>
      <point x="122" y="112"/>
      <point x="74" y="122"/>
      <point x="30" y="145" type="curve"/>
      <point x="30" y="37" type="line"/>
      <point x="72" y="22"/>
      <point x="126" y="14"/>
      <point x="173" y="14" type="curve" smooth="yes"/>
      <point x="326" y="14"/>
      <point x="414" y="83"/>
      <point x="414" y="198" type="curve" smooth="yes"/>
      <point x="414" y="287"/>
      <point x="350" y="339"/>
      <point x="258" y="347" type="curve"/>
      <point x="332" y="360"/>
      <point x="380" y="404"/>
      <point x="380" y="481" type="curve" smooth="yes"/>
      <point x="380" y="526"/>
      <point x="358" y="567"/>
      <point x="322" y="591" type="curve"/>
    </contour>
    <contour>
      <point x="740" y="565" type="line"/>
      <point x="740" y="660" type="line"/>
      <point x="-27" y="660" type="line"/>
      <point x="-27" y="565" type="line"/>
    </contour>
  </outline>
</glyph>
<glyph name="dvvR" format="1">
  <advance width="877"/>
  <unicode hex="090B"/>
  <outline>
    <contour>
      <point x="492" y="660" type="move" name="abvm.bindu"/>
    </contour>
    <contour>
      <point x="492" y="660" type="move" name="abvm.candra"/>
    </contour>
    <contour>
      <point x="904" y="565" type="line"/>
      <point x="904" y="660" type="line"/>
      <point x="-27" y="660" type="line"/>
      <point x="-27" y="565" type="line"/>
    </contour>
    <contour>
      <point x="491" y="0" type="line"/>
      <point x="491" y="602" type="line"/>
      <point x="372" y="602" type="line"/>
      <point x="372" y="0" type="line"/>
    </contour>
    <contour>
      <point x="708" y="498" type="line"/>
      <point x="597" y="498" type="line"/>
      <point x="597" y="398" type="line" smooth="yes"/>
      <point x="597" y="323"/>
      <point x="642" y="267"/>
      <point x="724" y="267" type="curve"/>
      <point x="782" y="327" type="line"/>
      <point x="730" y="327"/>
      <point x="708" y="359"/>
      <point x="708" y="410" type="curve" smooth="yes"/>
    </contour>
    <contour>
      <point x="836" y="148" type="line"/>
      <point x="802" y="127"/>
      <point x="758" y="123"/>
      <point x="736" y="123" type="curve" smooth="yes"/>
      <point x="704" y="123"/>
      <point x="674" y="139"/>
      <point x="674" y="172" type="curve" smooth="yes"/>
      <point x="674" y="210"/>
      <point x="702" y="233"/>
      <point x="764" y="233" type="curve" smooth="yes"/>
      <point x="807" y="233" type="line"/>
      <point x="807" y="327" type="line"/>
      <point x="746" y="327" type="line"/>
      <point x="725" y="293" type="line"/>
      <point x="632" y="293"/>
      <point x="560" y="247"/>
      <point x="560" y="164" type="curve" smooth="yes"/>
      <point x="560" y="68"/>
      <point x="648" y="29"/>
      <point x="735" y="29" type="curve" smooth="yes"/>
      <point x="771" y="29"/>
      <point x="812" y="37"/>
      <point x="836" y="50" type="curve"/>
    </contour>
    <contour>
      <point x="427" y="231" type="line"/>
      <point x="688" y="380" type="line"/>
      <point x="635" y="458" type="line"/>
      <point x="427" y="338" type="line"/>
    </contour>
    <contour>
      <point x="138" y="374" type="curve"/>
      <point x="224" y="374"/>
      <point x="248" y="313"/>
      <point x="255" y="241" type="curve"/>
      <point x="348" y="292" type="line"/>
      <point x="327" y="426"/>
      <point x="249" y="477"/>
      <point x="148" y="477" type="curve" smooth="yes"/>
      <point x="122" y="477"/>
      <point x="86" y="472"/>
      <point x="61" y="462" type="curve"/>
      <point x="61" y="357" type="line"/>
      <point x="90" y="370"/>
      <point x="114" y="374"/>
    </contour>
    <contour>
      <point x="386" y="327" type="line"/>
      <point x="66" y="146" type="line"/>
      <point x="66" y="32" type="line"/>
      <point x="386" y="217" type="line"/>
    </contour>
  </outline>
</glyph>
